<svg width="241" height="100" viewBox="0 0 241 100" fill="none" xmlns="http://www.w3.org/2000/svg">
<rect width="100" height="100" fill="#EC221F"/>
<path d="M97.283 61.0878L88.387 77.5998C88.1736 78.1118 88.1736 78.6025 88.387 79.0718L97.283 95.7118C97.795 96.6932 97.7736 97.6532 97.219 98.5918C96.6216 99.5305 95.7683 99.9998 94.659 99.9998H92.739C91.5016 99.9998 90.6483 99.4878 90.179 98.4638L84.099 87.1998C84.0563 87.0292 83.9283 86.9438 83.715 86.9438C83.5443 86.9438 83.4163 87.0292 83.331 87.1998L77.251 98.4638C77.0803 98.9332 76.739 99.3172 76.227 99.6158C75.7576 99.8718 75.2456 99.9998 74.691 99.9998H72.707C71.6403 99.9998 70.8083 99.5305 70.211 98.5918C69.6563 97.6532 69.635 96.6932 70.147 95.7118L79.043 79.0718C79.2563 78.6025 79.2563 78.1118 79.043 77.5998L70.147 61.0878C69.635 60.0212 69.6563 59.0398 70.211 58.1438C70.8083 57.2052 71.6403 56.7358 72.707 56.7358H74.691C75.843 56.7358 76.6963 57.2478 77.251 58.2718L83.331 69.5998C83.4163 69.7705 83.5443 69.8558 83.715 69.8558C83.8856 69.8558 84.0136 69.7705 84.099 69.5998L90.179 58.2718C90.7336 57.2478 91.587 56.7358 92.739 56.7358H94.723C95.7896 56.7358 96.6216 57.2052 97.219 58.1438C97.7736 59.0398 97.795 60.0212 97.283 61.0878Z" fill="white"/>
<path d="M57.0233 97.0558C57.0233 97.8665 56.746 98.5705 56.1913 99.1678C55.6793 99.7225 55.018 99.9998 54.2073 99.9998H52.4153C51.6047 99.9998 50.9007 99.7225 50.3033 99.1678C49.7487 98.5705 49.4713 97.8665 49.4713 97.0558V67.9358C49.4713 67.7652 49.386 67.6585 49.2153 67.6158C49.0873 67.5305 48.9807 67.5305 48.8953 67.6158L47.9353 68.5758C47.4233 69.1732 46.7407 69.4718 45.8873 69.4718C45.4607 69.4718 45.0767 69.3865 44.7353 69.2158C44.1807 69.0025 43.754 68.6398 43.4553 68.1278C43.1567 67.6158 43.0073 67.0825 43.0073 66.5278V64.0318C43.0073 63.2212 43.2847 62.5172 43.8393 61.9198L48.1913 57.6318C48.49 57.3758 48.81 57.1625 49.1513 56.9918C49.4927 56.8212 49.8767 56.7358 50.3033 56.7358H54.2073C55.018 56.7358 55.6793 57.0132 56.1913 57.5678C56.746 58.1225 57.0233 58.8265 57.0233 59.6798V97.0558Z" fill="white"/>
<path d="M229.529 88.4282C229.529 90.6663 228.743 92.5711 227.172 94.1425C225.648 95.6663 223.791 96.4282 221.6 96.4282H211.672C209.481 96.4282 207.6 95.6663 206.029 94.1425C204.458 92.5711 203.672 90.6663 203.672 88.4282V67.4282C203.672 65.952 204.029 64.6187 204.743 63.4282C205.505 62.1901 206.481 61.2139 207.672 60.4997C208.862 59.7854 210.196 59.4282 211.672 59.4282H221.6C223.077 59.4282 224.41 59.7854 225.6 60.4997C226.791 61.2139 227.743 62.1901 228.458 63.4282C229.172 64.6187 229.529 65.952 229.529 67.4282V88.4282ZM221.1 87.0711V68.9282C221.1 68.6425 220.981 68.4044 220.743 68.2139C220.553 68.0235 220.339 67.9282 220.1 67.9282H213.172C212.934 67.9282 212.696 68.0235 212.458 68.2139C212.267 68.4044 212.172 68.6425 212.172 68.9282V87.0711C212.172 87.3092 212.267 87.5235 212.458 87.7139C212.696 87.9044 212.934 87.9997 213.172 87.9997H220.1C220.339 87.9997 220.553 87.9044 220.743 87.7139C220.981 87.5235 221.1 87.3092 221.1 87.0711Z" fill="#6C6C6C"/>
<path d="M197.891 93.1426C197.891 94.0473 197.581 94.8331 196.962 95.4997C196.343 96.1188 195.581 96.4283 194.677 96.4283H184.677C182.486 96.4283 180.605 95.6664 179.034 94.1426C177.51 92.5712 176.748 90.6664 176.748 88.4283V51.4283C176.748 50.4759 177.058 49.6902 177.677 49.0712C178.296 48.4521 179.058 48.1426 179.962 48.1426H181.962C182.867 48.1426 183.629 48.4521 184.248 49.0712C184.915 49.6902 185.248 50.4759 185.248 51.4283V58.5712C185.248 59.1426 185.558 59.4283 186.177 59.4283H194.677C195.581 59.4283 196.343 59.7616 196.962 60.4283C197.581 61.0473 197.891 61.8331 197.891 62.7854V64.714C197.891 65.5235 197.581 66.2854 196.962 66.9997C196.248 67.6188 195.486 67.9283 194.677 67.9283H186.177C185.558 67.9283 185.248 68.2616 185.248 68.9283V87.0711C185.248 87.6902 185.558 87.9997 186.177 87.9997H194.677C195.581 87.9997 196.343 88.3092 196.962 88.9283C197.581 89.5473 197.891 90.3331 197.891 91.2854V93.1426Z" fill="#6C6C6C"/>
<path d="M170.865 88.4282C170.865 90.6663 170.079 92.5711 168.508 94.1425C166.984 95.6663 165.127 96.4282 162.936 96.4282H153.008C150.817 96.4282 148.936 95.6663 147.365 94.1425C145.794 92.5711 145.008 90.6663 145.008 88.4282V62.7854C145.008 61.833 145.317 61.0473 145.936 60.4282C146.603 59.7616 147.389 59.4282 148.294 59.4282H150.294C151.198 59.4282 151.96 59.7616 152.579 60.4282C153.198 61.0473 153.508 61.833 153.508 62.7854V87.0711C153.508 87.3092 153.603 87.5235 153.794 87.7139C154.032 87.9044 154.27 87.9997 154.508 87.9997H161.436C161.674 87.9997 161.889 87.9044 162.079 87.7139C162.317 87.5235 162.436 87.3092 162.436 87.0711V62.7854C162.436 61.833 162.746 61.0473 163.365 60.4282C163.984 59.7616 164.746 59.4282 165.651 59.4282H167.651C168.555 59.4282 169.317 59.7616 169.936 60.4282C170.555 61.0473 170.865 61.833 170.865 62.7854V88.4282Z" fill="#6C6C6C"/>
<path d="M139.197 88.4282C139.197 90.6663 138.411 92.5711 136.84 94.1425C135.316 95.6663 133.459 96.4282 131.268 96.4282H121.34C119.149 96.4282 117.268 95.6663 115.697 94.1425C114.126 92.5711 113.34 90.6663 113.34 88.4282V80.6425C113.34 79.1663 113.697 77.8568 114.411 76.7139C115.173 75.5235 116.149 74.5711 117.34 73.8568C118.53 73.1425 119.864 72.7854 121.34 72.7854H129.768C130.007 72.7854 130.221 72.6901 130.411 72.4997C130.649 72.3092 130.768 72.0711 130.768 71.7854V68.9282C130.768 68.6425 130.649 68.4044 130.411 68.2139C130.221 68.0235 130.007 67.9282 129.768 67.9282H121.34C120.435 67.9282 119.649 67.6187 118.983 66.9997C118.364 66.3806 118.054 65.6187 118.054 64.7139V62.7854C118.054 61.833 118.364 61.0473 118.983 60.4282C119.649 59.7616 120.435 59.4282 121.34 59.4282H131.268C132.745 59.4282 134.078 59.7854 135.268 60.4997C136.459 61.2139 137.411 62.1901 138.126 63.4282C138.84 64.6187 139.197 65.952 139.197 67.4282V88.4282ZM130.768 87.0711V82.1425C130.768 81.9044 130.649 81.6901 130.411 81.4997C130.221 81.3092 130.007 81.2139 129.768 81.2139H122.84C122.602 81.2139 122.364 81.3092 122.126 81.4997C121.935 81.6901 121.84 81.9044 121.84 82.1425V87.0711C121.84 87.3092 121.935 87.5235 122.126 87.7139C122.364 87.9044 122.602 87.9997 122.84 87.9997H129.768C130.007 87.9997 130.221 87.9044 130.411 87.7139C130.649 87.5235 130.768 87.3092 130.768 87.0711Z" fill="#6C6C6C"/>
</svg>
