<?xml version="1.0" encoding="utf-8"?>
<!-- Generator: Adobe Illustrator 26.4.1, SVG Export Plug-In . SVG Version: 6.00 Build 0)  -->
<svg version="1.1" id="Layer_1" xmlns="http://www.w3.org/2000/svg" xmlns:xlink="http://www.w3.org/1999/xlink" x="0px" y="0px"
	 viewBox="0 0 500 200" style="enable-background:new 0 0 500 200;" xml:space="preserve">
<style type="text/css">
	.st0{fill:#FFCC00;}
	.st1{opacity:0.8;fill:#FFFFFF;enable-background:new    ;}
	.st2{opacity:0.6;enable-background:new    ;}
	.st3{fill:none;stroke:#FFCC00;stroke-width:1.1339;stroke-miterlimit:10;}
	.st4{fill:#FFFFFF;}
	.st5{fill:#CCCCCC;}
	.st6{fill:#666666;}
	.st7{fill:#333333;}
	.st8{stroke:#FFCC00;stroke-width:2.8346;stroke-miterlimit:10;}
	.st9{fill:none;stroke:#FFCC00;stroke-width:0.2835;stroke-miterlimit:10;}
</style>
<path class="st0" d="M490,199.9H10c-5.5,0-10-4.5-10-10V9.9c0-5.5,4.5-10,10-10h480c5.5,0,10,4.5,10,10v180
	C500,195.5,495.5,199.9,490,199.9z"/>
<path class="st1" d="M478.5,12.8c3.7,0,6.8,3,6.8,6.8v160.7c0,3.7-3,6.8-6.8,6.8H17.8c-3.7,0-6.8-3-6.8-6.8V19.6
	c0-3.7,3-6.8,6.8-6.8H478.5 M478.5,10H17.8c-5.3,0-9.6,4.3-9.6,9.6v160.7c0,5.3,4.3,9.6,9.6,9.6h460.7c5.3,0,9.6-4.3,9.6-9.6V19.6
	C488.2,14.3,483.8,10,478.5,10L478.5,10z"/>
<path class="st2" d="M482.2,13.3c3.7,0,6.8,3,6.8,6.8v160.7c0,3.7-3,6.8-6.8,6.8H21.5c-3.7,0-6.8-3-6.8-6.8V20.1
	c0-3.7,3-6.8,6.8-6.8H482.2 M482.2,10.5H21.5c-5.3,0-9.6,4.3-9.6,9.6v160.7c0,5.3,4.3,9.6,9.6,9.6h460.7c5.3,0,9.6-4.3,9.6-9.6V20.1
	C491.8,14.8,487.5,10.5,482.2,10.5L482.2,10.5z"/>
<path class="st3" d="M480.4,12.8c3.7,0,6.8,3,6.8,6.8v160.7c0,3.7-3,6.8-6.8,6.8H19.6c-3.7,0-6.8-3-6.8-6.8V19.6
	c0-3.7,3-6.8,6.8-6.8H480.4 M480.4,10H19.6c-5.3,0-9.6,4.3-9.6,9.6v160.7c0,5.3,4.3,9.6,9.6,9.6h460.7c5.3,0,9.6-4.3,9.6-9.6V19.6
	C490,14.3,485.7,10,480.4,10L480.4,10z"/>
<path d="M480.4,12.8c3.7,0,6.8,3,6.8,6.8v160.7c0,3.7-3,6.8-6.8,6.8H19.6c-3.7,0-6.8-3-6.8-6.8V19.6c0-3.7,3-6.8,6.8-6.8H480.4
	 M480.4,10H19.6c-5.3,0-9.6,4.3-9.6,9.6v160.7c0,5.3,4.3,9.6,9.6,9.6h460.7c5.3,0,9.6-4.3,9.6-9.6V19.6C490,14.3,485.7,10,480.4,10
	L480.4,10z"/>
<g>
	<path class="st4" d="M110,42.5H90c-4.1,0-7.5-3.4-7.5-7.5l0,0c0-4.1,3.4-7.5,7.5-7.5h20c4.1,0,7.5,3.4,7.5,7.5l0,0
		C117.5,39.1,114.1,42.5,110,42.5z"/>
	<path class="st5" d="M108.4,28.5h1.6 M110,28.5c3.6,0,6.5,2.9,6.5,6.5s-2.9,6.5-6.5,6.5H90c-3.6,0-6.5-2.9-6.5-6.5s2.9-6.5,6.5-6.5
		h18.4 M110,27.5H90c-4.1,0-7.5,3.4-7.5,7.5s3.4,7.5,7.5,7.5h20c4.1,0,7.5-3.4,7.5-7.5S114.1,27.5,110,27.5L110,27.5"/>
	<path class="st6" d="M90,42.5h4.3l1-1H90c-3.6,0-6.5-2.9-6.5-6.5s2.9-6.5,6.5-6.5h18.3l1-1H90c-4.1,0-7.5,3.4-7.5,7.5
		S85.9,42.5,90,42.5z"/>
</g>
<g>
	<path class="st4" d="M110,172.5H90c-4.1,0-7.5-3.4-7.5-7.5l0,0c0-4.1,3.4-7.5,7.5-7.5h20c4.1,0,7.5,3.4,7.5,7.5l0,0
		C117.5,169.1,114.1,172.5,110,172.5z"/>
	<path class="st5" d="M108.4,158.5h1.6 M110,158.5c3.6,0,6.5,2.9,6.5,6.5s-2.9,6.5-6.5,6.5H90c-3.6,0-6.5-2.9-6.5-6.5
		s2.9-6.5,6.5-6.5h18.4 M110,157.5H90c-4.1,0-7.5,3.4-7.5,7.5s3.4,7.5,7.5,7.5h20c4.1,0,7.5-3.4,7.5-7.5S114.1,157.5,110,157.5
		L110,157.5"/>
	<path class="st6" d="M90,172.5h4.3l1-1H90c-3.6,0-6.5-2.9-6.5-6.5s2.9-6.5,6.5-6.5h18.3l1-1H90c-4.1,0-7.5,3.4-7.5,7.5
		S85.9,172.5,90,172.5z"/>
</g>
<g>
	<path class="st4" d="M410,42.5h-20c-4.1,0-7.5-3.4-7.5-7.5l0,0c0-4.1,3.4-7.5,7.5-7.5h20c4.1,0,7.5,3.4,7.5,7.5l0,0
		C417.5,39.1,414.1,42.5,410,42.5z"/>
	<path class="st5" d="M408.4,28.5h1.6 M410,28.5c3.6,0,6.5,2.9,6.5,6.5s-2.9,6.5-6.5,6.5h-20c-3.6,0-6.5-2.9-6.5-6.5
		s2.9-6.5,6.5-6.5h18.4 M410,27.5h-20c-4.1,0-7.5,3.4-7.5,7.5s3.4,7.5,7.5,7.5h20c4.1,0,7.5-3.4,7.5-7.5S414.1,27.5,410,27.5
		L410,27.5"/>
	<path class="st6" d="M390,42.5h4.3l1-1H390c-3.6,0-6.5-2.9-6.5-6.5s2.9-6.5,6.5-6.5h18.3l1-1H390c-4.1,0-7.5,3.4-7.5,7.5
		S385.9,42.5,390,42.5z"/>
</g>
<g>
	<path class="st4" d="M410,172.5h-20c-4.1,0-7.5-3.4-7.5-7.5l0,0c0-4.1,3.4-7.5,7.5-7.5h20c4.1,0,7.5,3.4,7.5,7.5l0,0
		C417.5,169.1,414.1,172.5,410,172.5z"/>
	<path class="st5" d="M408.4,158.5h1.6 M410,158.5c3.6,0,6.5,2.9,6.5,6.5s-2.9,6.5-6.5,6.5h-20c-3.6,0-6.5-2.9-6.5-6.5
		s2.9-6.5,6.5-6.5h18.4 M410,157.5h-20c-4.1,0-7.5,3.4-7.5,7.5s3.4,7.5,7.5,7.5h20c4.1,0,7.5-3.4,7.5-7.5S414.1,157.5,410,157.5
		L410,157.5"/>
	<path class="st6" d="M390,172.5h4.3l1-1H390c-3.6,0-6.5-2.9-6.5-6.5s2.9-6.5,6.5-6.5h18.3l1-1H390c-4.1,0-7.5,3.4-7.5,7.5
		S385.9,172.5,390,172.5z"/>
</g>
<g>
	<path class="st4" d="M82.8,98c2.1,1.2,3.7,3.1,4.8,5.6c1.4,3,2,6.5,2,10.3c0,3.4-0.5,6.4-1.5,9c-1.3,3.5-3.3,6.2-6.1,8.2
		c-2.7,2-6,3-9.8,3c-3.7,0-7-1-9.7-2.9s-4.8-4.6-6.1-8.1c-1-2.7-1.5-5.7-1.5-9.1c0-3.8,0.6-7.1,1.7-9.8c1-2.6,2.7-4.6,5.1-6
		c0.3-0.2,0.3-0.4,0-0.6c-2.1-1.4-3.8-3.2-4.9-5.6c-1.3-2.8-1.9-5.9-1.9-9.3c0-3.7,0.6-6.9,1.9-9.4c1.3-2.8,3.3-5,6-6.6
		c2.7-1.5,5.8-2.3,9.3-2.3s6.6,0.8,9.2,2.3c2.7,1.5,4.7,3.7,6.1,6.5c1.4,2.7,2.1,5.9,2.1,9.5c0,3.4-0.6,6.4-1.9,9.1
		c-1.2,2.4-2.8,4.3-4.9,5.6C82.4,97.6,82.4,97.8,82.8,98z M66.7,79.2c-0.5,1.2-0.7,2.6-0.7,4.5s0.3,3.8,1,5.5c0.5,1.4,1.1,2.4,2,3.2
		c0.9,0.8,2,1.2,3.2,1.2c1.4,0,2.5-0.4,3.4-1.2c0.9-0.8,1.6-2,2.1-3.4c0.5-1.5,0.8-3.3,0.8-5.2c0-2.2-0.3-4-1-5.3
		c-0.5-1.4-1.1-2.4-2-3.1s-2-1.1-3.3-1.1c-1.2,0-2.2,0.3-3,1c-0.9,0.7-1.5,1.6-2,2.8L66.7,79.2z M78.5,113.3c0-2.5-0.3-4.5-0.9-6.3
		c-0.4-1.5-1-2.8-2-3.6c-0.9-0.9-2.1-1.3-3.4-1.3s-2.5,0.5-3.4,1.4s-1.6,2.2-2,3.9c-0.5,1.7-0.8,3.6-0.8,5.8c0,2,0.2,3.8,0.6,5.5
		c0.3,1.8,1,3.2,2,4.2s2.2,1.5,3.6,1.5c1.5,0,2.7-0.5,3.8-1.5c1-1,1.7-2.5,2-4.4C78.4,116.7,78.5,115,78.5,113.3z"/>
	<path class="st4" d="M132.2,112.4c0,1.5-0.1,3.6-0.2,6.3c-0.3,4.9-2,8.7-5.1,11.4c-3.1,2.7-7.1,4-12.1,4c-4.8,0-8.6-1.2-11.6-3.7
		s-4.7-6.1-5.3-11c-0.4-1.7-0.6-3.8-0.6-6.1l-0.1-31.5c0-5.2,1.6-9.4,4.8-12.4c3.2-3.1,7.4-4.6,12.6-4.6c4.9,0,8.9,1.5,12,4.6
		c3.1,3.1,4.6,7.2,4.6,12.4v2.4c0,0.3-0.1,0.6-0.3,0.8c-0.2,0.2-0.5,0.3-0.8,0.3h-8.9c-0.3,0-0.6-0.1-0.8-0.3
		c-0.2-0.2-0.3-0.5-0.3-0.8v-1.8c0-2.2-0.5-4-1.6-5.5s-2.3-2.2-3.8-2.2c-1.8,0-3.3,0.7-4.4,2.1s-1.7,3.3-1.7,5.5v10
		c0,0.2,0.1,0.3,0.2,0.4s0.3,0,0.4-0.1c1.9-1.7,4.2-2.6,7-2.6c4.5,0,8.1,1.4,10.8,4.3c2.8,2.8,4.4,6.6,4.8,11.3
		C132,107.7,132.2,110,132.2,112.4z M120.9,111.6c0-1.7-0.2-4-0.5-6.9c-0.8-3.7-2.7-5.6-5.7-5.6c-1.5,0-2.8,0.5-3.8,1.5
		s-1.7,2.5-2,4.4c-0.3,2.3-0.4,4.5-0.4,6.6c0,1.9,0.1,4,0.3,6.5c0.3,2.1,1,3.6,2,4.7s2.3,1.6,3.9,1.6s2.9-0.6,3.9-1.7
		c1-1.2,1.7-2.8,2-4.9C120.8,115.5,120.9,113.4,120.9,111.6z"/>
	<path class="st4" d="M143.5,129.2c-3.3-3.5-4.9-8-4.9-13.6V83.2c0-5.6,1.6-10.1,4.9-13.6c3.3-3.5,7.6-5.2,13.1-5.2
		s9.9,1.7,13.2,5.2s5,8,5,13.6v32.3c0,5.6-1.7,10.2-5,13.6c-3.3,3.5-7.7,5.2-13.2,5.2C151.2,134.3,146.8,132.6,143.5,129.2z
		 M161.7,122.3c1.3-1.5,1.9-3.5,1.9-6.1V82.5c0-2.5-0.6-4.5-1.9-6.1c-1.3-1.5-3-2.3-5.1-2.3s-3.7,0.8-4.9,2.3s-1.8,3.5-1.8,6.1v33.7
		c0,2.5,0.6,4.5,1.8,6.1c1.2,1.5,2.9,2.3,4.9,2.3C158.7,124.6,160.4,123.8,161.7,122.3z"/>
	<path class="st4" d="M187.1,129.2c-3.3-3.5-4.9-8-4.9-13.6V83.2c0-5.6,1.6-10.1,4.9-13.6c3.3-3.5,7.6-5.2,13.1-5.2
		s9.9,1.7,13.2,5.2s5,8,5,13.6v32.3c0,5.6-1.7,10.2-5,13.6c-3.3,3.5-7.7,5.2-13.2,5.2C194.7,134.3,190.4,132.6,187.1,129.2z
		 M205.2,122.3c1.3-1.5,1.9-3.5,1.9-6.1V82.5c0-2.5-0.6-4.5-1.9-6.1c-1.3-1.5-3-2.3-5.1-2.3s-3.7,0.8-4.9,2.3s-1.8,3.5-1.8,6.1v33.7
		c0,2.5,0.6,4.5,1.8,6.1c1.2,1.5,2.9,2.3,4.9,2.3C202.3,124.6,204,123.8,205.2,122.3z"/>
	<path class="st4" d="M230.7,132l16-56.2c0.1-0.4,0-0.6-0.4-0.6h-13.1c-0.3,0-0.5,0.2-0.5,0.5v3.5c0,0.3-0.1,0.6-0.3,0.8
		c-0.2,0.2-0.5,0.3-0.8,0.3h-6.9c-0.3,0-0.6-0.1-0.8-0.3c-0.2-0.2-0.3-0.5-0.3-0.8l0.1-12.5c0-0.3,0.1-0.6,0.3-0.8
		c0.2-0.2,0.5-0.3,0.8-0.3h32.8c0.3,0,0.6,0.1,0.8,0.3c0.2,0.2,0.3,0.5,0.3,0.8v7.8c0,0.3-0.1,0.7-0.2,1.4l-16.2,56.4
		c-0.2,0.6-0.6,1-1.4,1h-9.4C230.9,133.3,230.5,132.9,230.7,132z"/>
	<path class="st4" d="M291.4,132.2l-1.8-10.2c0-0.3-0.2-0.5-0.6-0.5h-14.1c-0.4,0-0.6,0.2-0.6,0.5l-1.8,10.2
		c-0.1,0.7-0.5,1.1-1.3,1.1h-8.8c-0.9,0-1.3-0.4-1.1-1.3l14.3-65.4c0.1-0.7,0.5-1.1,1.3-1.1h10.3c0.7,0,1.1,0.4,1.3,1.1l14.3,65.4
		v0.4c0,0.6-0.4,0.9-1.1,0.9h-9C291.9,133.3,291.5,132.9,291.4,132.2z M276.5,112.8h10.7c0.4,0,0.5-0.2,0.5-0.5l-5.6-30.6
		c-0.1-0.2-0.2-0.3-0.3-0.3c-0.1,0-0.2,0.1-0.3,0.3l-5.5,30.6C276,112.6,276.1,112.8,276.5,112.8z"/>
	<path class="st4" d="M313.9,128.7c-3.3-3.6-5-8.3-5-14.2V66.7c0-0.3,0.1-0.6,0.3-0.8c0.2-0.2,0.5-0.3,0.8-0.3h8.9
		c0.3,0,0.6,0.1,0.8,0.3c0.2,0.2,0.3,0.5,0.3,0.8v49c0,2.6,0.6,4.7,1.9,6.3c1.3,1.6,3,2.4,5.1,2.4s3.8-0.8,5.1-2.4
		c1.3-1.6,1.9-3.7,1.9-6.3v-49c0-0.3,0.1-0.6,0.3-0.8c0.2-0.2,0.5-0.3,0.8-0.3h8.9c0.3,0,0.6,0.1,0.8,0.3c0.2,0.2,0.3,0.5,0.3,0.8
		v47.8c0,5.9-1.7,10.6-5,14.2c-3.4,3.6-7.8,5.4-13.3,5.4C321.7,134.1,317.3,132.3,313.9,128.7z"/>
	<path class="st4" d="M391.2,65.8c0.2,0.2,0.3,0.5,0.3,0.8V74c0,0.3-0.1,0.6-0.3,0.8c-0.2,0.2-0.5,0.3-0.8,0.3h-12.3
		c-0.3,0-0.5,0.2-0.5,0.5V132c0,0.3-0.1,0.6-0.3,0.8c-0.2,0.2-0.5,0.3-0.8,0.3h-8.9c-0.3,0-0.6-0.1-0.8-0.3
		c-0.2-0.2-0.3-0.5-0.3-0.8V75.7c0-0.3-0.2-0.5-0.5-0.5h-11.6c-0.3,0-0.6-0.1-0.8-0.3c-0.2-0.2-0.3-0.5-0.3-0.8v-7.4
		c0-0.3,0.1-0.6,0.3-0.8c0.2-0.2,0.5-0.3,0.8-0.3h36.1C390.7,65.5,391,65.6,391.2,65.8z"/>
	<path class="st4" d="M401,129c-3.4-3.4-5.1-7.8-5.1-13.4V83.1c0-5.5,1.7-10,5.1-13.4s7.9-5,13.4-5s10,1.7,13.5,5
		c3.4,3.4,5.1,7.8,5.1,13.4v32.5c0,5.6-1.7,10-5.1,13.4c-3.4,3.4-7.9,5-13.5,5S404.4,132.4,401,129z M419.7,122.1c1.4-1.5,2-3.5,2-6
		V82.6c0-2.5-0.7-4.4-2-6c-1.4-1.5-3.1-2.3-5.3-2.3c-2.2,0-4,0.8-5.3,2.3s-2,3.5-2,6v33.5c0,2.5,0.7,4.4,2,6
		c1.3,1.5,3.1,2.3,5.3,2.3S418.4,123.6,419.7,122.1z"/>
</g>
<g>
	<path class="st7" d="M85.6,100.1c2.1,1.2,3.7,3.1,4.8,5.6c1.4,3,2,6.5,2,10.3c0,3.4-0.5,6.4-1.5,9c-1.3,3.5-3.3,6.2-6.1,8.2
		c-2.7,2-6,3-9.8,3c-3.7,0-7-1-9.7-2.9c-2.7-1.9-4.8-4.6-6.1-8.1c-1-2.7-1.5-5.7-1.5-9.1c0-3.8,0.6-7.1,1.7-9.8c1-2.6,2.7-4.6,5.1-6
		c0.3-0.2,0.3-0.4,0-0.6c-2.1-1.4-3.8-3.2-4.9-5.6c-1.3-2.8-1.9-5.9-1.9-9.3c0-3.7,0.6-6.9,1.9-9.4c1.3-2.8,3.3-5,6-6.6
		c2.7-1.5,5.8-2.3,9.3-2.3s6.6,0.8,9.2,2.3c2.7,1.5,4.7,3.7,6.1,6.5c1.4,2.7,2.1,5.9,2.1,9.5c0,3.4-0.6,6.4-1.9,9.1
		c-1.2,2.4-2.8,4.3-4.9,5.6C85.2,99.7,85.2,99.9,85.6,100.1z M69.5,81.2c-0.5,1.2-0.7,2.6-0.7,4.5s0.3,3.8,1,5.5
		c0.5,1.4,1.1,2.4,2,3.2c0.9,0.8,2,1.2,3.2,1.2c1.4,0,2.5-0.4,3.4-1.2c0.9-0.8,1.6-2,2.1-3.4c0.5-1.5,0.8-3.3,0.8-5.2
		c0-2.2-0.3-4-1-5.3c-0.5-1.4-1.1-2.4-2-3.1s-2-1.1-3.3-1.1c-1.2,0-2.2,0.3-3,1c-0.9,0.7-1.5,1.6-2,2.8L69.5,81.2z M81.3,115.4
		c0-2.5-0.3-4.5-0.9-6.3c-0.4-1.5-1-2.8-2-3.6c-0.9-0.9-2.1-1.3-3.4-1.3s-2.5,0.5-3.4,1.4s-1.6,2.2-2,3.9c-0.5,1.7-0.8,3.6-0.8,5.8
		c0,2,0.2,3.8,0.6,5.5c0.3,1.8,1,3.2,2,4.2s2.2,1.5,3.6,1.5c1.5,0,2.7-0.5,3.8-1.5c1-1,1.7-2.5,2-4.4
		C81.1,118.8,81.3,117.1,81.3,115.4z"/>
	<path class="st7" d="M134.9,114.4c0,1.5-0.1,3.6-0.2,6.3c-0.3,4.9-2,8.7-5.1,11.4c-3.1,2.7-7.1,4-12.1,4c-4.8,0-8.6-1.2-11.6-3.7
		s-4.7-6.1-5.3-11c-0.4-1.7-0.6-3.8-0.6-6.1l-0.1-31.5c0-5.2,1.6-9.4,4.8-12.4c3.2-3.1,7.4-4.6,12.6-4.6c4.9,0,8.9,1.5,12,4.6
		c3.1,3.1,4.6,7.2,4.6,12.4v2.4c0,0.3-0.1,0.6-0.3,0.8c-0.2,0.2-0.5,0.3-0.8,0.3h-8.9c-0.3,0-0.6-0.1-0.8-0.3
		c-0.2-0.2-0.3-0.5-0.3-0.8v-1.8c0-2.2-0.5-4-1.6-5.5s-2.3-2.2-3.8-2.2c-1.8,0-3.3,0.7-4.4,2.1s-1.7,3.3-1.7,5.5v10
		c0,0.2,0.1,0.3,0.2,0.4s0.3,0,0.4-0.1c1.9-1.7,4.2-2.6,7-2.6c4.5,0,8.1,1.4,10.8,4.3c2.8,2.8,4.4,6.6,4.8,11.3
		C134.8,109.8,134.9,112.1,134.9,114.4z M123.6,113.7c0-1.7-0.2-4-0.5-6.9c-0.8-3.7-2.7-5.6-5.7-5.6c-1.5,0-2.8,0.5-3.8,1.5
		s-1.7,2.5-2,4.4c-0.3,2.3-0.4,4.5-0.4,6.6c0,1.9,0.1,4,0.3,6.5c0.3,2.1,1,3.6,2,4.7s2.3,1.6,3.9,1.6s2.9-0.6,3.9-1.7
		c1-1.2,1.7-2.8,2-4.9C123.5,117.5,123.6,115.5,123.6,113.7z"/>
	<path class="st7" d="M146.3,131.2c-3.3-3.5-4.9-8-4.9-13.6V85.3c0-5.6,1.6-10.1,4.9-13.6c3.3-3.5,7.6-5.2,13.1-5.2
		s9.9,1.7,13.2,5.2s5,8,5,13.6v32.3c0,5.6-1.7,10.2-5,13.6c-3.3,3.5-7.7,5.2-13.2,5.2C153.9,136.4,149.5,134.7,146.3,131.2z
		 M164.4,124.4c1.3-1.5,1.9-3.5,1.9-6.1V84.6c0-2.5-0.6-4.5-1.9-6.1c-1.3-1.5-3-2.3-5.1-2.3s-3.7,0.8-4.9,2.3s-1.8,3.5-1.8,6.1v33.7
		c0,2.5,0.6,4.5,1.8,6.1c1.2,1.5,2.9,2.3,4.9,2.3C161.5,126.6,163.1,125.9,164.4,124.4z"/>
	<path class="st7" d="M189.8,131.2c-3.3-3.5-4.9-8-4.9-13.6V85.3c0-5.6,1.6-10.1,4.9-13.6c3.3-3.5,7.6-5.2,13.1-5.2
		s9.9,1.7,13.2,5.2s5,8,5,13.6v32.3c0,5.6-1.7,10.2-5,13.6c-3.3,3.5-7.7,5.2-13.2,5.2C197.5,136.4,193.1,134.7,189.8,131.2z
		 M208,124.4c1.3-1.5,1.9-3.5,1.9-6.1V84.6c0-2.5-0.6-4.5-1.9-6.1c-1.3-1.5-3-2.3-5.1-2.3s-3.7,0.8-4.9,2.3s-1.8,3.5-1.8,6.1v33.7
		c0,2.5,0.6,4.5,1.8,6.1c1.2,1.5,2.9,2.3,4.9,2.3C205,126.6,206.7,125.9,208,124.4z"/>
	<path class="st7" d="M233.5,134.1l16-56.2c0.1-0.4,0-0.6-0.4-0.6H236c-0.3,0-0.5,0.2-0.5,0.5v3.5c0,0.3-0.1,0.6-0.3,0.8
		c-0.2,0.2-0.5,0.3-0.8,0.3h-6.9c-0.3,0-0.6-0.1-0.8-0.3c-0.2-0.2-0.3-0.5-0.3-0.8l0.1-12.5c0-0.3,0.1-0.6,0.3-0.8
		c0.2-0.2,0.5-0.3,0.8-0.3h32.8c0.3,0,0.6,0.1,0.8,0.3c0.2,0.2,0.3,0.5,0.3,0.8v7.8c0,0.3-0.1,0.7-0.2,1.4l-16.2,56.4
		c-0.2,0.6-0.6,1-1.4,1h-9.4C233.6,135.4,233.3,134.9,233.5,134.1z"/>
	<path class="st7" d="M294.2,134.3l-1.8-10.2c0-0.3-0.2-0.5-0.6-0.5h-14.1c-0.4,0-0.6,0.2-0.6,0.5l-1.8,10.2
		c-0.1,0.7-0.5,1.1-1.3,1.1h-8.8c-0.9,0-1.3-0.4-1.1-1.3l14.3-65.4c0.1-0.7,0.5-1.1,1.3-1.1H290c0.7,0,1.1,0.4,1.3,1.1l14.3,65.4
		v0.4c0,0.6-0.4,0.9-1.1,0.9h-9C294.7,135.4,294.2,135,294.2,134.3z M279.3,114.8H290c0.4,0,0.5-0.2,0.5-0.5l-5.6-30.6
		c-0.1-0.2-0.2-0.3-0.3-0.3c-0.1,0-0.2,0.1-0.3,0.3l-5.5,30.6C278.7,114.7,278.9,114.8,279.3,114.8z"/>
	<path class="st7" d="M316.7,130.8c-3.3-3.6-5-8.3-5-14.2V68.8c0-0.3,0.1-0.6,0.3-0.8c0.2-0.2,0.5-0.3,0.8-0.3h8.9
		c0.3,0,0.6,0.1,0.8,0.3c0.2,0.2,0.3,0.5,0.3,0.8v49c0,2.6,0.6,4.7,1.9,6.3c1.3,1.6,3,2.4,5.1,2.4s3.8-0.8,5.1-2.4
		c1.3-1.6,1.9-3.7,1.9-6.3v-49c0-0.3,0.1-0.6,0.3-0.8c0.2-0.2,0.5-0.3,0.8-0.3h8.9c0.3,0,0.6,0.1,0.8,0.3c0.2,0.2,0.3,0.5,0.3,0.8
		v47.8c0,5.9-1.7,10.6-5,14.2c-3.4,3.6-7.8,5.4-13.3,5.4C324.4,136.1,320,134.3,316.7,130.8z"/>
	<path class="st7" d="M393.9,67.9c0.2,0.2,0.3,0.5,0.3,0.8v7.4c0,0.3-0.1,0.6-0.3,0.8c-0.2,0.2-0.5,0.3-0.8,0.3h-12.3
		c-0.3,0-0.5,0.2-0.5,0.5v56.4c0,0.3-0.1,0.6-0.3,0.8c-0.2,0.2-0.5,0.3-0.8,0.3h-8.9c-0.3,0-0.6-0.1-0.8-0.3
		c-0.2-0.2-0.3-0.5-0.3-0.8V77.8c0-0.3-0.2-0.5-0.5-0.5H357c-0.3,0-0.6-0.1-0.8-0.3c-0.2-0.2-0.3-0.5-0.3-0.8v-7.4
		c0-0.3,0.1-0.6,0.3-0.8c0.2-0.2,0.5-0.3,0.8-0.3h36.1C393.4,67.6,393.7,67.7,393.9,67.9z"/>
	<path class="st7" d="M403.7,131.1c-3.4-3.4-5.1-7.8-5.1-13.4V85.2c0-5.5,1.7-10,5.1-13.4s7.9-5,13.4-5s10,1.7,13.5,5
		c3.4,3.4,5.1,7.8,5.1,13.4v32.5c0,5.6-1.7,10-5.1,13.4s-7.9,5-13.5,5S407.1,134.5,403.7,131.1z M422.5,124.2c1.4-1.5,2-3.5,2-6
		V84.7c0-2.5-0.7-4.4-2-6c-1.4-1.5-3.1-2.3-5.3-2.3c-2.2,0-4,0.8-5.3,2.3s-2,3.5-2,6v33.5c0,2.5,0.7,4.4,2,6
		c1.3,1.5,3.1,2.3,5.3,2.3C419.3,126.5,421.1,125.7,422.5,124.2z"/>
</g>
<g>
	<path d="M84,98.9c2.1,1.2,3.7,3.1,4.8,5.6c1.4,3,2,6.5,2,10.3c0,3.4-0.5,6.4-1.5,9c-1.3,3.5-3.3,6.2-6.1,8.2c-2.7,2-6,3-9.8,3
		c-3.7,0-7-1-9.7-2.9s-4.8-4.6-6.1-8.1c-1-2.7-1.5-5.7-1.5-9.1c0-3.8,0.6-7.1,1.7-9.8c1-2.6,2.7-4.6,5.1-6c0.3-0.2,0.3-0.4,0-0.6
		c-2.1-1.4-3.8-3.2-4.9-5.6c-1.3-2.8-1.9-5.9-1.9-9.3c0-3.7,0.6-6.9,1.9-9.4c1.3-2.8,3.3-5,6-6.6c2.7-1.5,5.8-2.3,9.3-2.3
		s6.6,0.8,9.2,2.3c2.7,1.5,4.7,3.7,6.1,6.5c1.4,2.7,2.1,5.9,2.1,9.5c0,3.4-0.6,6.4-1.9,9.1c-1.2,2.4-2.8,4.3-4.9,5.6
		C83.6,98.5,83.6,98.7,84,98.9z M68,80c-0.5,1.2-0.7,2.6-0.7,4.5s0.3,3.8,1,5.5c0.5,1.4,1.1,2.4,2,3.2c0.9,0.8,2,1.2,3.2,1.2
		c1.4,0,2.5-0.4,3.4-1.2c0.9-0.8,1.6-2,2.1-3.4c0.5-1.5,0.8-3.3,0.8-5.2c0-2.2-0.3-4-1-5.3c-0.5-1.4-1.1-2.4-2-3.1s-2-1.1-3.3-1.1
		c-1.2,0-2.2,0.3-3,1c-0.9,0.7-1.5,1.6-2,2.8L68,80z M79.8,114.2c0-2.5-0.3-4.5-0.9-6.3c-0.4-1.5-1-2.8-2-3.6
		c-0.9-0.9-2.1-1.3-3.4-1.3s-2.5,0.5-3.4,1.4s-1.6,2.2-2,3.9c-0.5,1.7-0.8,3.6-0.8,5.8c0,2,0.2,3.8,0.6,5.5c0.3,1.8,1,3.2,2,4.2
		s2.2,1.5,3.6,1.5c1.5,0,2.7-0.5,3.8-1.5c1-1,1.7-2.5,2-4.4C79.6,117.6,79.8,115.9,79.8,114.2z"/>
	<path d="M133.4,113.3c0,1.5-0.1,3.6-0.2,6.3c-0.3,4.9-2,8.7-5.1,11.4c-3.1,2.7-7.1,4-12.1,4c-4.8,0-8.6-1.2-11.6-3.7
		s-4.7-6.1-5.3-11c-0.4-1.7-0.6-3.8-0.6-6.1l-0.1-31.5c0-5.2,1.6-9.4,4.8-12.4c3.2-3.1,7.4-4.6,12.6-4.6c4.9,0,8.9,1.5,12,4.6
		s4.6,7.2,4.6,12.4v2.4c0,0.3-0.1,0.6-0.3,0.8c-0.2,0.2-0.5,0.3-0.8,0.3h-8.9c-0.3,0-0.6-0.1-0.8-0.3c-0.2-0.2-0.3-0.5-0.3-0.8v-1.8
		c0-2.2-0.5-4-1.6-5.5s-2.3-2.2-3.8-2.2c-1.8,0-3.3,0.7-4.4,2.1s-1.7,3.3-1.7,5.5v10c0,0.2,0.1,0.3,0.2,0.4s0.3,0,0.4-0.1
		c1.9-1.7,4.2-2.6,7-2.6c4.5,0,8.1,1.4,10.8,4.3c2.8,2.8,4.4,6.6,4.8,11.3C133.2,108.6,133.4,110.9,133.4,113.3z M122.1,112.5
		c0-1.7-0.2-4-0.5-6.9c-0.8-3.7-2.7-5.6-5.7-5.6c-1.5,0-2.8,0.5-3.8,1.5s-1.7,2.5-2,4.4c-0.3,2.3-0.4,4.5-0.4,6.6
		c0,1.9,0.1,4,0.3,6.5c0.3,2.1,1,3.6,2,4.7s2.3,1.6,3.9,1.6s2.9-0.6,3.9-1.7c1-1.2,1.7-2.8,2-4.9C122,116.4,122.1,114.3,122.1,112.5
		z"/>
	<path d="M144.7,130.1c-3.3-3.5-4.9-8-4.9-13.6V84.1c0-5.6,1.6-10.1,4.9-13.6c3.3-3.5,7.6-5.2,13.1-5.2s9.9,1.7,13.2,5.2s5,8,5,13.6
		v32.3c0,5.6-1.7,10.2-5,13.6c-3.3,3.5-7.7,5.2-13.2,5.2C152.4,135.2,148,133.5,144.7,130.1z M162.9,123.2c1.3-1.5,1.9-3.5,1.9-6.1
		V83.4c0-2.5-0.6-4.5-1.9-6.1c-1.3-1.5-3-2.3-5.1-2.3s-3.7,0.8-4.9,2.3s-1.8,3.5-1.8,6.1v33.7c0,2.5,0.6,4.5,1.8,6.1
		c1.2,1.5,2.9,2.3,4.9,2.3C159.9,125.5,161.6,124.7,162.9,123.2z"/>
	<path d="M188.3,130.1c-3.3-3.5-4.9-8-4.9-13.6V84.1c0-5.6,1.6-10.1,4.9-13.6c3.3-3.5,7.6-5.2,13.1-5.2s9.9,1.7,13.2,5.2s5,8,5,13.6
		v32.3c0,5.6-1.7,10.2-5,13.6c-3.3,3.5-7.7,5.2-13.2,5.2C195.9,135.2,191.6,133.5,188.3,130.1z M206.4,123.2
		c1.3-1.5,1.9-3.5,1.9-6.1V83.4c0-2.5-0.6-4.5-1.9-6.1c-1.3-1.5-3-2.3-5.1-2.3s-3.7,0.8-4.9,2.3s-1.8,3.5-1.8,6.1v33.7
		c0,2.5,0.6,4.5,1.8,6.1c1.2,1.5,2.9,2.3,4.9,2.3C203.5,125.5,205.2,124.7,206.4,123.2z"/>
	<path d="M231.9,132.9l16-56.2c0.1-0.4,0-0.6-0.4-0.6h-13.1c-0.3,0-0.5,0.2-0.5,0.5V80c0,0.3-0.1,0.6-0.3,0.8
		c-0.2,0.2-0.5,0.3-0.8,0.3h-6.9c-0.3,0-0.6-0.1-0.8-0.3c-0.2-0.2-0.3-0.5-0.3-0.8l0.1-12.5c0-0.3,0.1-0.6,0.3-0.8
		c0.2-0.2,0.5-0.3,0.8-0.3h32.8c0.3,0,0.6,0.1,0.8,0.3c0.2,0.2,0.3,0.5,0.3,0.8v7.8c0,0.3-0.1,0.7-0.2,1.4l-16.2,56.4
		c-0.2,0.6-0.6,1-1.4,1h-9.4C232.1,134.2,231.8,133.7,231.9,132.9z"/>
	<path d="M292.6,133.1l-1.8-10.2c0-0.3-0.2-0.5-0.6-0.5h-14.1c-0.4,0-0.6,0.2-0.6,0.5l-1.8,10.2c-0.1,0.7-0.5,1.1-1.3,1.1h-8.8
		c-0.9,0-1.3-0.4-1.1-1.3l14.3-65.4c0.1-0.7,0.5-1.1,1.3-1.1h10.3c0.7,0,1.1,0.4,1.3,1.1l14.3,65.4v0.4c0,0.6-0.4,0.9-1.1,0.9h-9
		C293.1,134.2,292.7,133.8,292.6,133.1z M277.7,113.6h10.7c0.4,0,0.5-0.2,0.5-0.5l-5.6-30.6c-0.1-0.2-0.2-0.3-0.3-0.3
		c-0.1,0-0.2,0.1-0.3,0.3l-5.5,30.6C277.2,113.5,277.4,113.6,277.7,113.6z"/>
	<path d="M315.2,129.6c-3.3-3.6-5-8.3-5-14.2V67.6c0-0.3,0.1-0.6,0.3-0.8c0.2-0.2,0.5-0.3,0.8-0.3h8.9c0.3,0,0.6,0.1,0.8,0.3
		c0.2,0.2,0.3,0.5,0.3,0.8v49c0,2.6,0.6,4.7,1.9,6.3c1.3,1.6,3,2.4,5.1,2.4s3.8-0.8,5.1-2.4c1.3-1.6,1.9-3.7,1.9-6.3v-49
		c0-0.3,0.1-0.6,0.3-0.8c0.2-0.2,0.5-0.3,0.8-0.3h8.9c0.3,0,0.6,0.1,0.8,0.3c0.2,0.2,0.3,0.5,0.3,0.8v47.8c0,5.9-1.7,10.6-5,14.2
		c-3.4,3.6-7.8,5.4-13.3,5.4C322.9,134.9,318.5,133.1,315.2,129.6z"/>
	<path d="M392.4,66.7c0.2,0.2,0.3,0.5,0.3,0.8v7.4c0,0.3-0.1,0.6-0.3,0.8c-0.2,0.2-0.5,0.3-0.8,0.3h-12.3c-0.3,0-0.5,0.2-0.5,0.5
		V133c0,0.3-0.1,0.6-0.3,0.8c-0.2,0.2-0.5,0.3-0.8,0.3h-8.9c-0.3,0-0.6-0.1-0.8-0.3c-0.2-0.2-0.3-0.5-0.3-0.8V76.6
		c0-0.3-0.2-0.5-0.5-0.5h-11.6c-0.3,0-0.6-0.1-0.8-0.3c-0.2-0.2-0.3-0.5-0.3-0.8v-7.4c0-0.3,0.1-0.6,0.3-0.8
		c0.2-0.2,0.5-0.3,0.8-0.3h36.1C391.9,66.4,392.2,66.5,392.4,66.7z"/>
	<path d="M402.2,129.9c-3.4-3.4-5.1-7.8-5.1-13.4V84c0-5.5,1.7-10,5.1-13.4s7.9-5,13.4-5s10,1.7,13.5,5c3.4,3.4,5.1,7.8,5.1,13.4
		v32.5c0,5.6-1.7,10-5.1,13.4s-7.9,5-13.5,5S405.6,133.3,402.2,129.9z M420.9,123c1.4-1.5,2-3.5,2-6V83.5c0-2.5-0.7-4.4-2-6
		c-1.4-1.5-3.1-2.3-5.3-2.3c-2.2,0-4,0.8-5.3,2.3s-2,3.5-2,6V117c0,2.5,0.7,4.4,2,6c1.3,1.5,3.1,2.3,5.3,2.3S419.6,124.5,420.9,123z
		"/>
</g>
<g>
	<path class="st0" d="M73.5,65.2c3.5,0,6.6,0.8,9.2,2.3c2.7,1.5,4.7,3.7,6.1,6.5c1.4,2.7,2.1,5.9,2.1,9.5c0,3.4-0.6,6.4-1.9,9.1
		c-1.2,2.4-2.8,4.3-4.9,5.6c-0.4,0.3-0.4,0.5,0,0.7c2.1,1.2,3.7,3.1,4.8,5.6c1.4,3,2,6.5,2,10.3c0,3.4-0.5,6.4-1.5,9
		c-1.3,3.5-3.3,6.2-6.1,8.2c-2.7,2-6,3-9.8,3c-3.7,0-7-1-9.7-2.9s-4.8-4.6-6.1-8.1c-1-2.7-1.5-5.7-1.5-9.1c0-3.8,0.6-7.1,1.7-9.8
		c1-2.6,2.7-4.6,5.1-6c0.3-0.2,0.3-0.4,0-0.6c-2.1-1.4-3.8-3.2-4.9-5.6c-1.3-2.8-1.9-5.9-1.9-9.3c0-3.7,0.6-6.9,1.9-9.4
		c1.3-2.8,3.3-5,6-6.6C66.8,66,69.9,65.2,73.5,65.2 M73.5,94.4c1.4,0,2.5-0.4,3.4-1.2c0.9-0.8,1.6-2,2.1-3.4
		c0.5-1.5,0.8-3.3,0.8-5.2c0-2.2-0.3-4-1-5.3c-0.5-1.4-1.1-2.4-2-3.1s-2-1.1-3.3-1.1c-1.2,0-2.2,0.3-3,1c-0.9,0.7-1.5,1.6-2,2.8
		L68,80c-0.5,1.2-0.7,2.6-0.7,4.5s0.3,3.8,1,5.5c0.5,1.4,1.1,2.4,2,3.2C71.2,94,72.2,94.4,73.5,94.4 M73.5,125.3
		c1.5,0,2.7-0.5,3.8-1.5c1-1,1.7-2.5,2-4.4c0.3-1.7,0.5-3.5,0.5-5.1c0-2.5-0.3-4.5-0.9-6.3c-0.4-1.5-1-2.8-2-3.6
		c-0.9-0.9-2.1-1.3-3.4-1.3c-1.4,0-2.5,0.5-3.4,1.4s-1.6,2.2-2,3.9c-0.5,1.7-0.8,3.6-0.8,5.8c0,2,0.2,3.8,0.6,5.5
		c0.3,1.8,1,3.2,2,4.2C70.8,124.8,72,125.3,73.5,125.3 M73.5,64.7c-3.6,0-6.9,0.8-9.6,2.4c-2.8,1.6-4.9,3.9-6.2,6.8
		c-1.3,2.6-2,5.8-2,9.6c0,3.5,0.7,6.7,2,9.5c1.2,2.4,2.8,4.3,4.8,5.7c-2.4,1.5-4.1,3.5-5.1,6.1c-1.2,2.7-1.8,6.1-1.8,10
		c0,3.4,0.5,6.5,1.5,9.3c1.3,3.6,3.4,6.4,6.3,8.4c2.8,2,6.2,3,10.1,3s7.3-1,10.2-3.1c2.8-2,4.9-4.9,6.3-8.4c1-2.6,1.6-5.7,1.6-9.2
		c0-3.9-0.7-7.4-2.1-10.5c-1.1-2.5-2.7-4.4-4.8-5.7c2.1-1.4,3.8-3.3,4.9-5.7c1.3-2.8,2-5.9,2-9.3c0-3.7-0.7-7-2.2-9.8
		c-1.4-2.9-3.5-5.2-6.3-6.8C80.2,65.5,77,64.7,73.5,64.7L73.5,64.7z M73.5,93.8c-1.1,0-2-0.3-2.8-1s-1.4-1.7-1.9-2.9
		c-0.6-1.7-0.9-3.5-0.9-5.3c0-1.7,0.2-3.2,0.6-4.2L69,79c0.4-1,1-1.9,1.8-2.5s1.7-0.9,2.7-0.9c1.2,0,2.1,0.3,2.9,1s1.4,1.6,1.9,2.9
		l0,0l0,0c0.6,1.3,0.9,3,0.9,5.1c0,1.9-0.3,3.6-0.7,5c-0.4,1.4-1.1,2.5-1.9,3.2C75.7,93.5,74.7,93.8,73.5,93.8L73.5,93.8z
		 M73.5,124.7c-1.3,0-2.3-0.4-3.2-1.3c-0.9-0.9-1.5-2.2-1.8-3.9c-0.4-1.7-0.6-3.5-0.6-5.4c0-2.1,0.3-4,0.7-5.6
		c0.4-1.6,1-2.8,1.8-3.6c0.8-0.8,1.8-1.2,3-1.2s2.2,0.4,3.1,1.2c0.9,0.8,1.5,1.9,1.8,3.4c0.6,1.7,0.9,3.8,0.9,6.2
		c0,1.6-0.2,3.3-0.5,5c-0.3,1.8-0.9,3.1-1.9,4.1C75.9,124.2,74.8,124.7,73.5,124.7L73.5,124.7z"/>
	<path class="st0" d="M115.8,65.6c4.9,0,8.9,1.5,12,4.6c3.1,3.1,4.6,7.2,4.6,12.4V85c0,0.3-0.1,0.6-0.3,0.8
		c-0.2,0.2-0.5,0.3-0.8,0.3h-8.9c-0.3,0-0.6-0.1-0.8-0.3c-0.2-0.2-0.3-0.5-0.3-0.8v-1.8c0-2.2-0.5-4-1.6-5.5s-2.3-2.2-3.8-2.2
		c-1.8,0-3.3,0.7-4.4,2.1s-1.7,3.3-1.7,5.5v10c0,0.2,0.1,0.3,0.2,0.4h0.1c0.1,0,0.2,0,0.3-0.1c1.9-1.7,4.2-2.6,7-2.6
		c4.5,0,8.1,1.4,10.8,4.3c2.8,2.8,4.4,6.6,4.8,11.3c0.3,2.1,0.5,4.4,0.5,6.8c0,1.5-0.1,3.6-0.2,6.3c-0.3,4.9-2,8.7-5.1,11.4
		c-3.1,2.7-7.1,4-12.1,4c-4.8,0-8.6-1.2-11.6-3.7s-4.7-6.1-5.3-11c-0.4-1.7-0.6-3.8-0.6-6.1l-0.1-31.5c0-5.2,1.6-9.4,4.8-12.4
		C106.3,67.2,110.5,65.6,115.8,65.6 M115.9,125.4c1.6,0,2.9-0.6,3.9-1.7c1-1.2,1.7-2.8,2-4.9c0.2-2.3,0.3-4.4,0.3-6.2
		c0-1.7-0.2-4-0.5-6.9c-0.8-3.7-2.7-5.6-5.7-5.6c-1.5,0-2.8,0.5-3.8,1.5s-1.7,2.5-2,4.4c-0.3,2.3-0.4,4.5-0.4,6.6
		c0,1.9,0.1,4,0.3,6.5c0.3,2.1,1,3.6,2,4.7C113,124.8,114.3,125.4,115.9,125.4 M115.8,65.1c-5.4,0-9.7,1.6-13,4.8
		c-3.3,3.2-5,7.5-5,12.8l0.1,31.5c0,2.3,0.2,4.4,0.6,6.2c0.6,5,2.5,8.8,5.5,11.3c3.1,2.6,7.1,3.9,12,3.9c5.2,0,9.4-1.4,12.5-4.2
		c3.2-2.8,4.9-6.7,5.3-11.8c0.1-2.8,0.2-4.8,0.2-6.3c0-2.4-0.2-4.7-0.5-6.9c-0.5-4.8-2.1-8.7-5-11.6c-2.9-2.9-6.7-4.4-11.2-4.4
		c-2.7,0-5.1,0.8-7,2.4v-9.5c0-2.1,0.5-3.9,1.6-5.2c1-1.3,2.3-1.9,4-1.9c1.3,0,2.4,0.6,3.4,1.9s1.5,3.1,1.5,5.1V85
		c0,0.5,0.2,0.9,0.5,1.2c0.3,0.3,0.8,0.5,1.2,0.5h8.9c0.5,0,0.9-0.2,1.2-0.5s0.5-0.8,0.5-1.2v-2.4c0-5.3-1.6-9.6-4.8-12.8
		C125,66.7,120.8,65.1,115.8,65.1L115.8,65.1z M115.9,124.8c-1.5,0-2.6-0.5-3.5-1.5s-1.5-2.5-1.8-4.4c-0.2-2.4-0.3-4.5-0.3-6.4
		c0-2.1,0.1-4.3,0.4-6.5c0.3-1.8,0.9-3.2,1.8-4.1s2-1.3,3.4-1.3c2.7,0,4.4,1.7,5.2,5.1c0.3,2.9,0.5,5.1,0.5,6.8
		c0,1.8-0.1,3.8-0.3,6.1c-0.3,2-0.9,3.5-1.8,4.6C118.5,124.3,117.3,124.8,115.9,124.8L115.9,124.8z"/>
	<path class="st0" d="M157.8,65.3c5.5,0,9.9,1.7,13.2,5.2s5,8,5,13.6v32.3c0,5.6-1.7,10.2-5,13.6c-3.3,3.5-7.7,5.2-13.2,5.2
		c-5.4,0-9.8-1.7-13.1-5.2s-4.9-8-4.9-13.6V84.1c0-5.6,1.6-10.1,4.9-13.6C148,67.1,152.4,65.3,157.8,65.3 M157.8,125.5
		c2.1,0,3.8-0.8,5.1-2.3s1.9-3.5,1.9-6.1V83.4c0-2.5-0.6-4.5-1.9-6.1c-1.3-1.5-3-2.3-5.1-2.3s-3.7,0.8-4.9,2.3s-1.8,3.5-1.8,6.1
		v33.7c0,2.5,0.6,4.5,1.8,6.1C154.1,124.7,155.7,125.5,157.8,125.5 M157.8,64.8c-5.6,0-10.1,1.8-13.5,5.4c-3.4,3.5-5.1,8.3-5.1,14
		v32.3c0,5.7,1.7,10.4,5.1,14c3.4,3.6,7.9,5.4,13.5,5.4s10.2-1.8,13.6-5.4c3.4-3.5,5.1-8.3,5.1-14V84.1c0-5.7-1.7-10.4-5.1-14
		C168,66.6,163.4,64.8,157.8,64.8L157.8,64.8z M157.8,124.9c-1.9,0-3.4-0.7-4.5-2.1s-1.7-3.3-1.7-5.7V83.4c0-2.4,0.6-4.3,1.7-5.7
		c1.1-1.4,2.6-2.1,4.5-2.1c2,0,3.5,0.7,4.6,2.1c1.2,1.4,1.8,3.3,1.8,5.7v33.7c0,2.4-0.6,4.3-1.8,5.7
		C161.3,124.2,159.8,124.9,157.8,124.9L157.8,124.9z"/>
	<path class="st0" d="M201.4,65.3c5.5,0,9.9,1.7,13.2,5.2s5,8,5,13.6v32.3c0,5.6-1.7,10.2-5,13.6c-3.3,3.5-7.7,5.2-13.2,5.2
		c-5.4,0-9.8-1.7-13.1-5.2s-4.9-8-4.9-13.6V84.1c0-5.6,1.6-10.1,4.9-13.6C191.6,67.1,195.9,65.3,201.4,65.3 M201.4,125.5
		c2.1,0,3.8-0.8,5.1-2.3s1.9-3.5,1.9-6.1V83.4c0-2.5-0.6-4.5-1.9-6.1c-1.3-1.5-3-2.3-5.1-2.3s-3.7,0.8-4.9,2.3s-1.8,3.5-1.8,6.1
		v33.7c0,2.5,0.6,4.5,1.8,6.1C197.6,124.7,199.3,125.5,201.4,125.5 M201.4,64.8c-5.6,0-10.1,1.8-13.5,5.4c-3.4,3.5-5.1,8.3-5.1,14
		v32.3c0,5.7,1.7,10.4,5.1,14c3.4,3.6,7.9,5.4,13.5,5.4s10.2-1.8,13.6-5.4c3.4-3.5,5.1-8.3,5.1-14V84.1c0-5.7-1.7-10.4-5.1-14
		C211.6,66.6,207,64.8,201.4,64.8L201.4,64.8z M201.4,124.9c-1.9,0-3.4-0.7-4.5-2.1s-1.7-3.3-1.7-5.7V83.4c0-2.4,0.6-4.3,1.7-5.7
		c1.1-1.4,2.6-2.1,4.5-2.1c2,0,3.5,0.7,4.6,2.1c1.2,1.4,1.8,3.3,1.8,5.7v33.7c0,2.4-0.6,4.3-1.8,5.7S203.3,124.9,201.4,124.9
		L201.4,124.9z"/>
	<path class="st0" d="M258.9,66.4c0.3,0,0.6,0.1,0.8,0.3c0.2,0.2,0.3,0.5,0.3,0.8v7.8c0,0.3-0.1,0.7-0.2,1.4l-16.2,56.4
		c-0.2,0.6-0.6,1-1.4,1h-9.4c-0.8,0-1.2-0.4-1-1.3l16-56.2c0.1-0.4,0-0.6-0.4-0.6h-13.1c-0.3,0-0.5,0.2-0.5,0.5V80
		c0,0.3-0.1,0.6-0.3,0.8c-0.2,0.2-0.5,0.3-0.8,0.3h-6.9c-0.3,0-0.6-0.1-0.8-0.3c-0.2-0.2-0.3-0.5-0.3-0.8l0.1-12.5
		c0-0.3,0.1-0.6,0.3-0.8c0.2-0.2,0.5-0.3,0.8-0.3L258.9,66.4 M258.9,65.8H226c-0.5,0-0.9,0.2-1.2,0.5s-0.5,0.8-0.5,1.2L224.2,80
		c0,0.5,0.2,0.9,0.5,1.2c0.3,0.3,0.7,0.5,1.2,0.5h6.9c0.5,0,0.9-0.2,1.2-0.5s0.5-0.8,0.5-1.2v-3.4h12.8l-15.9,56.1
		c-0.1,0.6-0.1,1.1,0.2,1.5c0.3,0.3,0.7,0.5,1.3,0.5h9.4c1,0,1.6-0.5,1.9-1.4l16.2-56.4c0.1-0.7,0.2-1.2,0.2-1.5v-7.8
		c0-0.5-0.2-0.9-0.5-1.2C259.8,66,259.3,65.8,258.9,65.8L258.9,65.8z"/>
	<path class="st0" d="M288.4,66.4c0.7,0,1.1,0.4,1.3,1.1l14.3,65.4v0.4c0,0.6-0.4,0.9-1.1,0.9h-9c-0.8,0-1.2-0.4-1.3-1.1l-1.8-10.2
		c0-0.3-0.2-0.5-0.6-0.5h-14.1c-0.4,0-0.6,0.2-0.6,0.5l-1.8,10.2c-0.1,0.7-0.5,1.1-1.3,1.1h-8.8c-0.9,0-1.3-0.4-1.1-1.3l14.3-65.4
		c0.1-0.7,0.5-1.1,1.3-1.1L288.4,66.4 M277.7,113.6h10.7c0.4,0,0.5-0.2,0.5-0.5l-5.6-30.6c-0.1-0.2-0.2-0.3-0.3-0.3
		c-0.1,0-0.2,0.1-0.3,0.3l-5.5,30.6C277.2,113.5,277.4,113.6,277.7,113.6 M288.4,65.8h-10.3c-1,0-1.6,0.6-1.8,1.5L262,132.8
		c-0.1,0.6-0.1,1.1,0.2,1.4c0.3,0.4,0.8,0.5,1.4,0.5h8.8c1.1,0,1.7-0.6,1.8-1.6L276,123l0,0l0,0h14.1l0,0l0,0l1.8,10.1
		c0.1,1,0.8,1.6,1.8,1.6h9c1,0,1.6-0.5,1.6-1.4v-0.4v-0.1v-0.1L290,67.3C290,66.4,289.4,65.8,288.4,65.8L288.4,65.8z M277.8,113.1
		l5.2-28.9l5.3,28.9H277.8L277.8,113.1z"/>
	<path class="st0" d="M345.6,66.4c0.3,0,0.6,0.1,0.8,0.3c0.2,0.2,0.3,0.5,0.3,0.8v47.8c0,5.9-1.7,10.6-5,14.2
		c-3.4,3.6-7.8,5.4-13.3,5.4c-5.6,0-10-1.8-13.3-5.4c-3.3-3.6-5-8.3-5-14.2V67.6c0-0.3,0.1-0.6,0.3-0.8c0.2-0.2,0.5-0.3,0.8-0.3h8.9
		c0.3,0,0.6,0.1,0.8,0.3c0.2,0.2,0.3,0.5,0.3,0.8v49c0,2.6,0.6,4.7,1.9,6.3c1.3,1.6,3,2.4,5.1,2.4s3.8-0.8,5.1-2.4
		c1.3-1.6,1.9-3.7,1.9-6.3v-49c0-0.3,0.1-0.6,0.3-0.8c0.2-0.2,0.5-0.3,0.8-0.3L345.6,66.4 M345.6,65.8h-8.9c-0.5,0-0.9,0.2-1.2,0.5
		c-0.3,0.3-0.5,0.8-0.5,1.2v49c0,2.4-0.6,4.4-1.8,5.9c-1.2,1.5-2.7,2.2-4.7,2.2s-3.5-0.7-4.7-2.2s-1.8-3.5-1.8-5.9v-49
		c0-0.5-0.2-0.9-0.5-1.2c-0.3-0.3-0.8-0.5-1.2-0.5h-8.9c-0.5,0-0.9,0.2-1.2,0.5c-0.3,0.3-0.5,0.8-0.5,1.2v47.8
		c0,6,1.7,10.9,5.1,14.6c3.4,3.7,8,5.6,13.7,5.6c5.6,0,10.2-1.9,13.7-5.6c3.4-3.7,5.2-8.6,5.2-14.6V67.6c0-0.5-0.2-0.9-0.5-1.2
		C346.5,66,346.1,65.8,345.6,65.8L345.6,65.8z"/>
	<path class="st0" d="M391.6,66.4c0.3,0,0.6,0.1,0.8,0.3c0.2,0.2,0.3,0.5,0.3,0.8v7.4c0,0.3-0.1,0.6-0.3,0.8
		c-0.2,0.2-0.5,0.3-0.8,0.3h-12.3c-0.3,0-0.5,0.2-0.5,0.5V133c0,0.3-0.1,0.6-0.3,0.8c-0.2,0.2-0.5,0.3-0.8,0.3h-8.9
		c-0.3,0-0.6-0.1-0.8-0.3c-0.2-0.2-0.3-0.5-0.3-0.8V76.6c0-0.3-0.2-0.5-0.5-0.5h-11.6c-0.3,0-0.6-0.1-0.8-0.3
		c-0.2-0.2-0.3-0.5-0.3-0.8v-7.4c0-0.3,0.1-0.6,0.3-0.8c0.2-0.2,0.5-0.3,0.8-0.3L391.6,66.4 M391.6,65.8h-36.1
		c-0.5,0-0.9,0.2-1.2,0.5c-0.3,0.3-0.5,0.8-0.5,1.2v7.4c0,0.5,0.2,0.9,0.5,1.2c0.3,0.3,0.7,0.5,1.2,0.5H367V133
		c0,0.5,0.2,0.9,0.5,1.2s0.8,0.5,1.2,0.5h8.9c0.5,0,0.9-0.2,1.2-0.5s0.5-0.8,0.5-1.2V76.6h12.2c0.5,0,0.9-0.2,1.2-0.5
		c0.3-0.3,0.5-0.8,0.5-1.2v-7.4c0-0.5-0.2-0.9-0.5-1.2C392.5,66,392.1,65.8,391.6,65.8L391.6,65.8z"/>
	<path class="st0" d="M415.6,65.6c5.6,0,10,1.7,13.5,5c3.4,3.4,5.1,7.8,5.1,13.4v32.5c0,5.6-1.7,10-5.1,13.4s-7.9,5-13.5,5
		s-10-1.7-13.4-5c-3.4-3.4-5.1-7.8-5.1-13.4V84c0-5.5,1.7-10,5.1-13.4C405.6,67.3,410,65.6,415.6,65.6 M415.6,125.3
		c2.2,0,4-0.8,5.3-2.3c1.4-1.5,2-3.5,2-6V83.5c0-2.5-0.7-4.4-2-6c-1.4-1.5-3.1-2.3-5.3-2.3c-2.2,0-4,0.8-5.3,2.3s-2,3.5-2,6V117
		c0,2.5,0.7,4.4,2,6C411.6,124.5,413.4,125.3,415.6,125.3 M415.6,65.1c-5.7,0-10.3,1.7-13.8,5.2s-5.3,8.1-5.3,13.8v32.5
		c0,5.7,1.8,10.3,5.2,13.8c3.5,3.4,8.1,5.2,13.8,5.2c5.7,0,10.3-1.7,13.9-5.2c3.5-3.5,5.3-8.1,5.3-13.8V84c0-5.7-1.8-10.3-5.3-13.8
		C425.9,66.8,421.3,65.1,415.6,65.1L415.6,65.1z M415.6,124.7c-2,0-3.6-0.7-4.8-2.1c-1.2-1.4-1.8-3.3-1.8-5.6V83.5
		c0-2.3,0.6-4.2,1.8-5.6c1.2-1.4,2.8-2.1,4.8-2.1s3.6,0.7,4.9,2.1s1.9,3.3,1.9,5.6V117c0,2.3-0.6,4.2-1.9,5.6
		S417.6,124.7,415.6,124.7L415.6,124.7z"/>
</g>
<g>
	<path class="st8" d="M134.7,41.4c-0.9-0.9-1.3-2-1.3-3.5v-8.7c0-1.5,0.4-2.6,1.3-3.5c0.9-0.9,2-1.3,3.5-1.3s2.6,0.4,3.5,1.3
		s1.3,2,1.3,3.5v0.3c0,0.1,0,0.2-0.1,0.2c-0.1,0.1-0.1,0.1-0.2,0.1l-2.4,0.1c-0.2,0-0.3-0.1-0.3-0.3V29c0-0.6-0.2-1.1-0.5-1.4
		c-0.3-0.4-0.8-0.6-1.3-0.6s-1,0.2-1.3,0.6s-0.5,0.9-0.5,1.4v9.1c0,0.6,0.2,1.1,0.5,1.4c0.3,0.4,0.8,0.6,1.3,0.6
		c0.6,0,1-0.2,1.3-0.6c0.3-0.4,0.5-0.9,0.5-1.4v-0.6c0-0.1,0-0.2,0.1-0.2c0.1-0.1,0.1-0.1,0.2-0.1l2.4,0.1c0.1,0,0.2,0,0.2,0.1
		c0.1,0.1,0.1,0.1,0.1,0.2v0.3c0,1.4-0.4,2.6-1.3,3.5c-0.9,0.9-2,1.3-3.5,1.3C136.8,42.7,135.6,42.3,134.7,41.4z"/>
	<path class="st8" d="M151.9,24.8c0.1-0.1,0.1-0.1,0.2-0.1h2.3c0.1,0,0.2,0,0.2,0.1c0.1,0.1,0.1,0.1,0.1,0.2v17.2
		c0,0.1,0,0.2-0.1,0.2c-0.1,0.1-0.1,0.1-0.2,0.1h-2.3c-0.1,0-0.2,0-0.2-0.1c-0.1-0.1-0.1-0.1-0.1-0.2V35c0-0.1,0-0.1-0.1-0.1h-3.2
		c-0.1,0-0.1,0-0.1,0.1v7.2c0,0.1,0,0.2-0.1,0.2s-0.1,0.1-0.2,0.1h-2.3c-0.1,0-0.2,0-0.2-0.1c-0.1-0.1-0.1-0.1-0.1-0.2V25
		c0-0.1,0-0.2,0.1-0.2c0.1-0.1,0.1-0.1,0.2-0.1h2.3c0.1,0,0.2,0,0.2,0.1s0.1,0.1,0.1,0.2v7.2c0,0.1,0,0.1,0.1,0.1h3.2
		c0.1,0,0.1,0,0.1-0.1V25C151.8,24.9,151.8,24.9,151.9,24.8z"/>
	<path class="st8" d="M157.6,42.4c-0.1-0.1-0.1-0.1-0.1-0.2V25c0-0.1,0-0.2,0.1-0.2c0.1-0.1,0.1-0.1,0.2-0.1h2.3
		c0.1,0,0.2,0,0.2,0.1s0.1,0.1,0.1,0.2v17.2c0,0.1,0,0.2-0.1,0.2s-0.1,0.1-0.2,0.1h-2.3C157.7,42.5,157.6,42.5,157.6,42.4z"/>
	<path class="st8" d="M170.5,24.8c0.1-0.1,0.1-0.1,0.2-0.1h2.3c0.1,0,0.2,0,0.2,0.1c0.1,0.1,0.1,0.1,0.1,0.2v17.2
		c0,0.1,0,0.2-0.1,0.2c-0.1,0.1-0.1,0.1-0.2,0.1h-2.7c-0.2,0-0.3-0.1-0.3-0.3l-3.8-10.8c0-0.1,0-0.1-0.1-0.1c0,0-0.1,0-0.1,0.1v10.7
		c0,0.1,0,0.2-0.1,0.2s-0.1,0.1-0.2,0.1h-2.3c-0.1,0-0.2,0-0.2-0.1c-0.1-0.1-0.1-0.1-0.1-0.2V25c0-0.1,0-0.2,0.1-0.2
		c0.1-0.1,0.1-0.1,0.2-0.1h2.6c0.2,0,0.3,0.1,0.3,0.3l3.8,10.7c0,0.1,0,0.1,0.1,0.1c0,0,0.1,0,0.1-0.1V25
		C170.4,24.9,170.4,24.9,170.5,24.8z"/>
	<path class="st8" d="M182.9,42.2l-0.5-2.7c0-0.1-0.1-0.1-0.2-0.1h-3.7c-0.1,0-0.2,0-0.2,0.1l-0.5,2.7c0,0.2-0.1,0.3-0.3,0.3h-2.3
		c-0.2,0-0.3-0.1-0.3-0.3l3.8-17.2c0-0.2,0.1-0.3,0.3-0.3h2.7c0.2,0,0.3,0.1,0.3,0.3l3.8,17.2v0.1c0,0.2-0.1,0.2-0.3,0.2h-2.4
		C183.1,42.5,182.9,42.4,182.9,42.2z M179,37.1h2.8c0.1,0,0.1,0,0.1-0.1l-1.5-8c0-0.1,0-0.1-0.1-0.1c0,0-0.1,0-0.1,0.1l-1.4,8
		C178.9,37.1,178.9,37.1,179,37.1z"/>
</g>
<g>
	<path class="st4" d="M134.3,41.3c-0.9-0.9-1.3-2-1.3-3.5v-8.7c0-1.5,0.4-2.6,1.3-3.5c0.9-0.9,2-1.3,3.5-1.3s2.6,0.4,3.5,1.3
		s1.3,2,1.3,3.5v0.3c0,0.1,0,0.2-0.1,0.2c-0.1,0.1-0.1,0.1-0.2,0.1l-2.4,0.1c-0.2,0-0.3-0.1-0.3-0.3v-0.6c0-0.6-0.2-1.1-0.5-1.4
		c-0.3-0.4-0.8-0.6-1.3-0.6s-1,0.2-1.3,0.6s-0.5,0.9-0.5,1.4V38c0,0.6,0.2,1.1,0.5,1.4c0.3,0.4,0.8,0.6,1.3,0.6c0.6,0,1-0.2,1.3-0.6
		c0.3-0.4,0.5-0.9,0.5-1.4v-0.6c0-0.1,0-0.2,0.1-0.2c0.1-0.1,0.1-0.1,0.2-0.1l2.4,0.1c0.1,0,0.2,0,0.2,0.1c0.1,0.1,0.1,0.1,0.1,0.2
		v0.3c0,1.4-0.4,2.6-1.3,3.5c-0.9,0.9-2,1.3-3.5,1.3S135.1,42.1,134.3,41.3z"/>
	<path class="st4" d="M151.4,24.7c0.1-0.1,0.1-0.1,0.2-0.1h2.3c0.1,0,0.2,0,0.2,0.1c0.1,0.1,0.1,0.1,0.1,0.2v17.2
		c0,0.1,0,0.2-0.1,0.2c-0.1,0.1-0.1,0.1-0.2,0.1h-2.3c-0.1,0-0.2,0-0.2-0.1c-0.1-0.1-0.1-0.1-0.1-0.2v-7.2c0-0.1,0-0.1-0.1-0.1H148
		c-0.1,0-0.1,0-0.1,0.1v7.2c0,0.1,0,0.2-0.1,0.2s-0.1,0.1-0.2,0.1h-2.3c-0.1,0-0.2,0-0.2-0.1c-0.1-0.1-0.1-0.1-0.1-0.2V24.9
		c0-0.1,0-0.2,0.1-0.2c0.1-0.1,0.1-0.1,0.2-0.1h2.3c0.1,0,0.2,0,0.2,0.1s0.1,0.1,0.1,0.2v7.2c0,0.1,0,0.1,0.1,0.1h3.2
		c0.1,0,0.1,0,0.1-0.1v-7.2C151.3,24.8,151.3,24.7,151.4,24.7z"/>
	<path class="st4" d="M157.1,42.3c-0.1-0.1-0.1-0.1-0.1-0.2V24.9c0-0.1,0-0.2,0.1-0.2c0.1-0.1,0.1-0.1,0.2-0.1h2.3
		c0.1,0,0.2,0,0.2,0.1s0.1,0.1,0.1,0.2v17.2c0,0.1,0,0.2-0.1,0.2s-0.1,0.1-0.2,0.1h-2.3C157.2,42.4,157.1,42.4,157.1,42.3z"/>
	<path class="st4" d="M170,24.7c0.1-0.1,0.1-0.1,0.2-0.1h2.3c0.1,0,0.2,0,0.2,0.1c0.1,0.1,0.1,0.1,0.1,0.2v17.2c0,0.1,0,0.2-0.1,0.2
		c-0.1,0.1-0.1,0.1-0.2,0.1h-2.7c-0.2,0-0.3-0.1-0.3-0.3l-3.8-10.8c0-0.1,0-0.1-0.1-0.1c0,0-0.1,0-0.1,0.1V42c0,0.1,0,0.2-0.1,0.2
		s-0.1,0.1-0.2,0.1H163c-0.1,0-0.2,0-0.2-0.1c-0.1-0.1-0.1-0.1-0.1-0.2V24.9c0-0.1,0-0.2,0.1-0.2c0.1-0.1,0.1-0.1,0.2-0.1h2.6
		c0.2,0,0.3,0.1,0.3,0.3l3.8,10.7c0,0.1,0,0.1,0.1,0.1c0,0,0.1,0,0.1-0.1V24.9C169.9,24.8,169.9,24.7,170,24.7z"/>
	<path class="st4" d="M182.4,42.1l-0.5-2.7c0-0.1-0.1-0.1-0.2-0.1H178c-0.1,0-0.2,0-0.2,0.1l-0.5,2.7c0,0.2-0.1,0.3-0.3,0.3h-2.3
		c-0.2,0-0.3-0.1-0.3-0.3l3.8-17.2c0-0.2,0.1-0.3,0.3-0.3h2.7c0.2,0,0.3,0.1,0.3,0.3l3.8,17.2v0.1c0,0.2-0.1,0.2-0.3,0.2h-2.4
		C182.6,42.4,182.5,42.3,182.4,42.1z M178.5,37h2.8c0.1,0,0.1,0,0.1-0.1l-1.5-8c0-0.1,0-0.1-0.1-0.1c0,0-0.1,0-0.1,0.1l-1.4,8
		C178.4,37,178.4,37,178.5,37z"/>
</g>
<g>
	<path class="st7" d="M135.1,41.8c-0.9-0.9-1.3-2-1.3-3.5v-8.7c0-1.5,0.4-2.6,1.3-3.5c0.9-0.9,2-1.3,3.5-1.3s2.6,0.4,3.5,1.3
		s1.3,2,1.3,3.5V30c0,0.1,0,0.2-0.1,0.2c-0.1,0.1-0.1,0.1-0.2,0.1l-2.4,0.1c-0.2,0-0.3-0.1-0.3-0.3v-0.6c0-0.6-0.2-1.1-0.5-1.4
		c-0.3-0.4-0.8-0.6-1.3-0.6s-1,0.2-1.3,0.6s-0.5,0.9-0.5,1.4v9.1c0,0.6,0.2,1.1,0.5,1.4c0.3,0.4,0.8,0.6,1.3,0.6
		c0.6,0,1-0.2,1.3-0.6c0.3-0.4,0.5-0.9,0.5-1.4V38c0-0.1,0-0.2,0.1-0.2c0.1-0.1,0.1-0.1,0.2-0.1l2.4,0.1c0.1,0,0.2,0,0.2,0.1
		c0.1,0.1,0.1,0.1,0.1,0.2v0.3c0,1.4-0.4,2.6-1.3,3.5c-0.9,0.9-2,1.3-3.5,1.3C137.1,43.1,136,42.7,135.1,41.8z"/>
	<path class="st7" d="M152.2,25.2c0.1-0.1,0.1-0.1,0.2-0.1h2.3c0.1,0,0.2,0,0.2,0.1c0.1,0.1,0.1,0.1,0.1,0.2v17.2
		c0,0.1,0,0.2-0.1,0.2c-0.1,0.1-0.1,0.1-0.2,0.1h-2.3c-0.1,0-0.2,0-0.2-0.1c-0.1-0.1-0.1-0.1-0.1-0.2v-7.2c0-0.1,0-0.1-0.1-0.1h-3.2
		c-0.1,0-0.1,0-0.1,0.1v7.2c0,0.1,0,0.2-0.1,0.2s-0.1,0.1-0.2,0.1H146c-0.1,0-0.2,0-0.2-0.1c-0.1-0.1-0.1-0.1-0.1-0.2V25.4
		c0-0.1,0-0.2,0.1-0.2c0.1-0.1,0.1-0.1,0.2-0.1h2.3c0.1,0,0.2,0,0.2,0.1s0.1,0.1,0.1,0.2v7.2c0,0.1,0,0.1,0.1,0.1h3.2
		c0.1,0,0.1,0,0.1-0.1v-7.2C152.1,25.4,152.2,25.3,152.2,25.2z"/>
	<path class="st7" d="M157.9,42.8c-0.1-0.1-0.1-0.1-0.1-0.2V25.4c0-0.1,0-0.2,0.1-0.2c0.1-0.1,0.1-0.1,0.2-0.1h2.3
		c0.1,0,0.2,0,0.2,0.1s0.1,0.1,0.1,0.2v17.2c0,0.1,0,0.2-0.1,0.2s-0.1,0.1-0.2,0.1h-2.3C158,42.9,158,42.9,157.9,42.8z"/>
	<path class="st7" d="M170.8,25.2c0.1-0.1,0.1-0.1,0.2-0.1h2.3c0.1,0,0.2,0,0.2,0.1c0.1,0.1,0.1,0.1,0.1,0.2v17.2
		c0,0.1,0,0.2-0.1,0.2c-0.1,0.1-0.1,0.1-0.2,0.1h-2.7c-0.2,0-0.3-0.1-0.3-0.3l-3.8-10.8c0-0.1,0-0.1-0.1-0.1c0,0-0.1,0-0.1,0.1v10.7
		c0,0.1,0,0.2-0.1,0.2s-0.1,0.1-0.2,0.1h-2.3c-0.1,0-0.2,0-0.2-0.1c-0.1-0.1-0.1-0.1-0.1-0.2V25.4c0-0.1,0-0.2,0.1-0.2
		c0.1-0.1,0.1-0.1,0.2-0.1h2.6c0.2,0,0.3,0.1,0.3,0.3l3.8,10.7c0,0.1,0,0.1,0.1,0.1c0,0,0.1,0,0.1-0.1V25.4
		C170.7,25.4,170.7,25.3,170.8,25.2z"/>
	<path class="st7" d="M183.3,42.6l-0.5-2.7c0-0.1-0.1-0.1-0.2-0.1h-3.7c-0.1,0-0.2,0-0.2,0.1l-0.5,2.7c0,0.2-0.1,0.3-0.3,0.3h-2.3
		c-0.2,0-0.3-0.1-0.3-0.3l3.8-17.2c0-0.2,0.1-0.3,0.3-0.3h2.7c0.2,0,0.3,0.1,0.3,0.3l3.8,17.2v0.1c0,0.2-0.1,0.2-0.3,0.2h-2.4
		C183.4,42.9,183.3,42.8,183.3,42.6z M179.4,37.5h2.8c0.1,0,0.1,0,0.1-0.1l-1.5-8c0-0.1,0-0.1-0.1-0.1c0,0-0.1,0-0.1,0.1l-1.4,8
		C179.2,37.5,179.3,37.5,179.4,37.5z"/>
</g>
<g>
	<path d="M134.7,41.4c-0.9-0.9-1.3-2-1.3-3.5v-8.7c0-1.5,0.4-2.6,1.3-3.5c0.9-0.9,2-1.3,3.5-1.3s2.6,0.4,3.5,1.3s1.3,2,1.3,3.5v0.3
		c0,0.1,0,0.2-0.1,0.2c-0.1,0.1-0.1,0.1-0.2,0.1l-2.4,0.1c-0.2,0-0.3-0.1-0.3-0.3V29c0-0.6-0.2-1.1-0.5-1.4
		c-0.3-0.4-0.8-0.6-1.3-0.6s-1,0.2-1.3,0.6s-0.5,0.9-0.5,1.4v9.1c0,0.6,0.2,1.1,0.5,1.4c0.3,0.4,0.8,0.6,1.3,0.6
		c0.6,0,1-0.2,1.3-0.6c0.3-0.4,0.5-0.9,0.5-1.4v-0.6c0-0.1,0-0.2,0.1-0.2c0.1-0.1,0.1-0.1,0.2-0.1l2.4,0.1c0.1,0,0.2,0,0.2,0.1
		c0.1,0.1,0.1,0.1,0.1,0.2v0.3c0,1.4-0.4,2.6-1.3,3.5c-0.9,0.9-2,1.3-3.5,1.3C136.8,42.7,135.6,42.3,134.7,41.4z"/>
	<path d="M151.9,24.8c0.1-0.1,0.1-0.1,0.2-0.1h2.3c0.1,0,0.2,0,0.2,0.1c0.1,0.1,0.1,0.1,0.1,0.2v17.2c0,0.1,0,0.2-0.1,0.2
		c-0.1,0.1-0.1,0.1-0.2,0.1h-2.3c-0.1,0-0.2,0-0.2-0.1c-0.1-0.1-0.1-0.1-0.1-0.2V35c0-0.1,0-0.1-0.1-0.1h-3.2c-0.1,0-0.1,0-0.1,0.1
		v7.2c0,0.1,0,0.2-0.1,0.2s-0.1,0.1-0.2,0.1h-2.3c-0.1,0-0.2,0-0.2-0.1c-0.1-0.1-0.1-0.1-0.1-0.2V25c0-0.1,0-0.2,0.1-0.2
		c0.1-0.1,0.1-0.1,0.2-0.1h2.3c0.1,0,0.2,0,0.2,0.1s0.1,0.1,0.1,0.2v7.2c0,0.1,0,0.1,0.1,0.1h3.2c0.1,0,0.1,0,0.1-0.1V25
		C151.8,24.9,151.8,24.9,151.9,24.8z"/>
	<path d="M157.6,42.4c-0.1-0.1-0.1-0.1-0.1-0.2V25c0-0.1,0-0.2,0.1-0.2c0.1-0.1,0.1-0.1,0.2-0.1h2.3c0.1,0,0.2,0,0.2,0.1
		s0.1,0.1,0.1,0.2v17.2c0,0.1,0,0.2-0.1,0.2s-0.1,0.1-0.2,0.1h-2.3C157.7,42.5,157.6,42.5,157.6,42.4z"/>
	<path d="M170.5,24.8c0.1-0.1,0.1-0.1,0.2-0.1h2.3c0.1,0,0.2,0,0.2,0.1c0.1,0.1,0.1,0.1,0.1,0.2v17.2c0,0.1,0,0.2-0.1,0.2
		c-0.1,0.1-0.1,0.1-0.2,0.1h-2.7c-0.2,0-0.3-0.1-0.3-0.3l-3.8-10.8c0-0.1,0-0.1-0.1-0.1c0,0-0.1,0-0.1,0.1v10.7c0,0.1,0,0.2-0.1,0.2
		s-0.1,0.1-0.2,0.1h-2.3c-0.1,0-0.2,0-0.2-0.1c-0.1-0.1-0.1-0.1-0.1-0.2V25c0-0.1,0-0.2,0.1-0.2c0.1-0.1,0.1-0.1,0.2-0.1h2.6
		c0.2,0,0.3,0.1,0.3,0.3l3.8,10.7c0,0.1,0,0.1,0.1,0.1c0,0,0.1,0,0.1-0.1V25C170.4,24.9,170.4,24.9,170.5,24.8z"/>
	<path d="M182.9,42.2l-0.5-2.7c0-0.1-0.1-0.1-0.2-0.1h-3.7c-0.1,0-0.2,0-0.2,0.1l-0.5,2.7c0,0.2-0.1,0.3-0.3,0.3h-2.3
		c-0.2,0-0.3-0.1-0.3-0.3l3.8-17.2c0-0.2,0.1-0.3,0.3-0.3h2.7c0.2,0,0.3,0.1,0.3,0.3l3.8,17.2v0.1c0,0.2-0.1,0.2-0.3,0.2h-2.4
		C183.1,42.5,182.9,42.4,182.9,42.2z M179,37.1h2.8c0.1,0,0.1,0,0.1-0.1l-1.5-8c0-0.1,0-0.1-0.1-0.1c0,0-0.1,0-0.1,0.1l-1.4,8
		C178.9,37.1,178.9,37.1,179,37.1z"/>
</g>
<g>
	<path class="st9" d="M134.7,41.4c-0.9-0.9-1.3-2-1.3-3.5v-8.7c0-1.5,0.4-2.6,1.3-3.5c0.9-0.9,2-1.3,3.5-1.3s2.6,0.4,3.5,1.3
		s1.3,2,1.3,3.5v0.3c0,0.1,0,0.2-0.1,0.2c-0.1,0.1-0.1,0.1-0.2,0.1l-2.4,0.1c-0.2,0-0.3-0.1-0.3-0.3V29c0-0.6-0.2-1.1-0.5-1.4
		c-0.3-0.4-0.8-0.6-1.3-0.6s-1,0.2-1.3,0.6s-0.5,0.9-0.5,1.4v9.1c0,0.6,0.2,1.1,0.5,1.4c0.3,0.4,0.8,0.6,1.3,0.6
		c0.6,0,1-0.2,1.3-0.6c0.3-0.4,0.5-0.9,0.5-1.4v-0.6c0-0.1,0-0.2,0.1-0.2c0.1-0.1,0.1-0.1,0.2-0.1l2.4,0.1c0.1,0,0.2,0,0.2,0.1
		c0.1,0.1,0.1,0.1,0.1,0.2v0.3c0,1.4-0.4,2.6-1.3,3.5c-0.9,0.9-2,1.3-3.5,1.3C136.8,42.7,135.6,42.3,134.7,41.4z"/>
	<path class="st9" d="M151.9,24.8c0.1-0.1,0.1-0.1,0.2-0.1h2.3c0.1,0,0.2,0,0.2,0.1c0.1,0.1,0.1,0.1,0.1,0.2v17.2
		c0,0.1,0,0.2-0.1,0.2c-0.1,0.1-0.1,0.1-0.2,0.1h-2.3c-0.1,0-0.2,0-0.2-0.1c-0.1-0.1-0.1-0.1-0.1-0.2V35c0-0.1,0-0.1-0.1-0.1h-3.2
		c-0.1,0-0.1,0-0.1,0.1v7.2c0,0.1,0,0.2-0.1,0.2s-0.1,0.1-0.2,0.1h-2.3c-0.1,0-0.2,0-0.2-0.1c-0.1-0.1-0.1-0.1-0.1-0.2V25
		c0-0.1,0-0.2,0.1-0.2c0.1-0.1,0.1-0.1,0.2-0.1h2.3c0.1,0,0.2,0,0.2,0.1s0.1,0.1,0.1,0.2v7.2c0,0.1,0,0.1,0.1,0.1h3.2
		c0.1,0,0.1,0,0.1-0.1V25C151.8,24.9,151.8,24.9,151.9,24.8z"/>
	<path class="st9" d="M157.6,42.4c-0.1-0.1-0.1-0.1-0.1-0.2V25c0-0.1,0-0.2,0.1-0.2c0.1-0.1,0.1-0.1,0.2-0.1h2.3
		c0.1,0,0.2,0,0.2,0.1s0.1,0.1,0.1,0.2v17.2c0,0.1,0,0.2-0.1,0.2s-0.1,0.1-0.2,0.1h-2.3C157.7,42.5,157.6,42.5,157.6,42.4z"/>
	<path class="st9" d="M170.5,24.8c0.1-0.1,0.1-0.1,0.2-0.1h2.3c0.1,0,0.2,0,0.2,0.1c0.1,0.1,0.1,0.1,0.1,0.2v17.2
		c0,0.1,0,0.2-0.1,0.2c-0.1,0.1-0.1,0.1-0.2,0.1h-2.7c-0.2,0-0.3-0.1-0.3-0.3l-3.8-10.8c0-0.1,0-0.1-0.1-0.1c0,0-0.1,0-0.1,0.1v10.7
		c0,0.1,0,0.2-0.1,0.2s-0.1,0.1-0.2,0.1h-2.3c-0.1,0-0.2,0-0.2-0.1c-0.1-0.1-0.1-0.1-0.1-0.2V25c0-0.1,0-0.2,0.1-0.2
		c0.1-0.1,0.1-0.1,0.2-0.1h2.6c0.2,0,0.3,0.1,0.3,0.3l3.8,10.7c0,0.1,0,0.1,0.1,0.1c0,0,0.1,0,0.1-0.1V25
		C170.4,24.9,170.4,24.9,170.5,24.8z"/>
	<path class="st9" d="M182.9,42.2l-0.5-2.7c0-0.1-0.1-0.1-0.2-0.1h-3.7c-0.1,0-0.2,0-0.2,0.1l-0.5,2.7c0,0.2-0.1,0.3-0.3,0.3h-2.3
		c-0.2,0-0.3-0.1-0.3-0.3l3.8-17.2c0-0.2,0.1-0.3,0.3-0.3h2.7c0.2,0,0.3,0.1,0.3,0.3l3.8,17.2v0.1c0,0.2-0.1,0.2-0.3,0.2h-2.4
		C183.1,42.5,182.9,42.4,182.9,42.2z M179,37.1h2.8c0.1,0,0.1,0,0.1-0.1l-1.5-8c0-0.1,0-0.1-0.1-0.1c0,0-0.1,0-0.1,0.1l-1.4,8
		C178.9,37.1,178.9,37.1,179,37.1z"/>
</g>
</svg>
