<svg width="100" height="100" viewBox="0 0 100 100" fill="none" xmlns="http://www.w3.org/2000/svg">
<g clip-path="url(#clip0_459_247)">
<rect width="100" height="100" fill="#EC221F"/>
<path d="M0 0H100V100H0V0Z" fill="#EC221F"/>
<path d="M97.5159 61.0878L88.6199 77.5998C88.4065 78.1118 88.4065 78.6025 88.6199 79.0718L97.5159 95.7118C98.0279 96.6932 98.0065 97.6532 97.4519 98.5918C96.8545 99.5305 96.0012 99.9998 94.8919 99.9998H92.9719C91.7345 99.9998 90.8812 99.4878 90.4119 98.4638L84.3319 87.1998C84.2892 87.0292 84.1612 86.9438 83.9479 86.9438C83.7772 86.9438 83.6492 87.0292 83.5639 87.1998L77.4839 98.4638C77.3132 98.9332 76.9719 99.3172 76.4599 99.6158C75.9905 99.8718 75.4785 99.9998 74.9239 99.9998H72.9399C71.8732 99.9998 71.0412 99.5305 70.4439 98.5918C69.8892 97.6532 69.8679 96.6932 70.3799 95.7118L79.2759 79.0718C79.4892 78.6025 79.4892 78.1118 79.2759 77.5998L70.3799 61.0878C69.8679 60.0212 69.8892 59.0398 70.4439 58.1438C71.0412 57.2052 71.8732 56.7358 72.9399 56.7358H74.9239C76.0759 56.7358 76.9292 57.2478 77.4839 58.2718L83.5639 69.5998C83.6492 69.7705 83.7772 69.8558 83.9479 69.8558C84.1185 69.8558 84.2465 69.7705 84.3319 69.5998L90.4119 58.2718C90.9665 57.2478 91.8199 56.7358 92.9719 56.7358H94.9559C96.0225 56.7358 96.8545 57.2052 97.4519 58.1438C98.0065 59.0398 98.0279 60.0212 97.5159 61.0878Z" fill="white"/>
<path d="M57.2562 97.0558C57.2562 97.8665 56.9789 98.5705 56.4242 99.1678C55.9122 99.7225 55.2509 99.9998 54.4402 99.9998H52.6482C51.8376 99.9998 51.1336 99.7225 50.5362 99.1678C49.9816 98.5705 49.7042 97.8665 49.7042 97.0558V67.9358C49.7042 67.7652 49.6189 67.6585 49.4482 67.6158C49.3202 67.5305 49.2136 67.5305 49.1282 67.6158L48.1682 68.5758C47.6562 69.1732 46.9736 69.4718 46.1202 69.4718C45.6936 69.4718 45.3096 69.3865 44.9682 69.2158C44.4136 69.0025 43.9869 68.6398 43.6882 68.1278C43.3896 67.6158 43.2402 67.0825 43.2402 66.5278V64.0318C43.2402 63.2212 43.5176 62.5172 44.0722 61.9198L48.4242 57.6318C48.7229 57.3758 49.0429 57.1625 49.3842 56.9918C49.7256 56.8212 50.1096 56.7358 50.5362 56.7358H54.4402C55.2509 56.7358 55.9122 57.0132 56.4242 57.5678C56.9789 58.1225 57.2562 58.8265 57.2562 59.6798V97.0558Z" fill="white"/>
</g>
<defs>
<clipPath id="clip0_459_247">
<rect width="100" height="100" fill="white"/>
</clipPath>
</defs>
</svg>
