<?xml version="1.0" encoding="UTF-8"?>
<svg id="Layer_1" xmlns="http://www.w3.org/2000/svg" xmlns:xlink="http://www.w3.org/1999/xlink" version="1.1" viewBox="0 0 200 200">
  <!-- Generator: Adobe Illustrator 29.5.1, SVG Export Plug-In . SVG Version: 2.1.0 Build 141)  -->
  <defs>
    <style>
      .st0 {
        fill: #6d6a1f;
      }

      .st1 {
        fill: #e3e2e3;
      }

      .st2 {
        fill: #c6c5bd;
      }

      .st3 {
        fill: #0b0a0b;
      }

      .st4 {
        fill: #fc0;
      }

      .st5 {
        fill: #a1c0cb;
      }

      .st6 {
        fill: url(#linear-gradient2);
      }

      .st7 {
        fill: url(#linear-gradient1);
      }

      .st8 {
        fill: #2f3449;
      }

      .st9 {
        fill: #6b6c6d;
      }

      .st10 {
        fill: #3d3f4c;
      }

      .st11 {
        fill: #7f7819;
      }

      .st12 {
        fill: #c7c8c9;
      }

      .st13 {
        fill: #8ea7ac;
      }

      .st14 {
        fill: #d0d4d3;
      }

      .st15 {
        fill: url(#linear-gradient);
      }

      .st16 {
        opacity: .8;
      }

      .st16, .st17 {
        fill: #fff;
      }

      .st18 {
        fill: #728d95;
      }

      .st19 {
        stroke-width: .28px;
      }

      .st19, .st20 {
        fill: none;
      }

      .st19, .st20, .st21 {
        stroke: #fc0;
        stroke-miterlimit: 10;
      }

      .st22 {
        fill: #ccc;
      }

      .st23 {
        fill: #8c9091;
      }

      .st20 {
        stroke-width: 1.13px;
      }

      .st24 {
        fill: #9d9da0;
      }

      .st25 {
        fill: #abada9;
      }

      .st21 {
        stroke-width: 2.83px;
      }

      .st26 {
        fill: #232224;
      }

      .st27 {
        fill: #666;
      }

      .st28 {
        fill: #81807c;
      }

      .st29 {
        fill: #8a8c8d;
      }

      .st30 {
        fill: #5c5d60;
      }

      .st31 {
        fill: #4b4c50;
      }

      .st32 {
        opacity: .6;
      }

      .st33 {
        fill: #f7f7f7;
      }

      .st34 {
        fill: #e3d732;
      }

      .st35 {
        fill: #10100f;
      }

      .st36 {
        fill: #0f192a;
      }

      .st37 {
        fill: #e3eef0;
      }

      .st38 {
        fill: #f6ed59;
      }

      .st39 {
        fill: #bcd0d1;
      }

      .st40 {
        fill: #a4b1ad;
      }

      .st41 {
        fill: #383738;
      }

      .st42 {
        fill: #62605a;
      }

      .st43 {
        fill: #2d4662;
      }

      .st44 {
        fill: #333;
      }

      .st45 {
        fill: #726f6e;
      }

      .st46 {
        fill: #5f7781;
      }

      .st47 {
        fill: #625715;
      }
    </style>
    <linearGradient id="linear-gradient" x1="-883.4" y1="-248.48" x2="-885.3" y2="-220.76" gradientUnits="userSpaceOnUse">
      <stop offset="0" stop-color="#4f4d4f"/>
      <stop offset="1" stop-color="#383638"/>
    </linearGradient>
    <linearGradient id="linear-gradient1" x1="-810.03" y1="-254.97" x2="-804.5" y2="-185.32" gradientUnits="userSpaceOnUse">
      <stop offset="0" stop-color="#b2b1b2"/>
      <stop offset="1" stop-color="#6f6f72"/>
    </linearGradient>
    <linearGradient id="linear-gradient2" x1="-552.67" y1="-190.59" x2="-556.27" y2="-160.05" gradientUnits="userSpaceOnUse">
      <stop offset="0" stop-color="#9badae"/>
      <stop offset="1" stop-color="#7e979e"/>
    </linearGradient>
  </defs>
  <rect class="st4" x="-190.9" y="-263.03" width="500" height="200" rx="10" ry="10"/>
  <path class="st16" d="M287.63-251.13c3.75,0,6.8,3.05,6.8,6.8V-83.6c0,3.75-3.05,6.8-6.8,6.8H-173.11c-3.75,0-6.8-3.05-6.8-6.8v-160.73c0-3.75,3.05-6.8,6.8-6.8h460.73M287.63-253.96H-173.11c-5.32,0-9.63,4.31-9.63,9.63V-83.6c0,5.32,4.31,9.63,9.63,9.63h460.73c5.32,0,9.63-4.31,9.63-9.63v-160.73c0-5.32-4.31-9.63-9.63-9.63h0Z"/>
  <path class="st32" d="M291.31-248.65c3.75,0,6.8,3.05,6.8,6.8V-81.12c0,3.75-3.05,6.8-6.8,6.8H-169.43c-3.75,0-6.8-3.05-6.8-6.8v-160.73c0-3.75,3.05-6.8,6.8-6.8h460.73M291.31-251.49H-169.43c-5.32,0-9.63,4.31-9.63,9.63V-81.12c0,5.32,4.31,9.63,9.63,9.63h460.73c5.32,0,9.63-4.31,9.63-9.63v-160.73c0-5.32-4.31-9.63-9.63-9.63h0Z"/>
  <path class="st20" d="M289.46-250.13c3.75,0,6.8,3.05,6.8,6.8V-82.6c0,3.75-3.05,6.8-6.8,6.8H-171.27c-3.75,0-6.8-3.05-6.8-6.8v-160.73c0-3.75,3.05-6.8,6.8-6.8h460.73M289.46-252.96H-171.27c-5.32,0-9.63,4.31-9.63,9.63V-82.6c0,5.32,4.31,9.63,9.63,9.63h460.73c5.32,0,9.63-4.31,9.63-9.63v-160.73c0-5.32-4.31-9.63-9.63-9.63h0Z"/>
  <path d="M289.46-250.13c3.75,0,6.8,3.05,6.8,6.8V-82.6c0,3.75-3.05,6.8-6.8,6.8H-171.27c-3.75,0-6.8-3.05-6.8-6.8v-160.73c0-3.75,3.05-6.8,6.8-6.8h460.73M289.46-252.96H-171.27c-5.32,0-9.63,4.31-9.63,9.63V-82.6c0,5.32,4.31,9.63,9.63,9.63h460.73c5.32,0,9.63-4.31,9.63-9.63v-160.73c0-5.32-4.31-9.63-9.63-9.63h0Z"/>
  <g>
    <rect class="st17" x="-108.4" y="-235.46" width="35" height="15" rx="-102.73" ry="-102.73"/>
    <path class="st22" d="M-82.51-234.46h1.6M-80.9-234.46c3.58,0,6.5,2.92,6.5,6.5s-2.92,6.5-6.5,6.5h-20c-3.58,0-6.5-2.92-6.5-6.5s2.92-6.5,6.5-6.5h18.4M-80.9-235.46h-20c-4.14,0-7.5,3.36-7.5,7.5s3.36,7.5,7.5,7.5h20c4.14,0,7.5-3.36,7.5-7.5s-3.36-7.5-7.5-7.5h0"/>
    <path class="st27" d="M-100.9-220.46h4.26l1-1h-5.26c-3.58,0-6.5-2.92-6.5-6.5s2.92-6.5,6.5-6.5h18.26l1-1h-19.26c-4.14,0-7.5,3.36-7.5,7.5s3.36,7.5,7.5,7.5Z"/>
  </g>
  <g>
    <rect class="st17" x="-108.4" y="-105.46" width="35" height="15" rx="-37.73" ry="-37.73"/>
    <path class="st22" d="M-82.51-104.46h1.6M-80.9-104.46c3.58,0,6.5,2.92,6.5,6.5s-2.92,6.5-6.5,6.5h-20c-3.58,0-6.5-2.92-6.5-6.5s2.92-6.5,6.5-6.5h18.4M-80.9-105.46h-20c-4.14,0-7.5,3.36-7.5,7.5s3.36,7.5,7.5,7.5h20c4.14,0,7.5-3.36,7.5-7.5s-3.36-7.5-7.5-7.5h0"/>
    <path class="st27" d="M-100.9-90.46h4.26l1-1h-5.26c-3.58,0-6.5-2.92-6.5-6.5s2.92-6.5,6.5-6.5h18.26l1-1h-19.26c-4.14,0-7.5,3.36-7.5,7.5s3.36,7.5,7.5,7.5Z"/>
  </g>
  <g>
    <rect class="st17" x="191.6" y="-235.46" width="35" height="15" rx="-102.73" ry="-102.73"/>
    <path class="st22" d="M217.49-234.46h1.6M219.1-234.46c3.58,0,6.5,2.92,6.5,6.5s-2.92,6.5-6.5,6.5h-20c-3.58,0-6.5-2.92-6.5-6.5s2.92-6.5,6.5-6.5h18.4M219.1-235.46h-20c-4.14,0-7.5,3.36-7.5,7.5s3.36,7.5,7.5,7.5h20c4.14,0,7.5-3.36,7.5-7.5s-3.36-7.5-7.5-7.5h0"/>
    <path class="st27" d="M199.1-220.46h4.26l1-1h-5.26c-3.58,0-6.5-2.92-6.5-6.5s2.92-6.5,6.5-6.5h18.26l1-1h-19.26c-4.14,0-7.5,3.36-7.5,7.5s3.36,7.5,7.5,7.5Z"/>
  </g>
  <g>
    <rect class="st17" x="191.6" y="-105.46" width="35" height="15" rx="-37.73" ry="-37.73"/>
    <path class="st22" d="M217.49-104.46h1.6M219.1-104.46c3.58,0,6.5,2.92,6.5,6.5s-2.92,6.5-6.5,6.5h-20c-3.58,0-6.5-2.92-6.5-6.5s2.92-6.5,6.5-6.5h18.4M219.1-105.46h-20c-4.14,0-7.5,3.36-7.5,7.5s3.36,7.5,7.5,7.5h20c4.14,0,7.5-3.36,7.5-7.5s-3.36-7.5-7.5-7.5h0"/>
    <path class="st27" d="M199.1-90.46h4.26l1-1h-5.26c-3.58,0-6.5-2.92-6.5-6.5s2.92-6.5,6.5-6.5h18.26l1-1h-19.26c-4.14,0-7.5,3.36-7.5,7.5s3.36,7.5,7.5,7.5Z"/>
  </g>
  <g>
    <path class="st17" d="M-108.09-164.92c2.13,1.23,3.74,3.1,4.84,5.62,1.36,3.03,2.03,6.45,2.03,10.26,0,3.42-.52,6.42-1.55,9-1.29,3.48-3.31,6.21-6.05,8.18-2.74,1.97-6.02,2.95-9.83,2.95s-6.99-.97-9.73-2.9c-2.74-1.94-4.76-4.65-6.05-8.13-.97-2.71-1.45-5.74-1.45-9.1,0-3.81.58-7.07,1.74-9.78.97-2.58,2.68-4.58,5.13-6,.26-.19.26-.39,0-.58-2.13-1.36-3.78-3.23-4.94-5.62-1.29-2.77-1.94-5.87-1.94-9.29,0-3.74.64-6.87,1.94-9.39,1.29-2.84,3.27-5.03,5.95-6.58,2.68-1.55,5.79-2.32,9.34-2.32s6.57.76,9.25,2.27c2.68,1.52,4.7,3.7,6.05,6.54,1.42,2.71,2.13,5.87,2.13,9.49,0,3.36-.65,6.39-1.94,9.1-1.16,2.39-2.81,4.26-4.94,5.62-.39.26-.39.48,0,.68ZM-124.16-183.8c-.45,1.16-.68,2.65-.68,4.45,0,1.94.32,3.78.97,5.52.45,1.36,1.13,2.42,2.03,3.19.9.77,1.97,1.16,3.19,1.16,1.36,0,2.5-.4,3.44-1.21.93-.81,1.63-1.95,2.08-3.44.52-1.55.77-3.29.77-5.23,0-2.19-.32-3.97-.97-5.32-.45-1.36-1.13-2.4-2.03-3.15-.9-.74-2-1.11-3.29-1.11-1.16,0-2.18.34-3.05,1.02-.87.68-1.53,1.6-1.98,2.76l-.48,1.35ZM-112.35-149.63c0-2.45-.29-4.55-.87-6.29-.39-1.55-1.05-2.76-1.98-3.63-.94-.87-2.08-1.31-3.44-1.31s-2.5.45-3.44,1.36c-.94.91-1.6,2.2-1.98,3.87-.52,1.68-.77,3.62-.77,5.81,0,2,.19,3.84.58,5.52.32,1.81.98,3.21,1.98,4.21,1,1,2.21,1.5,3.63,1.5s2.74-.52,3.78-1.55c1.03-1.03,1.71-2.48,2.03-4.36.32-1.74.48-3.45.48-5.13Z"/>
    <path class="st17" d="M-58.72-150.59c0,1.49-.06,3.58-.19,6.29-.32,4.91-2.02,8.7-5.08,11.38-3.07,2.68-7.12,4.02-12.15,4.02s-8.65-1.24-11.62-3.73c-2.97-2.48-4.74-6.15-5.32-10.99-.39-1.74-.58-3.78-.58-6.1l-.1-31.46c0-5.23,1.6-9.37,4.79-12.44,3.19-3.06,7.41-4.6,12.63-4.6,4.9,0,8.91,1.55,12,4.65,3.1,3.1,4.65,7.23,4.65,12.39v2.42c0,.32-.11.6-.34.82s-.5.34-.82.34h-8.91c-.32,0-.6-.11-.82-.34-.23-.23-.34-.5-.34-.82v-1.84c0-2.19-.53-4.02-1.6-5.47s-2.34-2.18-3.82-2.18c-1.81,0-3.28.71-4.4,2.13-1.13,1.42-1.69,3.26-1.69,5.52v9.97c0,.19.06.32.19.39.13.06.26.03.39-.1,1.87-1.74,4.19-2.61,6.97-2.61,4.45,0,8.07,1.42,10.84,4.26,2.77,2.84,4.39,6.62,4.84,11.33.32,2.13.48,4.39.48,6.78ZM-70.05-151.37c0-1.68-.16-3.97-.48-6.87-.77-3.74-2.68-5.62-5.71-5.62-1.55,0-2.82.5-3.82,1.5-1,1-1.66,2.47-1.98,4.4-.26,2.26-.39,4.45-.39,6.58,0,1.87.1,4.03.29,6.49.32,2.07.98,3.65,1.98,4.74,1,1.1,2.31,1.65,3.92,1.65s2.92-.58,3.92-1.74c1-1.16,1.66-2.81,1.98-4.94.19-2.32.29-4.39.29-6.2Z"/>
    <path class="st17" d="M-47.39-133.8c-3.29-3.45-4.94-7.99-4.94-13.6v-32.33c0-5.62,1.65-10.15,4.94-13.6,3.29-3.45,7.65-5.18,13.07-5.18s9.89,1.73,13.21,5.18c3.32,3.45,4.99,7.99,4.99,13.6v32.33c0,5.62-1.66,10.15-4.99,13.6-3.32,3.45-7.73,5.18-13.21,5.18s-9.78-1.73-13.07-5.18ZM-29.24-140.67c1.26-1.52,1.89-3.53,1.89-6.05v-33.69c0-2.52-.63-4.53-1.89-6.05-1.26-1.52-2.95-2.27-5.08-2.27s-3.71.76-4.94,2.27c-1.23,1.52-1.84,3.53-1.84,6.05v33.69c0,2.52.61,4.54,1.84,6.05,1.23,1.52,2.87,2.28,4.94,2.28s3.82-.76,5.08-2.28Z"/>
    <path class="st17" d="M-3.83-133.8c-3.29-3.45-4.94-7.99-4.94-13.6v-32.33c0-5.62,1.65-10.15,4.94-13.6,3.29-3.45,7.65-5.18,13.07-5.18s9.89,1.73,13.21,5.18c3.32,3.45,4.99,7.99,4.99,13.6v32.33c0,5.62-1.66,10.15-4.99,13.6-3.32,3.45-7.73,5.18-13.21,5.18s-9.78-1.73-13.07-5.18ZM14.32-140.67c1.26-1.52,1.89-3.53,1.89-6.05v-33.69c0-2.52-.63-4.53-1.89-6.05-1.26-1.52-2.95-2.27-5.08-2.27s-3.71.76-4.94,2.27c-1.23,1.52-1.84,3.53-1.84,6.05v33.69c0,2.52.61,4.54,1.84,6.05,1.23,1.52,2.87,2.28,4.94,2.28s3.82-.76,5.08-2.28Z"/>
    <path class="st17" d="M39.83-130.94l15.97-56.25c.13-.39,0-.58-.39-.58h-13.07c-.32,0-.48.16-.48.48v3.48c0,.32-.11.6-.34.82-.23.23-.5.34-.82.34h-6.87c-.32,0-.6-.11-.82-.34-.23-.23-.34-.5-.34-.82l.1-12.49c0-.32.11-.6.34-.82.22-.23.5-.34.82-.34h32.82c.32,0,.6.11.82.34.22.23.34.5.34.82v7.84c0,.26-.06.71-.19,1.36l-16.17,56.44c-.19.65-.64.97-1.35.97h-9.39c-.84,0-1.16-.42-.97-1.26Z"/>
    <path class="st17" d="M100.53-130.75l-1.84-10.17c0-.32-.19-.48-.58-.48h-14.13c-.39,0-.58.16-.58.48l-1.84,10.17c-.06.71-.48,1.06-1.26,1.06h-8.81c-.9,0-1.26-.42-1.06-1.26l14.33-65.44c.13-.71.55-1.06,1.26-1.06h10.26c.71,0,1.13.36,1.26,1.06l14.33,65.44v.39c0,.58-.36.87-1.07.87h-9c-.78,0-1.2-.35-1.26-1.06ZM85.62-150.21h10.75c.39,0,.55-.16.48-.48l-5.62-30.59c-.07-.19-.16-.29-.29-.29s-.23.1-.29.29l-5.52,30.59c-.06.32.1.48.48.48Z"/>
    <path class="st17" d="M123.04-134.28c-3.32-3.58-4.99-8.31-4.99-14.18v-47.83c0-.32.11-.6.34-.82.23-.23.5-.34.82-.34h8.91c.32,0,.6.11.82.34.23.23.34.5.34.82v48.99c0,2.58.64,4.68,1.94,6.29,1.29,1.61,3,2.42,5.13,2.42s3.84-.81,5.13-2.42c1.29-1.61,1.94-3.71,1.94-6.29v-48.99c0-.32.11-.6.34-.82.23-.23.5-.34.82-.34h8.91c.32,0,.6.11.82.34.23.23.34.5.34.82v47.83c0,5.87-1.68,10.6-5.03,14.18-3.36,3.58-7.78,5.37-13.26,5.37s-9.99-1.79-13.31-5.37Z"/>
    <path class="st17" d="M200.29-197.11c.23.23.34.5.34.82v7.36c0,.32-.11.6-.34.82-.23.23-.5.34-.82.34h-12.29c-.32,0-.48.16-.48.48v56.44c0,.32-.11.6-.34.82s-.5.34-.82.34h-8.91c-.32,0-.6-.11-.82-.34-.23-.23-.34-.5-.34-.82v-56.44c0-.32-.16-.48-.48-.48h-11.62c-.32,0-.6-.11-.82-.34-.23-.23-.34-.5-.34-.82v-7.36c0-.32.11-.6.34-.82.23-.23.5-.34.82-.34h36.11c.32,0,.6.11.82.34Z"/>
    <path class="st17" d="M210.07-133.94c-3.39-3.36-5.08-7.81-5.08-13.36v-32.53c0-5.55,1.69-10,5.08-13.36,3.39-3.35,7.86-5.03,13.41-5.03s10.04,1.68,13.46,5.03c3.42,3.36,5.13,7.81,5.13,13.36v32.53c0,5.55-1.71,10-5.13,13.36-3.42,3.36-7.91,5.03-13.46,5.03s-10.02-1.68-13.41-5.03ZM228.81-140.87c1.36-1.52,2.03-3.5,2.03-5.95v-33.5c0-2.45-.68-4.44-2.03-5.95-1.36-1.52-3.13-2.27-5.33-2.27s-3.95.76-5.28,2.27c-1.32,1.52-1.99,3.5-1.99,5.95v33.5c0,2.45.66,4.44,1.99,5.95,1.32,1.52,3.08,2.28,5.28,2.28s3.97-.76,5.33-2.28Z"/>
  </g>
  <g>
    <path class="st44" d="M-105.35-162.84c2.13,1.23,3.74,3.1,4.84,5.62,1.36,3.03,2.03,6.45,2.03,10.26,0,3.42-.52,6.42-1.55,9-1.29,3.48-3.31,6.21-6.05,8.18-2.74,1.97-6.02,2.95-9.83,2.95s-6.99-.97-9.73-2.9c-2.74-1.94-4.76-4.65-6.05-8.13-.97-2.71-1.45-5.74-1.45-9.1,0-3.81.58-7.07,1.74-9.78.97-2.58,2.68-4.58,5.13-6,.26-.19.26-.39,0-.58-2.13-1.36-3.78-3.23-4.94-5.62-1.29-2.77-1.94-5.87-1.94-9.29,0-3.74.64-6.87,1.94-9.39,1.29-2.84,3.27-5.03,5.95-6.58,2.68-1.55,5.79-2.32,9.34-2.32s6.57.76,9.25,2.27c2.68,1.52,4.7,3.7,6.05,6.54,1.42,2.71,2.13,5.87,2.13,9.49,0,3.36-.65,6.39-1.94,9.1-1.16,2.39-2.81,4.26-4.94,5.62-.39.26-.39.48,0,.68ZM-121.42-181.72c-.45,1.16-.68,2.65-.68,4.45,0,1.94.32,3.78.97,5.52.45,1.36,1.13,2.42,2.03,3.19.9.77,1.97,1.16,3.19,1.16,1.36,0,2.5-.4,3.44-1.21.93-.81,1.63-1.95,2.08-3.44.52-1.55.77-3.29.77-5.23,0-2.19-.32-3.97-.97-5.32-.45-1.36-1.13-2.4-2.03-3.15-.9-.74-2-1.11-3.29-1.11-1.16,0-2.18.34-3.05,1.02-.87.68-1.53,1.6-1.98,2.76l-.48,1.35ZM-109.61-147.55c0-2.45-.29-4.55-.87-6.29-.39-1.55-1.05-2.76-1.98-3.63-.94-.87-2.08-1.31-3.44-1.31s-2.5.45-3.44,1.36c-.94.91-1.6,2.2-1.98,3.87-.52,1.68-.77,3.62-.77,5.81,0,2,.19,3.84.58,5.52.32,1.81.98,3.21,1.98,4.21,1,1,2.21,1.5,3.63,1.5s2.74-.52,3.78-1.55c1.03-1.03,1.71-2.48,2.03-4.36.32-1.74.48-3.45.48-5.13Z"/>
    <path class="st44" d="M-55.97-148.51c0,1.49-.06,3.58-.19,6.29-.32,4.91-2.02,8.7-5.08,11.38-3.07,2.68-7.12,4.02-12.15,4.02s-8.65-1.24-11.62-3.73c-2.97-2.48-4.74-6.15-5.32-10.99-.39-1.74-.58-3.78-.58-6.1l-.1-31.46c0-5.23,1.6-9.37,4.79-12.44,3.19-3.06,7.41-4.6,12.63-4.6,4.9,0,8.91,1.55,12,4.65,3.1,3.1,4.65,7.23,4.65,12.39v2.42c0,.32-.11.6-.34.82s-.5.34-.82.34h-8.91c-.32,0-.6-.11-.82-.34-.23-.23-.34-.5-.34-.82v-1.84c0-2.19-.53-4.02-1.6-5.47s-2.34-2.18-3.82-2.18c-1.81,0-3.28.71-4.4,2.13-1.13,1.42-1.69,3.26-1.69,5.52v9.97c0,.19.06.32.19.39.13.06.26.03.39-.1,1.87-1.74,4.19-2.61,6.97-2.61,4.45,0,8.07,1.42,10.84,4.26,2.77,2.84,4.39,6.62,4.84,11.33.32,2.13.48,4.39.48,6.78ZM-67.3-149.29c0-1.68-.16-3.97-.48-6.87-.77-3.74-2.68-5.62-5.71-5.62-1.55,0-2.82.5-3.82,1.5-1,1-1.66,2.47-1.98,4.4-.26,2.26-.39,4.45-.39,6.58,0,1.87.1,4.03.29,6.49.32,2.07.98,3.65,1.98,4.74,1,1.1,2.31,1.65,3.92,1.65s2.92-.58,3.92-1.74c1-1.16,1.66-2.81,1.98-4.94.19-2.32.29-4.39.29-6.2Z"/>
    <path class="st44" d="M-44.65-131.72c-3.29-3.45-4.94-7.99-4.94-13.6v-32.33c0-5.62,1.65-10.15,4.94-13.6,3.29-3.45,7.65-5.18,13.07-5.18s9.89,1.73,13.21,5.18c3.32,3.45,4.99,7.99,4.99,13.6v32.33c0,5.62-1.66,10.15-4.99,13.6-3.32,3.45-7.73,5.18-13.21,5.18s-9.78-1.73-13.07-5.18ZM-26.5-138.59c1.26-1.52,1.89-3.53,1.89-6.05v-33.69c0-2.52-.63-4.53-1.89-6.05-1.26-1.52-2.95-2.27-5.08-2.27s-3.71.76-4.94,2.27c-1.23,1.52-1.84,3.53-1.84,6.05v33.69c0,2.52.61,4.54,1.84,6.05,1.23,1.52,2.87,2.28,4.94,2.28s3.82-.76,5.08-2.28Z"/>
    <path class="st44" d="M-1.08-131.72c-3.29-3.45-4.94-7.99-4.94-13.6v-32.33c0-5.62,1.65-10.15,4.94-13.6,3.29-3.45,7.65-5.18,13.07-5.18s9.89,1.73,13.21,5.18c3.32,3.45,4.99,7.99,4.99,13.6v32.33c0,5.62-1.66,10.15-4.99,13.6-3.32,3.45-7.73,5.18-13.21,5.18s-9.78-1.73-13.07-5.18ZM17.07-138.59c1.26-1.52,1.89-3.53,1.89-6.05v-33.69c0-2.52-.63-4.53-1.89-6.05-1.26-1.52-2.95-2.27-5.08-2.27s-3.71.76-4.94,2.27c-1.23,1.52-1.84,3.53-1.84,6.05v33.69c0,2.52.61,4.54,1.84,6.05,1.23,1.52,2.87,2.28,4.94,2.28s3.82-.76,5.08-2.28Z"/>
    <path class="st44" d="M42.58-128.86l15.97-56.25c.13-.39,0-.58-.39-.58h-13.07c-.32,0-.48.16-.48.48v3.48c0,.32-.11.6-.34.82-.23.23-.5.34-.82.34h-6.87c-.32,0-.6-.11-.82-.34-.23-.23-.34-.5-.34-.82l.1-12.49c0-.32.11-.6.34-.82.22-.23.5-.34.82-.34h32.82c.32,0,.6.11.82.34.22.23.34.5.34.82v7.84c0,.26-.06.71-.19,1.36l-16.17,56.44c-.19.65-.64.97-1.35.97h-9.39c-.84,0-1.16-.42-.97-1.26Z"/>
    <path class="st44" d="M103.28-128.67l-1.84-10.17c0-.32-.19-.48-.58-.48h-14.13c-.39,0-.58.16-.58.48l-1.84,10.17c-.06.71-.48,1.06-1.26,1.06h-8.81c-.9,0-1.26-.42-1.06-1.26l14.33-65.44c.13-.71.55-1.06,1.26-1.06h10.26c.71,0,1.13.36,1.26,1.06l14.33,65.44v.39c0,.58-.36.87-1.07.87h-9c-.78,0-1.2-.35-1.26-1.06ZM88.37-148.13h10.75c.39,0,.55-.16.48-.48l-5.62-30.59c-.07-.19-.16-.29-.29-.29s-.23.1-.29.29l-5.52,30.59c-.06.32.1.48.48.48Z"/>
    <path class="st44" d="M125.79-132.2c-3.32-3.58-4.99-8.31-4.99-14.18v-47.83c0-.32.11-.6.34-.82.23-.23.5-.34.82-.34h8.91c.32,0,.6.11.82.34.23.23.34.5.34.82v48.99c0,2.58.64,4.68,1.94,6.29,1.29,1.61,3,2.42,5.13,2.42s3.84-.81,5.13-2.42c1.29-1.61,1.94-3.71,1.94-6.29v-48.99c0-.32.11-.6.34-.82.23-.23.5-.34.82-.34h8.91c.32,0,.6.11.82.34.23.23.34.5.34.82v47.83c0,5.87-1.68,10.6-5.03,14.18-3.36,3.58-7.78,5.37-13.26,5.37s-9.99-1.79-13.31-5.37Z"/>
    <path class="st44" d="M203.04-195.03c.23.23.34.5.34.82v7.36c0,.32-.11.6-.34.82-.23.23-.5.34-.82.34h-12.29c-.32,0-.48.16-.48.48v56.44c0,.32-.11.6-.34.82s-.5.34-.82.34h-8.91c-.32,0-.6-.11-.82-.34-.23-.23-.34-.5-.34-.82v-56.44c0-.32-.16-.48-.48-.48h-11.62c-.32,0-.6-.11-.82-.34-.23-.23-.34-.5-.34-.82v-7.36c0-.32.11-.6.34-.82.23-.23.5-.34.82-.34h36.11c.32,0,.6.11.82.34Z"/>
    <path class="st44" d="M212.82-131.86c-3.39-3.36-5.08-7.81-5.08-13.36v-32.53c0-5.55,1.69-10,5.08-13.36,3.39-3.35,7.86-5.03,13.41-5.03s10.04,1.68,13.46,5.03c3.42,3.36,5.13,7.81,5.13,13.36v32.53c0,5.55-1.71,10-5.13,13.36-3.42,3.36-7.91,5.03-13.46,5.03s-10.02-1.68-13.41-5.03ZM231.55-138.78c1.36-1.52,2.03-3.5,2.03-5.95v-33.5c0-2.45-.68-4.44-2.03-5.95-1.36-1.52-3.13-2.27-5.33-2.27s-3.95.76-5.28,2.27c-1.32,1.52-1.99,3.5-1.99,5.95v33.5c0,2.45.66,4.44,1.99,5.95,1.32,1.52,3.08,2.28,5.28,2.28s3.97-.76,5.33-2.28Z"/>
  </g>
  <g>
    <path d="M-106.88-164.04c2.13,1.23,3.74,3.1,4.84,5.62,1.36,3.03,2.03,6.45,2.03,10.26,0,3.42-.52,6.42-1.55,9-1.29,3.48-3.31,6.21-6.05,8.18-2.74,1.97-6.02,2.95-9.83,2.95s-6.99-.97-9.73-2.9c-2.74-1.94-4.76-4.65-6.05-8.13-.97-2.71-1.45-5.74-1.45-9.1,0-3.81.58-7.07,1.74-9.78.97-2.58,2.68-4.58,5.13-6,.26-.19.26-.39,0-.58-2.13-1.36-3.78-3.23-4.94-5.62-1.29-2.77-1.94-5.87-1.94-9.29,0-3.74.64-6.87,1.94-9.39,1.29-2.84,3.27-5.03,5.95-6.58,2.68-1.55,5.79-2.32,9.34-2.32s6.57.76,9.25,2.27c2.68,1.52,4.7,3.7,6.05,6.54,1.42,2.71,2.13,5.87,2.13,9.49,0,3.36-.65,6.39-1.94,9.1-1.16,2.39-2.81,4.26-4.94,5.62-.39.26-.39.48,0,.68ZM-122.95-182.91c-.45,1.16-.68,2.65-.68,4.45,0,1.94.32,3.78.97,5.52.45,1.36,1.13,2.42,2.03,3.19.9.77,1.97,1.16,3.19,1.16,1.36,0,2.5-.4,3.44-1.21.93-.81,1.63-1.95,2.08-3.44.52-1.55.77-3.29.77-5.23,0-2.19-.32-3.97-.97-5.32-.45-1.36-1.13-2.4-2.03-3.15-.9-.74-2-1.11-3.29-1.11-1.16,0-2.18.34-3.05,1.02-.87.68-1.53,1.6-1.98,2.76l-.48,1.35ZM-111.14-148.74c0-2.45-.29-4.55-.87-6.29-.39-1.55-1.05-2.76-1.98-3.63-.94-.87-2.08-1.31-3.44-1.31s-2.5.45-3.44,1.36c-.94.91-1.6,2.2-1.98,3.87-.52,1.68-.77,3.62-.77,5.81,0,2,.19,3.84.58,5.52.32,1.81.98,3.21,1.98,4.21,1,1,2.21,1.5,3.63,1.5s2.74-.52,3.78-1.55c1.03-1.03,1.71-2.48,2.03-4.36.32-1.74.48-3.45.48-5.13Z"/>
    <path d="M-57.51-149.71c0,1.49-.06,3.58-.19,6.29-.32,4.91-2.02,8.7-5.08,11.38-3.07,2.68-7.12,4.02-12.15,4.02s-8.65-1.24-11.62-3.73c-2.97-2.48-4.74-6.15-5.32-10.99-.39-1.74-.58-3.78-.58-6.1l-.1-31.46c0-5.23,1.6-9.37,4.79-12.44,3.19-3.06,7.41-4.6,12.63-4.6,4.9,0,8.91,1.55,12,4.65,3.1,3.1,4.65,7.23,4.65,12.39v2.42c0,.32-.11.6-.34.82s-.5.34-.82.34h-8.91c-.32,0-.6-.11-.82-.34-.23-.23-.34-.5-.34-.82v-1.84c0-2.19-.53-4.02-1.6-5.47s-2.34-2.18-3.82-2.18c-1.81,0-3.28.71-4.4,2.13-1.13,1.42-1.69,3.26-1.69,5.52v9.97c0,.19.06.32.19.39.13.06.26.03.39-.1,1.87-1.74,4.19-2.61,6.97-2.61,4.45,0,8.07,1.42,10.84,4.26,2.77,2.84,4.39,6.62,4.84,11.33.32,2.13.48,4.39.48,6.78ZM-68.83-150.48c0-1.68-.16-3.97-.48-6.87-.77-3.74-2.68-5.62-5.71-5.62-1.55,0-2.82.5-3.82,1.5-1,1-1.66,2.47-1.98,4.4-.26,2.26-.39,4.45-.39,6.58,0,1.87.1,4.03.29,6.49.32,2.07.98,3.65,1.98,4.74,1,1.1,2.31,1.65,3.92,1.65s2.92-.58,3.92-1.74c1-1.16,1.66-2.81,1.98-4.94.19-2.32.29-4.39.29-6.2Z"/>
    <path d="M-46.18-132.91c-3.29-3.45-4.94-7.99-4.94-13.6v-32.33c0-5.62,1.65-10.15,4.94-13.6,3.29-3.45,7.65-5.18,13.07-5.18s9.89,1.73,13.21,5.18c3.32,3.45,4.99,7.99,4.99,13.6v32.33c0,5.62-1.66,10.15-4.99,13.6-3.32,3.45-7.73,5.18-13.21,5.18s-9.78-1.73-13.07-5.18ZM-28.03-139.78c1.26-1.52,1.89-3.53,1.89-6.05v-33.69c0-2.52-.63-4.53-1.89-6.05-1.26-1.52-2.95-2.27-5.08-2.27s-3.71.76-4.94,2.27c-1.23,1.52-1.84,3.53-1.84,6.05v33.69c0,2.52.61,4.54,1.84,6.05,1.23,1.52,2.87,2.28,4.94,2.28s3.82-.76,5.08-2.28Z"/>
    <path d="M-2.62-132.91c-3.29-3.45-4.94-7.99-4.94-13.6v-32.33c0-5.62,1.65-10.15,4.94-13.6,3.29-3.45,7.65-5.18,13.07-5.18s9.89,1.73,13.21,5.18c3.32,3.45,4.99,7.99,4.99,13.6v32.33c0,5.62-1.66,10.15-4.99,13.6-3.32,3.45-7.73,5.18-13.21,5.18s-9.78-1.73-13.07-5.18ZM15.54-139.78c1.26-1.52,1.89-3.53,1.89-6.05v-33.69c0-2.52-.63-4.53-1.89-6.05-1.26-1.52-2.95-2.27-5.08-2.27s-3.71.76-4.94,2.27c-1.23,1.52-1.84,3.53-1.84,6.05v33.69c0,2.52.61,4.54,1.84,6.05,1.23,1.52,2.87,2.28,4.94,2.28s3.82-.76,5.08-2.28Z"/>
    <path d="M41.05-130.06l15.97-56.25c.13-.39,0-.58-.39-.58h-13.07c-.32,0-.48.16-.48.48v3.48c0,.32-.11.6-.34.82-.23.23-.5.34-.82.34h-6.87c-.32,0-.6-.11-.82-.34-.23-.23-.34-.5-.34-.82l.1-12.49c0-.32.11-.6.34-.82.22-.23.5-.34.82-.34h32.82c.32,0,.6.11.82.34.22.23.34.5.34.82v7.84c0,.26-.06.71-.19,1.36l-16.17,56.44c-.19.65-.64.97-1.35.97h-9.39c-.84,0-1.16-.42-.97-1.26Z"/>
    <path d="M101.75-129.86l-1.84-10.17c0-.32-.19-.48-.58-.48h-14.13c-.39,0-.58.16-.58.48l-1.84,10.17c-.06.71-.48,1.06-1.26,1.06h-8.81c-.9,0-1.26-.42-1.06-1.26l14.33-65.44c.13-.71.55-1.06,1.26-1.06h10.26c.71,0,1.13.36,1.26,1.06l14.33,65.44v.39c0,.58-.36.87-1.07.87h-9c-.78,0-1.2-.35-1.26-1.06ZM86.84-149.32h10.75c.39,0,.55-.16.48-.48l-5.62-30.59c-.07-.19-.16-.29-.29-.29s-.23.1-.29.29l-5.52,30.59c-.06.32.1.48.48.48Z"/>
    <path d="M124.25-133.4c-3.32-3.58-4.99-8.31-4.99-14.18v-47.83c0-.32.11-.6.34-.82.23-.23.5-.34.82-.34h8.91c.32,0,.6.11.82.34.23.23.34.5.34.82v48.99c0,2.58.64,4.68,1.94,6.29,1.29,1.61,3,2.42,5.13,2.42s3.84-.81,5.13-2.42c1.29-1.61,1.94-3.71,1.94-6.29v-48.99c0-.32.11-.6.34-.82.23-.23.5-.34.82-.34h8.91c.32,0,.6.11.82.34.23.23.34.5.34.82v47.83c0,5.87-1.68,10.6-5.03,14.18-3.36,3.58-7.78,5.37-13.26,5.37s-9.99-1.79-13.31-5.37Z"/>
    <path d="M201.51-196.23c.23.23.34.5.34.82v7.36c0,.32-.11.6-.34.82-.23.23-.5.34-.82.34h-12.29c-.32,0-.48.16-.48.48v56.44c0,.32-.11.6-.34.82s-.5.34-.82.34h-8.91c-.32,0-.6-.11-.82-.34-.23-.23-.34-.5-.34-.82v-56.44c0-.32-.16-.48-.48-.48h-11.62c-.32,0-.6-.11-.82-.34-.23-.23-.34-.5-.34-.82v-7.36c0-.32.11-.6.34-.82.23-.23.5-.34.82-.34h36.11c.32,0,.6.11.82.34Z"/>
    <path d="M211.29-133.06c-3.39-3.36-5.08-7.81-5.08-13.36v-32.53c0-5.55,1.69-10,5.08-13.36,3.39-3.35,7.86-5.03,13.41-5.03s10.04,1.68,13.46,5.03c3.42,3.36,5.13,7.81,5.13,13.36v32.53c0,5.55-1.71,10-5.13,13.36-3.42,3.36-7.91,5.03-13.46,5.03s-10.02-1.68-13.41-5.03ZM230.02-139.98c1.36-1.52,2.03-3.5,2.03-5.95v-33.5c0-2.45-.68-4.44-2.03-5.95-1.36-1.52-3.13-2.27-5.33-2.27s-3.95.76-5.28,2.27c-1.32,1.52-1.99,3.5-1.99,5.95v33.5c0,2.45.66,4.44,1.99,5.95,1.32,1.52,3.08,2.28,5.28,2.28s3.97-.76,5.33-2.28Z"/>
  </g>
  <g>
    <path class="st4" d="M-117.43-197.73c3.49,0,6.57.76,9.25,2.27,2.68,1.52,4.7,3.7,6.05,6.54,1.42,2.71,2.13,5.87,2.13,9.49,0,3.36-.65,6.39-1.94,9.1-1.16,2.39-2.81,4.26-4.94,5.62-.39.26-.39.48,0,.68,2.13,1.23,3.74,3.1,4.84,5.62,1.36,3.03,2.03,6.45,2.03,10.26,0,3.42-.52,6.42-1.55,9-1.29,3.48-3.31,6.21-6.05,8.18-2.74,1.97-6.02,2.95-9.83,2.95s-6.99-.97-9.73-2.9c-2.74-1.94-4.76-4.65-6.05-8.13-.97-2.71-1.45-5.74-1.45-9.1,0-3.81.58-7.07,1.74-9.78.97-2.58,2.68-4.58,5.13-6,.26-.19.26-.39,0-.58-2.13-1.36-3.78-3.23-4.94-5.62-1.29-2.77-1.94-5.87-1.94-9.29,0-3.74.64-6.87,1.94-9.39,1.29-2.84,3.27-5.03,5.95-6.58,2.68-1.55,5.79-2.32,9.34-2.32M-117.43-168.59c1.36,0,2.5-.4,3.44-1.21.93-.81,1.63-1.95,2.08-3.44.52-1.55.77-3.29.77-5.23,0-2.19-.32-3.97-.97-5.32-.45-1.36-1.13-2.4-2.03-3.15-.9-.74-2-1.11-3.29-1.11-1.16,0-2.18.34-3.05,1.02-.87.68-1.53,1.6-1.98,2.76l-.48,1.35c-.45,1.16-.68,2.65-.68,4.45,0,1.94.32,3.78.97,5.52.45,1.36,1.13,2.42,2.03,3.19.9.77,1.97,1.16,3.19,1.16M-117.43-137.7c1.48,0,2.74-.52,3.78-1.55,1.03-1.03,1.71-2.48,2.03-4.36.32-1.74.48-3.45.48-5.13,0-2.45-.29-4.55-.87-6.29-.39-1.55-1.05-2.76-1.98-3.63-.94-.87-2.08-1.31-3.44-1.31s-2.5.45-3.44,1.36c-.94.91-1.6,2.2-1.98,3.87-.52,1.68-.77,3.62-.77,5.81,0,2,.19,3.84.58,5.52.32,1.81.98,3.21,1.98,4.21,1,1,2.21,1.5,3.63,1.5M-117.43-198.29c-3.64,0-6.87.81-9.63,2.4-2.77,1.6-4.85,3.9-6.19,6.84-1.31,2.56-1.99,5.81-1.99,9.63,0,3.49.67,6.7,1.99,9.53,1.15,2.37,2.78,4.27,4.84,5.66-2.37,1.45-4.08,3.51-5.05,6.1-1.18,2.75-1.78,6.11-1.78,9.98,0,3.4.5,6.53,1.49,9.29,1.33,3.58,3.43,6.41,6.26,8.4,2.83,2,6.21,3.01,10.06,3.01s7.33-1.03,10.16-3.06c2.82-2.03,4.93-4.87,6.25-8.44,1.05-2.63,1.58-5.73,1.58-9.2,0-3.87-.7-7.4-2.08-10.49-1.1-2.52-2.72-4.45-4.83-5.73,2.1-1.39,3.75-3.31,4.92-5.7,1.32-2.78,1.99-5.92,1.99-9.35,0-3.69-.74-6.97-2.19-9.75-1.39-2.91-3.5-5.2-6.27-6.77-2.76-1.56-5.96-2.35-9.53-2.35h0ZM-117.43-169.15c-1.1,0-2.02-.34-2.83-1.03-.82-.7-1.45-1.69-1.86-2.94-.63-1.69-.94-3.48-.94-5.34,0-1.73.22-3.16.64-4.25l.49-1.37c.41-1.04,1.01-1.89,1.8-2.5.78-.6,1.66-.9,2.7-.9,1.16,0,2.12.32,2.93.98.81.67,1.44,1.64,1.85,2.89v.03s.03.03.03.03c.61,1.27.91,2.98.91,5.08,0,1.86-.25,3.56-.75,5.05-.42,1.39-1.07,2.45-1.91,3.19-.84.72-1.84,1.07-3.07,1.07h0ZM-117.43-138.27c-1.28,0-2.33-.44-3.23-1.33-.91-.91-1.53-2.23-1.83-3.91-.38-1.66-.57-3.47-.57-5.42,0-2.13.25-4.03.75-5.64.37-1.6.99-2.81,1.84-3.63.83-.8,1.83-1.2,3.04-1.2s2.22.38,3.05,1.16c.85.79,1.46,1.92,1.82,3.35.57,1.72.85,3.78.85,6.16,0,1.63-.16,3.32-.47,5.03-.3,1.75-.93,3.12-1.88,4.06-.93.93-2.04,1.38-3.38,1.38h0Z"/>
    <path class="st4" d="M-75.13-197.34c4.9,0,8.91,1.55,12,4.65,3.1,3.1,4.65,7.23,4.65,12.39v2.42c0,.32-.11.6-.34.82-.23.23-.5.34-.82.34h-8.91c-.32,0-.6-.11-.82-.34-.23-.23-.34-.5-.34-.82v-1.84c0-2.19-.53-4.02-1.6-5.47-1.06-1.45-2.34-2.18-3.82-2.18-1.81,0-3.28.71-4.4,2.13-1.13,1.42-1.69,3.26-1.69,5.52v9.97c0,.19.06.32.19.39.04.02.09.03.13.03.09,0,.17-.04.26-.13,1.87-1.74,4.19-2.61,6.97-2.61,4.45,0,8.07,1.42,10.84,4.26,2.77,2.84,4.39,6.62,4.84,11.33.32,2.13.48,4.39.48,6.78,0,1.49-.06,3.58-.19,6.29-.32,4.91-2.02,8.7-5.08,11.38-3.07,2.68-7.12,4.02-12.15,4.02s-8.65-1.24-11.62-3.73c-2.97-2.48-4.74-6.15-5.32-10.99-.39-1.74-.58-3.78-.58-6.1l-.1-31.46c0-5.23,1.6-9.37,4.79-12.44,3.19-3.06,7.41-4.6,12.63-4.6M-75.03-137.61c1.61,0,2.92-.58,3.92-1.74,1-1.16,1.66-2.81,1.98-4.94.19-2.32.29-4.39.29-6.2,0-1.68-.16-3.97-.48-6.87-.77-3.74-2.68-5.62-5.71-5.62-1.55,0-2.82.5-3.82,1.5-1,1-1.66,2.47-1.98,4.4-.26,2.26-.39,4.45-.39,6.58,0,1.87.1,4.03.29,6.49.32,2.07.98,3.65,1.98,4.74,1,1.1,2.31,1.65,3.92,1.65M-75.13-197.91c-5.35,0-9.74,1.6-13.03,4.76-3.3,3.16-4.97,7.49-4.97,12.85l.1,31.47c0,2.34.2,4.42.59,6.19.6,4.95,2.46,8.76,5.52,11.33,3.06,2.56,7.09,3.86,11.98,3.86,5.15,0,9.36-1.4,12.52-4.16,3.17-2.77,4.94-6.73,5.28-11.76.13-2.77.19-4.83.19-6.33,0-2.4-.16-4.71-.49-6.86-.46-4.79-2.14-8.72-5-11.64-2.87-2.94-6.66-4.43-11.25-4.43-2.73,0-5.08.82-6.98,2.43v-9.52c0-2.12.53-3.85,1.57-5.17,1.03-1.29,2.32-1.92,3.96-1.92,1.31,0,2.41.64,3.37,1.95.99,1.35,1.49,3.07,1.49,5.13v1.84c0,.47.18.9.51,1.23.33.33.75.5,1.22.5h8.91c.47,0,.89-.17,1.22-.5.33-.33.5-.75.5-1.22v-2.42c0-5.3-1.62-9.6-4.81-12.79-3.19-3.19-7.37-4.81-12.41-4.81h0ZM-75.03-138.17c-1.46,0-2.61-.48-3.5-1.46-.92-1.01-1.54-2.5-1.84-4.45-.19-2.38-.28-4.55-.28-6.4,0-2.1.13-4.3.38-6.52.3-1.78.91-3.16,1.82-4.07.9-.9,2.02-1.34,3.42-1.34,2.74,0,4.43,1.68,5.15,5.14.32,2.86.48,5.15.48,6.78,0,1.78-.1,3.85-.29,6.15-.3,1.98-.93,3.54-1.85,4.61-.9,1.04-2.04,1.55-3.49,1.55h0Z"/>
    <path class="st4" d="M-33.11-197.63c5.49,0,9.89,1.73,13.21,5.18,3.32,3.45,4.99,7.99,4.99,13.6v32.33c0,5.62-1.66,10.15-4.99,13.6-3.32,3.45-7.73,5.18-13.21,5.18s-9.78-1.73-13.07-5.18c-3.29-3.45-4.94-7.99-4.94-13.6v-32.33c0-5.62,1.65-10.15,4.94-13.6,3.29-3.45,7.65-5.18,13.07-5.18M-33.11-137.51c2.13,0,3.82-.76,5.08-2.28,1.26-1.52,1.89-3.53,1.89-6.05v-33.69c0-2.52-.63-4.53-1.89-6.05-1.26-1.52-2.95-2.27-5.08-2.27s-3.71.76-4.94,2.27c-1.23,1.52-1.84,3.53-1.84,6.05v33.69c0,2.52.61,4.54,1.84,6.05,1.23,1.52,2.87,2.28,4.94,2.28M-33.11-198.2c-5.56,0-10.09,1.8-13.48,5.36-3.38,3.55-5.09,8.25-5.09,13.99v32.33c0,5.74,1.71,10.45,5.09,13.99,3.39,3.55,7.92,5.35,13.48,5.35s10.2-1.8,13.62-5.35c3.41-3.55,5.14-8.25,5.14-14v-32.33c0-5.74-1.73-10.45-5.14-14-3.42-3.55-8-5.35-13.62-5.35h0ZM-33.11-138.08c-1.9,0-3.37-.68-4.5-2.06-1.14-1.4-1.71-3.32-1.71-5.69v-33.69c0-2.37.58-4.29,1.71-5.69,1.12-1.39,2.59-2.06,4.5-2.06s3.49.68,4.65,2.07c1.17,1.41,1.76,3.32,1.76,5.69v33.69c0,2.37-.59,4.28-1.76,5.69-1.16,1.39-2.68,2.07-4.65,2.07h0Z"/>
    <path class="st4" d="M10.45-197.63c5.49,0,9.89,1.73,13.21,5.18,3.32,3.45,4.99,7.99,4.99,13.6v32.33c0,5.62-1.66,10.15-4.99,13.6-3.32,3.45-7.73,5.18-13.21,5.18s-9.78-1.73-13.07-5.18c-3.29-3.45-4.94-7.99-4.94-13.6v-32.33c0-5.62,1.65-10.15,4.94-13.6,3.29-3.45,7.65-5.18,13.07-5.18M10.45-137.51c2.13,0,3.82-.76,5.08-2.28,1.26-1.52,1.89-3.53,1.89-6.05v-33.69c0-2.52-.63-4.53-1.89-6.05-1.26-1.52-2.95-2.27-5.08-2.27s-3.71.76-4.94,2.27c-1.23,1.52-1.84,3.53-1.84,6.05v33.69c0,2.52.61,4.54,1.84,6.05,1.23,1.52,2.87,2.28,4.94,2.28M10.45-198.2c-5.56,0-10.09,1.8-13.48,5.36-3.38,3.55-5.09,8.25-5.09,13.99v32.33c0,5.74,1.71,10.45,5.09,13.99,3.39,3.55,7.92,5.35,13.48,5.35s10.2-1.8,13.62-5.35c3.41-3.55,5.14-8.25,5.14-14v-32.33c0-5.74-1.73-10.45-5.14-14-3.42-3.55-8-5.35-13.62-5.35h0ZM10.45-138.08c-1.9,0-3.37-.68-4.5-2.06-1.14-1.4-1.71-3.32-1.71-5.69v-33.69c0-2.37.58-4.29,1.71-5.69,1.12-1.39,2.59-2.06,4.5-2.06s3.49.68,4.65,2.07c1.17,1.41,1.76,3.32,1.76,5.69v33.69c0,2.37-.59,4.28-1.76,5.69-1.16,1.39-2.68,2.07-4.65,2.07h0Z"/>
    <path class="st4" d="M67.96-196.57c.32,0,.6.11.82.34.22.23.34.5.34.82v7.84c0,.26-.06.71-.19,1.36l-16.17,56.44c-.19.65-.64.97-1.35.97h-9.39c-.84,0-1.16-.42-.97-1.26l15.97-56.25c.13-.39,0-.58-.39-.58h-13.07c-.32,0-.48.16-.48.48v3.48c0,.32-.11.6-.34.82-.23.23-.5.34-.82.34h-6.87c-.32,0-.6-.11-.82-.34-.23-.23-.34-.5-.34-.82l.1-12.49c0-.32.11-.6.34-.82.22-.23.5-.34.82-.34h32.82M67.96-197.13h-32.82c-.47,0-.89.17-1.22.51-.33.33-.5.75-.5,1.22l-.1,12.48c0,.48.17.9.51,1.23.33.33.75.5,1.22.5h6.87c.47,0,.89-.17,1.22-.5.33-.33.51-.75.51-1.22v-3.4h12.79s-15.93,56.1-15.93,56.1c-.15.63-.07,1.11.21,1.46.27.34.71.52,1.31.52h9.39c.96,0,1.63-.49,1.9-1.37l16.17-56.45c.15-.73.22-1.21.22-1.51v-7.84c0-.47-.17-.89-.5-1.22-.34-.33-.76-.51-1.23-.51h0Z"/>
    <path class="st4" d="M97.49-196.57c.71,0,1.13.36,1.26,1.06l14.33,65.44v.39c0,.58-.36.87-1.07.87h-9c-.78,0-1.2-.35-1.26-1.06l-1.84-10.17c0-.32-.19-.48-.58-.48h-14.13c-.39,0-.58.16-.58.48l-1.84,10.17c-.06.71-.48,1.06-1.26,1.06h-8.81c-.9,0-1.26-.42-1.06-1.26l14.33-65.44c.13-.71.55-1.06,1.26-1.06h10.26M86.84-149.32h10.75c.39,0,.55-.16.48-.48l-5.62-30.59c-.07-.19-.16-.29-.29-.29s-.23.1-.29.29l-5.52,30.59c-.06.32.1.48.48.48M97.49-197.13h-10.26c-.98,0-1.64.56-1.82,1.53l-14.32,65.42c-.13.58-.06,1.05.22,1.4.29.36.76.54,1.4.54h8.81c1.06,0,1.72-.57,1.82-1.55l1.84-10.14v-.02s.02,0,.02,0h14.13s.01,0,.02,0v.02s1.84,10.14,1.84,10.14c.1.99.76,1.55,1.82,1.55h9c1.02,0,1.63-.54,1.63-1.44v-.51s-14.34-65.44-14.34-65.44c-.18-.95-.84-1.51-1.81-1.51h0ZM86.94-149.89l5.22-28.94,5.31,28.94h-10.53Z"/>
    <path class="st4" d="M154.7-196.57c.32,0,.6.11.82.34.23.23.34.5.34.82v47.83c0,5.87-1.68,10.6-5.03,14.18-3.36,3.58-7.78,5.37-13.26,5.37s-9.99-1.79-13.31-5.37c-3.32-3.58-4.99-8.31-4.99-14.18v-47.83c0-.32.11-.6.34-.82.23-.23.5-.34.82-.34h8.91c.32,0,.6.11.82.34.23.23.34.5.34.82v48.99c0,2.58.64,4.68,1.94,6.29,1.29,1.61,3,2.42,5.13,2.42s3.84-.81,5.13-2.42c1.29-1.61,1.94-3.71,1.94-6.29v-48.99c0-.32.11-.6.34-.82.23-.23.5-.34.82-.34h8.91M154.7-197.13h-8.91c-.47,0-.89.17-1.22.5-.33.33-.51.75-.51,1.22v48.99c0,2.44-.61,4.44-1.81,5.94-1.19,1.49-2.72,2.21-4.69,2.21s-3.5-.72-4.69-2.21c-1.2-1.5-1.81-3.5-1.81-5.94v-48.99c0-.47-.17-.89-.5-1.22-.33-.33-.76-.51-1.22-.51h-8.91c-.47,0-.89.17-1.22.5-.33.33-.51.75-.51,1.22v47.83c0,5.99,1.73,10.9,5.14,14.57,3.42,3.69,8.04,5.55,13.73,5.55s10.22-1.87,13.68-5.55c3.44-3.68,5.19-8.58,5.19-14.57v-47.83c0-.47-.17-.89-.5-1.22-.34-.33-.76-.51-1.23-.51h0Z"/>
    <path class="st4" d="M200.69-196.57c.32,0,.6.11.82.34.23.23.34.5.34.82v7.36c0,.32-.11.6-.34.82-.23.23-.5.34-.82.34h-12.29c-.32,0-.48.16-.48.48v56.44c0,.32-.11.6-.34.82-.23.23-.5.34-.82.34h-8.91c-.32,0-.6-.11-.82-.34-.23-.23-.34-.5-.34-.82v-56.44c0-.32-.16-.48-.48-.48h-11.62c-.32,0-.6-.11-.82-.34-.23-.23-.34-.5-.34-.82v-7.36c0-.32.11-.6.34-.82.23-.23.5-.34.82-.34h36.11M200.69-197.13h-36.11c-.47,0-.89.17-1.22.5-.33.33-.51.75-.51,1.22v7.36c0,.47.18.9.51,1.23.33.33.75.5,1.22.5h11.53v56.36c0,.47.18.9.51,1.22.33.33.75.5,1.22.5h8.91c.47,0,.89-.17,1.22-.5s.5-.75.5-1.22v-56.36h12.21c.47,0,.89-.18,1.22-.51.33-.33.5-.75.5-1.22v-7.36c0-.47-.17-.89-.5-1.22-.33-.33-.76-.51-1.22-.51h0Z"/>
    <path class="st4" d="M224.7-197.34c5.55,0,10.04,1.68,13.46,5.03,3.42,3.36,5.13,7.81,5.13,13.36v32.53c0,5.55-1.71,10-5.13,13.36-3.42,3.36-7.91,5.03-13.46,5.03s-10.02-1.68-13.41-5.03c-3.39-3.36-5.08-7.81-5.08-13.36v-32.53c0-5.55,1.69-10,5.08-13.36,3.39-3.35,7.86-5.03,13.41-5.03M224.7-137.7c2.19,0,3.97-.76,5.33-2.28,1.36-1.52,2.03-3.5,2.03-5.95v-33.5c0-2.45-.68-4.44-2.03-5.95-1.36-1.52-3.13-2.27-5.33-2.27s-3.95.76-5.28,2.27c-1.32,1.52-1.99,3.5-1.99,5.95v33.5c0,2.45.66,4.44,1.99,5.95,1.32,1.52,3.08,2.28,5.28,2.28M224.7-197.91c-5.68,0-10.32,1.75-13.81,5.2-3.48,3.45-5.25,8.08-5.25,13.76v32.53c0,5.68,1.77,10.31,5.25,13.76,3.48,3.45,8.13,5.2,13.81,5.2s10.34-1.75,13.85-5.2c3.52-3.45,5.3-8.08,5.3-13.77v-32.53c0-5.68-1.78-10.31-5.3-13.76-3.52-3.45-8.18-5.2-13.85-5.2h0ZM224.7-138.27c-2.04,0-3.63-.68-4.85-2.08-1.23-1.4-1.85-3.28-1.85-5.58v-33.5c0-2.3.62-4.18,1.85-5.58,1.22-1.4,2.81-2.08,4.85-2.08s3.65.68,4.9,2.09c1.25,1.4,1.89,3.28,1.89,5.58v33.5c0,2.3-.64,4.17-1.89,5.58-1.25,1.4-2.86,2.09-4.9,2.09h0Z"/>
  </g>
  <g>
    <path class="st21" d="M-56.16-221.57c-.87-.87-1.31-2.03-1.31-3.47v-8.66c0-1.46.44-2.61,1.31-3.47.87-.85,2.03-1.28,3.47-1.28s2.62.43,3.51,1.28c.88.86,1.32,2.01,1.32,3.47v.3c0,.08-.03.16-.09.23-.06.07-.13.1-.22.1l-2.36.1c-.2,0-.3-.1-.3-.3v-.63c0-.59-.17-1.08-.51-1.45-.34-.37-.79-.56-1.35-.56s-.98.19-1.32.56c-.34.37-.51.86-.51,1.45v9.09c0,.59.17,1.08.51,1.45.34.37.78.56,1.32.56s1.01-.19,1.35-.56c.34-.37.51-.85.51-1.45v-.64c0-.08.03-.16.09-.22.06-.06.13-.09.22-.09l2.36.1c.08,0,.16.03.22.09.06.06.09.13.09.22v.31c0,1.44-.44,2.59-1.32,3.47-.88.87-2.05,1.31-3.51,1.31s-2.6-.44-3.47-1.31Z"/>
    <path class="st21" d="M-39.03-238.16c.06-.06.13-.09.22-.09h2.34c.08,0,.16.03.22.09.06.06.09.13.09.22v17.17c0,.08-.03.16-.09.22-.06.06-.13.09-.22.09h-2.34c-.08,0-.16-.03-.22-.09-.06-.06-.09-.13-.09-.22v-7.19c0-.08-.04-.13-.13-.13h-3.23c-.08,0-.13.04-.13.13v7.19c0,.08-.03.16-.09.22s-.13.09-.22.09h-2.34c-.08,0-.16-.03-.22-.09-.06-.06-.09-.13-.09-.22v-17.17c0-.08.03-.16.09-.22.06-.06.13-.09.22-.09h2.34c.08,0,.16.03.22.09s.09.13.09.22v7.16c0,.08.04.13.13.13h3.23c.08,0,.13-.04.13-.13v-7.16c0-.08.03-.16.09-.22Z"/>
    <path class="st21" d="M-33.34-220.55c-.06-.06-.09-.13-.09-.22v-17.17c0-.08.03-.16.09-.22.06-.06.13-.09.22-.09h2.34c.08,0,.16.03.22.09s.09.13.09.22v17.17c0,.08-.03.16-.09.22s-.13.09-.22.09h-2.34c-.08,0-.16-.03-.22-.09Z"/>
    <path class="st21" d="M-20.44-238.16c.06-.06.13-.09.22-.09h2.31c.08,0,.16.03.22.09.06.06.09.13.09.22v17.17c0,.08-.03.16-.09.22-.06.06-.13.09-.22.09h-2.67c-.17,0-.28-.08-.33-.25l-3.79-10.77c-.02-.05-.05-.07-.09-.06-.04,0-.06.04-.06.09l.03,10.7c0,.08-.03.16-.09.22s-.13.09-.22.09h-2.31c-.08,0-.16-.03-.22-.09-.06-.06-.09-.13-.09-.22v-17.17c0-.08.03-.16.09-.22.06-.06.13-.09.22-.09h2.62c.17,0,.28.08.33.25l3.81,10.69c.02.05.05.07.09.06.04,0,.06-.04.06-.09v-10.62c0-.08.03-.16.09-.22Z"/>
    <path class="st21" d="M-7.98-220.74l-.48-2.67c0-.08-.05-.13-.15-.13h-3.71c-.1,0-.15.04-.15.13l-.48,2.67c-.02.19-.13.28-.33.28h-2.31c-.24,0-.33-.11-.28-.33l3.76-17.17c.03-.19.14-.28.33-.28h2.69c.19,0,.3.09.33.28l3.76,17.17v.1c0,.15-.09.23-.28.23h-2.36c-.2,0-.31-.09-.33-.28ZM-11.89-225.85h2.82c.1,0,.14-.04.13-.13l-1.47-8.03c-.02-.05-.04-.08-.08-.08s-.06.03-.08.08l-1.45,8.03c-.02.08.03.13.13.13Z"/>
  </g>
  <g>
    <path class="st17" d="M-56.64-221.69c-.87-.87-1.31-2.03-1.31-3.47v-8.66c0-1.46.44-2.61,1.31-3.47.87-.85,2.03-1.28,3.47-1.28s2.62.43,3.51,1.28c.88.86,1.32,2.01,1.32,3.47v.3c0,.08-.03.16-.09.23-.06.07-.13.1-.22.1l-2.36.1c-.2,0-.3-.1-.3-.3v-.63c0-.59-.17-1.08-.51-1.45-.34-.37-.79-.56-1.35-.56s-.98.19-1.32.56c-.34.37-.51.86-.51,1.45v9.09c0,.59.17,1.08.51,1.45.34.37.78.56,1.32.56s1.01-.19,1.35-.56c.34-.37.51-.85.51-1.45v-.64c0-.08.03-.16.09-.22.06-.06.13-.09.22-.09l2.36.1c.08,0,.16.03.22.09.06.06.09.13.09.22v.31c0,1.44-.44,2.59-1.32,3.47-.88.87-2.05,1.31-3.51,1.31s-2.6-.44-3.47-1.31Z"/>
    <path class="st17" d="M-39.52-238.27c.06-.06.13-.09.22-.09h2.34c.08,0,.16.03.22.09.06.06.09.13.09.22v17.17c0,.08-.03.16-.09.22-.06.06-.13.09-.22.09h-2.34c-.08,0-.16-.03-.22-.09-.06-.06-.09-.13-.09-.22v-7.19c0-.08-.04-.13-.13-.13h-3.23c-.08,0-.13.04-.13.13v7.19c0,.08-.03.16-.09.22s-.13.09-.22.09h-2.34c-.08,0-.16-.03-.22-.09-.06-.06-.09-.13-.09-.22v-17.17c0-.08.03-.16.09-.22.06-.06.13-.09.22-.09h2.34c.08,0,.16.03.22.09s.09.13.09.22v7.16c0,.08.04.13.13.13h3.23c.08,0,.13-.04.13-.13v-7.16c0-.08.03-.16.09-.22Z"/>
    <path class="st17" d="M-33.83-220.67c-.06-.06-.09-.13-.09-.22v-17.17c0-.08.03-.16.09-.22.06-.06.13-.09.22-.09h2.34c.08,0,.16.03.22.09s.09.13.09.22v17.17c0,.08-.03.16-.09.22s-.13.09-.22.09h-2.34c-.08,0-.16-.03-.22-.09Z"/>
    <path class="st17" d="M-20.92-238.27c.06-.06.13-.09.22-.09h2.31c.08,0,.16.03.22.09.06.06.09.13.09.22v17.17c0,.08-.03.16-.09.22-.06.06-.13.09-.22.09h-2.67c-.17,0-.28-.08-.33-.25l-3.79-10.77c-.02-.05-.05-.07-.09-.06-.04,0-.06.04-.06.09l.03,10.7c0,.08-.03.16-.09.22s-.13.09-.22.09h-2.31c-.08,0-.16-.03-.22-.09-.06-.06-.09-.13-.09-.22v-17.17c0-.08.03-.16.09-.22.06-.06.13-.09.22-.09h2.62c.17,0,.28.08.33.25l3.81,10.69c.02.05.05.07.09.06.04,0,.06-.04.06-.09v-10.62c0-.08.03-.16.09-.22Z"/>
    <path class="st17" d="M-8.46-220.86l-.48-2.67c0-.08-.05-.13-.15-.13h-3.71c-.1,0-.15.04-.15.13l-.48,2.67c-.02.19-.13.28-.33.28h-2.31c-.24,0-.33-.11-.28-.33l3.76-17.17c.03-.19.14-.28.33-.28h2.69c.19,0,.3.09.33.28l3.76,17.17v.1c0,.15-.09.23-.28.23h-2.36c-.2,0-.31-.09-.33-.28ZM-12.38-225.97h2.82c.1,0,.14-.04.13-.13l-1.47-8.03c-.02-.05-.04-.08-.08-.08s-.06.03-.08.08l-1.45,8.03c-.02.08.03.13.13.13Z"/>
  </g>
  <g>
    <path class="st44" d="M-55.81-221.14c-.87-.87-1.31-2.03-1.31-3.47v-8.66c0-1.46.44-2.61,1.31-3.47.87-.85,2.03-1.28,3.47-1.28s2.62.43,3.51,1.28c.88.86,1.32,2.01,1.32,3.47v.3c0,.08-.03.16-.09.23-.06.07-.13.1-.22.1l-2.36.1c-.2,0-.3-.1-.3-.3v-.63c0-.59-.17-1.08-.51-1.45-.34-.37-.79-.56-1.35-.56s-.98.19-1.32.56c-.34.37-.51.86-.51,1.45v9.09c0,.59.17,1.08.51,1.45.34.37.78.56,1.32.56s1.01-.19,1.35-.56c.34-.37.51-.85.51-1.45v-.64c0-.08.03-.16.09-.22.06-.06.13-.09.22-.09l2.36.1c.08,0,.16.03.22.09.06.06.09.13.09.22v.31c0,1.44-.44,2.59-1.32,3.47-.88.87-2.05,1.31-3.51,1.31s-2.6-.44-3.47-1.31Z"/>
    <path class="st44" d="M-38.69-237.73c.06-.06.13-.09.22-.09h2.34c.08,0,.16.03.22.09.06.06.09.13.09.22v17.17c0,.08-.03.16-.09.22-.06.06-.13.09-.22.09h-2.34c-.08,0-.16-.03-.22-.09-.06-.06-.09-.13-.09-.22v-7.19c0-.08-.04-.13-.13-.13h-3.23c-.08,0-.13.04-.13.13v7.19c0,.08-.03.16-.09.22s-.13.09-.22.09h-2.34c-.08,0-.16-.03-.22-.09-.06-.06-.09-.13-.09-.22v-17.17c0-.08.03-.16.09-.22.06-.06.13-.09.22-.09h2.34c.08,0,.16.03.22.09s.09.13.09.22v7.16c0,.08.04.13.13.13h3.23c.08,0,.13-.04.13-.13v-7.16c0-.08.03-.16.09-.22Z"/>
    <path class="st44" d="M-33-220.13c-.06-.06-.09-.13-.09-.22v-17.17c0-.08.03-.16.09-.22.06-.06.13-.09.22-.09h2.34c.08,0,.16.03.22.09s.09.13.09.22v17.17c0,.08-.03.16-.09.22s-.13.09-.22.09h-2.34c-.08,0-.16-.03-.22-.09Z"/>
    <path class="st44" d="M-20.1-237.73c.06-.06.13-.09.22-.09h2.31c.08,0,.16.03.22.09.06.06.09.13.09.22v17.17c0,.08-.03.16-.09.22-.06.06-.13.09-.22.09h-2.67c-.17,0-.28-.08-.33-.25l-3.79-10.77c-.02-.05-.05-.07-.09-.06-.04,0-.06.04-.06.09l.03,10.7c0,.08-.03.16-.09.22s-.13.09-.22.09h-2.31c-.08,0-.16-.03-.22-.09-.06-.06-.09-.13-.09-.22v-17.17c0-.08.03-.16.09-.22.06-.06.13-.09.22-.09h2.62c.17,0,.28.08.33.25l3.81,10.69c.02.05.05.07.09.06.04,0,.06-.04.06-.09v-10.62c0-.08.03-.16.09-.22Z"/>
    <path class="st44" d="M-7.64-220.32l-.48-2.67c0-.08-.05-.13-.15-.13h-3.71c-.1,0-.15.04-.15.13l-.48,2.67c-.02.19-.13.28-.33.28h-2.31c-.24,0-.33-.11-.28-.33l3.76-17.17c.03-.19.14-.28.33-.28h2.69c.19,0,.3.09.33.28l3.76,17.17v.1c0,.15-.09.23-.28.23h-2.36c-.2,0-.31-.09-.33-.28ZM-11.55-225.42h2.82c.1,0,.14-.04.13-.13l-1.47-8.03c-.02-.05-.04-.08-.08-.08s-.06.03-.08.08l-1.45,8.03c-.02.08.03.13.13.13Z"/>
  </g>
  <g>
    <path d="M-56.16-221.57c-.87-.87-1.31-2.03-1.31-3.47v-8.66c0-1.46.44-2.61,1.31-3.47.87-.85,2.03-1.28,3.47-1.28s2.62.43,3.51,1.28c.88.86,1.32,2.01,1.32,3.47v.3c0,.08-.03.16-.09.23-.06.07-.13.1-.22.1l-2.36.1c-.2,0-.3-.1-.3-.3v-.63c0-.59-.17-1.08-.51-1.45-.34-.37-.79-.56-1.35-.56s-.98.19-1.32.56c-.34.37-.51.86-.51,1.45v9.09c0,.59.17,1.08.51,1.45.34.37.78.56,1.32.56s1.01-.19,1.35-.56c.34-.37.51-.85.51-1.45v-.64c0-.08.03-.16.09-.22.06-.06.13-.09.22-.09l2.36.1c.08,0,.16.03.22.09.06.06.09.13.09.22v.31c0,1.44-.44,2.59-1.32,3.47-.88.87-2.05,1.31-3.51,1.31s-2.6-.44-3.47-1.31Z"/>
    <path d="M-39.03-238.16c.06-.06.13-.09.22-.09h2.34c.08,0,.16.03.22.09.06.06.09.13.09.22v17.17c0,.08-.03.16-.09.22-.06.06-.13.09-.22.09h-2.34c-.08,0-.16-.03-.22-.09-.06-.06-.09-.13-.09-.22v-7.19c0-.08-.04-.13-.13-.13h-3.23c-.08,0-.13.04-.13.13v7.19c0,.08-.03.16-.09.22s-.13.09-.22.09h-2.34c-.08,0-.16-.03-.22-.09-.06-.06-.09-.13-.09-.22v-17.17c0-.08.03-.16.09-.22.06-.06.13-.09.22-.09h2.34c.08,0,.16.03.22.09s.09.13.09.22v7.16c0,.08.04.13.13.13h3.23c.08,0,.13-.04.13-.13v-7.16c0-.08.03-.16.09-.22Z"/>
    <path d="M-33.34-220.55c-.06-.06-.09-.13-.09-.22v-17.17c0-.08.03-.16.09-.22.06-.06.13-.09.22-.09h2.34c.08,0,.16.03.22.09s.09.13.09.22v17.17c0,.08-.03.16-.09.22s-.13.09-.22.09h-2.34c-.08,0-.16-.03-.22-.09Z"/>
    <path d="M-20.44-238.16c.06-.06.13-.09.22-.09h2.31c.08,0,.16.03.22.09.06.06.09.13.09.22v17.17c0,.08-.03.16-.09.22-.06.06-.13.09-.22.09h-2.67c-.17,0-.28-.08-.33-.25l-3.79-10.77c-.02-.05-.05-.07-.09-.06-.04,0-.06.04-.06.09l.03,10.7c0,.08-.03.16-.09.22s-.13.09-.22.09h-2.31c-.08,0-.16-.03-.22-.09-.06-.06-.09-.13-.09-.22v-17.17c0-.08.03-.16.09-.22.06-.06.13-.09.22-.09h2.62c.17,0,.28.08.33.25l3.81,10.69c.02.05.05.07.09.06.04,0,.06-.04.06-.09v-10.62c0-.08.03-.16.09-.22Z"/>
    <path d="M-7.98-220.74l-.48-2.67c0-.08-.05-.13-.15-.13h-3.71c-.1,0-.15.04-.15.13l-.48,2.67c-.02.19-.13.28-.33.28h-2.31c-.24,0-.33-.11-.28-.33l3.76-17.17c.03-.19.14-.28.33-.28h2.69c.19,0,.3.09.33.28l3.76,17.17v.1c0,.15-.09.23-.28.23h-2.36c-.2,0-.31-.09-.33-.28ZM-11.89-225.85h2.82c.1,0,.14-.04.13-.13l-1.47-8.03c-.02-.05-.04-.08-.08-.08s-.06.03-.08.08l-1.45,8.03c-.02.08.03.13.13.13Z"/>
  </g>
  <g>
    <path class="st19" d="M-56.16-221.57c-.87-.87-1.31-2.03-1.31-3.47v-8.66c0-1.46.44-2.61,1.31-3.47.87-.85,2.03-1.28,3.47-1.28s2.62.43,3.51,1.28c.88.86,1.32,2.01,1.32,3.47v.3c0,.08-.03.16-.09.23-.06.07-.13.1-.22.1l-2.36.1c-.2,0-.3-.1-.3-.3v-.63c0-.59-.17-1.08-.51-1.45-.34-.37-.79-.56-1.35-.56s-.98.19-1.32.56c-.34.37-.51.86-.51,1.45v9.09c0,.59.17,1.08.51,1.45.34.37.78.56,1.32.56s1.01-.19,1.35-.56c.34-.37.51-.85.51-1.45v-.64c0-.08.03-.16.09-.22.06-.06.13-.09.22-.09l2.36.1c.08,0,.16.03.22.09.06.06.09.13.09.22v.31c0,1.44-.44,2.59-1.32,3.47-.88.87-2.05,1.31-3.51,1.31s-2.6-.44-3.47-1.31Z"/>
    <path class="st19" d="M-39.03-238.16c.06-.06.13-.09.22-.09h2.34c.08,0,.16.03.22.09.06.06.09.13.09.22v17.17c0,.08-.03.16-.09.22-.06.06-.13.09-.22.09h-2.34c-.08,0-.16-.03-.22-.09-.06-.06-.09-.13-.09-.22v-7.19c0-.08-.04-.13-.13-.13h-3.23c-.08,0-.13.04-.13.13v7.19c0,.08-.03.16-.09.22s-.13.09-.22.09h-2.34c-.08,0-.16-.03-.22-.09-.06-.06-.09-.13-.09-.22v-17.17c0-.08.03-.16.09-.22.06-.06.13-.09.22-.09h2.34c.08,0,.16.03.22.09s.09.13.09.22v7.16c0,.08.04.13.13.13h3.23c.08,0,.13-.04.13-.13v-7.16c0-.08.03-.16.09-.22Z"/>
    <path class="st19" d="M-33.34-220.55c-.06-.06-.09-.13-.09-.22v-17.17c0-.08.03-.16.09-.22.06-.06.13-.09.22-.09h2.34c.08,0,.16.03.22.09s.09.13.09.22v17.17c0,.08-.03.16-.09.22s-.13.09-.22.09h-2.34c-.08,0-.16-.03-.22-.09Z"/>
    <path class="st19" d="M-20.44-238.16c.06-.06.13-.09.22-.09h2.31c.08,0,.16.03.22.09.06.06.09.13.09.22v17.17c0,.08-.03.16-.09.22-.06.06-.13.09-.22.09h-2.67c-.17,0-.28-.08-.33-.25l-3.79-10.77c-.02-.05-.05-.07-.09-.06-.04,0-.06.04-.06.09l.03,10.7c0,.08-.03.16-.09.22s-.13.09-.22.09h-2.31c-.08,0-.16-.03-.22-.09-.06-.06-.09-.13-.09-.22v-17.17c0-.08.03-.16.09-.22.06-.06.13-.09.22-.09h2.62c.17,0,.28.08.33.25l3.81,10.69c.02.05.05.07.09.06.04,0,.06-.04.06-.09v-10.62c0-.08.03-.16.09-.22Z"/>
    <path class="st19" d="M-7.98-220.74l-.48-2.67c0-.08-.05-.13-.15-.13h-3.71c-.1,0-.15.04-.15.13l-.48,2.67c-.02.19-.13.28-.33.28h-2.31c-.24,0-.33-.11-.28-.33l3.76-17.17c.03-.19.14-.28.33-.28h2.69c.19,0,.3.09.33.28l3.76,17.17v.1c0,.15-.09.23-.28.23h-2.36c-.2,0-.31-.09-.33-.28ZM-11.89-225.85h2.82c.1,0,.14-.04.13-.13l-1.47-8.03c-.02-.05-.04-.08-.08-.08s-.06.03-.08.08l-1.45,8.03c-.02.08.03.13.13.13Z"/>
  </g>
  <rect class="st4" width="200" height="200" rx="10" ry="10"/>
  <path class="st16" d="M179.37,11.91c3.75,0,6.8,3.05,6.8,6.8v160.73c0,3.75-3.05,6.8-6.8,6.8H19.63c-3.75,0-6.8-3.05-6.8-6.8V18.7c0-3.75,3.05-6.8,6.8-6.8h159.73M179.37,9.07H19.63c-5.32,0-9.63,4.31-9.63,9.63v160.73c0,5.32,4.31,9.63,9.63,9.63h159.73c5.32,0,9.63-4.31,9.63-9.63V18.7c0-5.32-4.31-9.63-9.63-9.63h0Z"/>
  <path class="st32" d="M179.37,14.38c3.75,0,6.8,3.05,6.8,6.8v160.73c0,3.75-3.05,6.8-6.8,6.8H19.63c-3.75,0-6.8-3.05-6.8-6.8V21.18c0-3.75,3.05-6.8,6.8-6.8h159.73M179.37,11.55H19.63c-5.32,0-9.63,4.31-9.63,9.63v160.73c0,5.32,4.31,9.63,9.63,9.63h159.73c5.32,0,9.63-4.31,9.63-9.63V21.18c0-5.32-4.31-9.63-9.63-9.63h0Z"/>
  <path class="st20" d="M179.37,12.91c3.75,0,6.8,3.05,6.8,6.8v160.73c0,3.75-3.05,6.8-6.8,6.8H19.63c-3.75,0-6.8-3.05-6.8-6.8V19.7c0-3.75,3.05-6.8,6.8-6.8h159.73M179.37,10.07H19.63c-5.32,0-9.63,4.31-9.63,9.63v160.73c0,5.32,4.31,9.63,9.63,9.63h159.73c5.32,0,9.63-4.31,9.63-9.63V19.7c0-5.32-4.31-9.63-9.63-9.63h0Z"/>
  <path d="M179.37,12.91c3.75,0,6.8,3.05,6.8,6.8v160.73c0,3.75-3.05,6.8-6.8,6.8H19.63c-3.75,0-6.8-3.05-6.8-6.8V19.7c0-3.75,3.05-6.8,6.8-6.8h159.73M179.37,10.07H19.63c-5.32,0-9.63,4.31-9.63,9.63v160.73c0,5.32,4.31,9.63,9.63,9.63h159.73c5.32,0,9.63-4.31,9.63-9.63V19.7c0-5.32-4.31-9.63-9.63-9.63h0Z"/>
  <g>
    <rect class="st17" x="20" y="165" width="35" height="15" rx="7.5" ry="7.5"/>
    <path class="st22" d="M45.9,166h1.6M47.5,166c3.58,0,6.5,2.92,6.5,6.5s-2.92,6.5-6.5,6.5h-20c-3.58,0-6.5-2.92-6.5-6.5s2.92-6.5,6.5-6.5h18.4M47.5,165h-20c-4.14,0-7.5,3.36-7.5,7.5s3.36,7.5,7.5,7.5h20c4.14,0,7.5-3.36,7.5-7.5s-3.36-7.5-7.5-7.5h0"/>
    <path class="st27" d="M27.5,180h4.26l1-1h-5.26c-3.58,0-6.5-2.92-6.5-6.5s2.92-6.5,6.5-6.5h18.26l1-1h-19.26c-4.14,0-7.5,3.36-7.5,7.5s3.36,7.5,7.5,7.5Z"/>
  </g>
  <g>
    <rect class="st17" x="20" y="20" width="35" height="15" rx="7.5" ry="7.5"/>
    <path class="st22" d="M45.9,21h1.6M47.5,21c3.58,0,6.5,2.92,6.5,6.5s-2.92,6.5-6.5,6.5h-20c-3.58,0-6.5-2.92-6.5-6.5s2.92-6.5,6.5-6.5h18.4M47.5,20h-20c-4.14,0-7.5,3.36-7.5,7.5s3.36,7.5,7.5,7.5h20c4.14,0,7.5-3.36,7.5-7.5s-3.36-7.5-7.5-7.5h0"/>
    <path class="st27" d="M27.5,35h4.26l1-1h-5.26c-3.58,0-6.5-2.92-6.5-6.5s2.92-6.5,6.5-6.5h18.26l1-1h-19.26c-4.14,0-7.5,3.36-7.5,7.5s3.36,7.5,7.5,7.5Z"/>
  </g>
  <g>
    <rect class="st17" x="145" y="20" width="35" height="15" rx="7.5" ry="7.5"/>
    <path class="st22" d="M170.9,21h1.6M172.5,21c3.58,0,6.5,2.92,6.5,6.5s-2.92,6.5-6.5,6.5h-20c-3.58,0-6.5-2.92-6.5-6.5s2.92-6.5,6.5-6.5h18.4M172.5,20h-20c-4.14,0-7.5,3.36-7.5,7.5s3.36,7.5,7.5,7.5h20c4.14,0,7.5-3.36,7.5-7.5s-3.36-7.5-7.5-7.5h0"/>
    <path class="st27" d="M152.5,35h4.26l1-1h-5.26c-3.58,0-6.5-2.92-6.5-6.5s2.92-6.5,6.5-6.5h18.26l1-1h-19.26c-4.14,0-7.5,3.36-7.5,7.5s3.36,7.5,7.5,7.5Z"/>
  </g>
  <g>
    <rect class="st17" x="145" y="165" width="35" height="15" rx="7.5" ry="7.5"/>
    <path class="st22" d="M170.9,166h1.6M172.5,166c3.58,0,6.5,2.92,6.5,6.5s-2.92,6.5-6.5,6.5h-20c-3.58,0-6.5-2.92-6.5-6.5s2.92-6.5,6.5-6.5h18.4M172.5,165h-20c-4.14,0-7.5,3.36-7.5,7.5s3.36,7.5,7.5,7.5h20c4.14,0,7.5-3.36,7.5-7.5s-3.36-7.5-7.5-7.5h0"/>
    <path class="st27" d="M152.5,180h4.26l1-1h-5.26c-3.58,0-6.5-2.92-6.5-6.5s2.92-6.5,6.5-6.5h18.26l1-1h-19.26c-4.14,0-7.5,3.36-7.5,7.5s3.36,7.5,7.5,7.5Z"/>
  </g>
  <g id="Generative_Object">
    <g>
      <path d="M76.77,61.2c12.25-.69,28.45-.67,40.71,0,23.51,1.29,39.01,1.43,46.47,27.27l-130.96.38c8.33-25.21,19.75-26.3,43.78-27.65Z"/>
      <path d="M28.38,127.25c6.15-1.67,29.01,4.75,31.11,12.67-.94,2.73-27.52,2.56-31.11,1.15-5.76-2.26-5.69-12.28,0-13.83Z"/>
      <path d="M163.56,127.25c7.45-.33,11.87,1.94,9.6,10.37-1.75,6.51-28.57,4.47-34.56,3.07-3.19-6.07,21.09-13.27,24.96-13.44Z"/>
      <path d="M172.01,104.21l1.92.38c-.44,2.37,1.09,8.08-1.15,9.6-1.36.92-31.62,4.74-32.64,3.46,1.3-16.03,20.88-8.09,31.87-13.44Z"/>
      <path d="M23.77,104.21c10.64,4.3,33.05-2.64,33.41,12.67-1.07,1.35-31.2-2.34-32.64-3.46-2.02-1.56-1.18-6.95-.77-9.22Z"/>
      <g>
        <polygon points="62.17 108.05 135.52 109.2 122.08 138.77 75.23 138.77 62.17 108.05"/>
        <g>
          <path class="st4" d="M68.32,114.96c20.53.74,41.4-1.51,61.83,1.15l-31.11.38-30.72-1.54Z"/>
          <path class="st4" d="M66.78,111.12c21.56,2,43.36-.23,64.9,1.15l-31.87,1.15-33.03-2.3Z"/>
          <path class="st4" d="M70.62,118.8c19.32.25,38.68-.5,57.99.38l-29.57,1.15-28.42-1.54Z"/>
          <path class="st4" d="M71.39,122.64c18.55.25,37.15-.5,55.69.38l-28.03,1.15-27.65-1.54Z"/>
          <path class="st4" d="M123.62,125.72c1.32.06,1.83-.09,2.69,1.15-.65,2.62-48.01.65-53.76.77,16.59-.7,34.54-2.7,51.08-1.92Z"/>
          <path class="st4" d="M74.46,130.33c16.51.24,33.05-.5,49.54.38l-24.96,1.15-24.58-1.54Z"/>
          <path class="st4" d="M76,134.17c15.48.24,31.01-.5,46.47.38l-23.43,1.15-23.04-1.54Z"/>
        </g>
      </g>
    </g>
  </g>
  <rect class="st4" x="-495" y="13" width="200" height="200" rx="-47.5" ry="-47.5"/>
  <g id="Generative_Object1" data-name="Generative_Object">
    <g>
      <path d="M-418.23,74.2c12.25-.69,28.45-.67,40.71,0,23.51,1.29,39.01,1.43,46.47,27.27l-130.96.38c8.33-25.21,19.75-26.3,43.78-27.65Z"/>
      <path d="M-466.62,140.25c6.15-1.67,29.01,4.75,31.11,12.67-.94,2.73-27.52,2.56-31.11,1.15-5.76-2.26-5.69-12.28,0-13.83Z"/>
      <path d="M-331.44,140.25c7.45-.33,11.87,1.94,9.6,10.37-1.75,6.51-28.57,4.47-34.56,3.07-3.19-6.07,21.09-13.27,24.96-13.44Z"/>
      <path d="M-322.99,117.21l1.92.38c-.44,2.37,1.09,8.08-1.15,9.6-1.36.92-31.62,4.74-32.64,3.46,1.3-16.03,20.88-8.09,31.87-13.44Z"/>
      <path d="M-471.23,117.21c10.64,4.3,33.05-2.64,33.41,12.67-1.07,1.35-31.2-2.34-32.64-3.46-2.02-1.56-1.18-6.95-.77-9.22Z"/>
      <g>
        <polygon points="-432.83 121.05 -359.48 122.2 -372.92 151.77 -419.77 151.77 -432.83 121.05"/>
        <g>
          <path class="st4" d="M-426.68,127.96c20.53.74,41.4-1.51,61.83,1.15l-31.11.38-30.72-1.54Z"/>
          <path class="st4" d="M-428.22,124.12c21.56,2,43.36-.23,64.9,1.15l-31.87,1.15-33.03-2.3Z"/>
          <path class="st4" d="M-424.38,131.8c19.32.25,38.68-.5,57.99.38l-29.57,1.15-28.42-1.54Z"/>
          <path class="st4" d="M-423.61,135.64c18.55.25,37.15-.5,55.69.38l-28.03,1.15-27.65-1.54Z"/>
          <path class="st4" d="M-371.38,138.72c1.32.06,1.83-.09,2.69,1.15-.65,2.62-48.01.65-53.76.77,16.59-.7,34.54-2.7,51.08-1.92Z"/>
          <path class="st4" d="M-420.54,143.33c16.51.24,33.05-.5,49.54.38l-24.96,1.15-24.58-1.54Z"/>
          <path class="st4" d="M-419,147.17c15.48.24,31.01-.5,46.47.38l-23.43,1.15-23.04-1.54Z"/>
        </g>
      </g>
    </g>
  </g>
  <g id="Generative_Object2" data-name="Generative_Object">
    <path class="st3" d="M-904.57-273.23l1.26,38.51c.2.29,3.01.31,3.16.21,1.67-1.19-1.15-36.23.63-41.04l.42,43.56c.06,13.31-2.26,58.51,2.95,67.56,2.49,4.32,6.8,6.96,11.15,9.05,52.31,1.13,105.67,1.95,157.84-.42,6.53-2.8,12.31-8.9,13.26-16.21,3.11-23.85.1-63.5,0-89.02,0-1.96,0-3.93,0-5.89l.84,45.67h3.79v-74.71c0-8.4-.35-16.88.42-25.25,5.53,46.59-3.27,102.14.42,149.64-1.79,10.3-8.79,18.39-18.73,21.68-53.05,1.13-107.02,1.95-159.95-.42-9.51-3.65-16.39-12.32-17.47-22.52-3.05-28.83-.18-70.27,0-100.39Z"/>
    <path class="st8" d="M-708.84-321.21c-.77,8.37-.42,16.86-.42,25.25l-3.79-.21-.84-23.78c-.69-6.78-4.43-13.04-10.52-16.42-2.72-1.51-5.16-2.32-8.21-2.95h-147.74c-5.78,1.16-11.56,4.27-14.94,9.26-1.49,2.2-2.91,5.39-3.37,8-2.72,2.69-.33,21.5-1.47,22.31-.14.1-2.95.08-3.16-.21l-.84-20.41c1.56-14.15,10.09-22.56,24.2-24.41l150.27.42c12.09,2.89,19.38,10.84,20.84,23.15Z"/>
    <path class="st26" d="M-899.1-252.6c-.02,6.87-.03,13.76,0,20.62l-.42-43.56c-1.78,4.81,1.04,39.85-.63,41.04-.14.1-2.95.08-3.16-.21l-1.26-38.51c.09-14.96-1.19-32.54.42-47.14l.84,20.41c.2.29,3.01.31,3.16.21,1.14-.81-1.25-19.62,1.47-22.31-3.06,17.3-.35,50.4-.42,69.45Z"/>
    <path class="st24" d="M-899.1-231.98c-.03-6.87-.02-13.76,0-20.62l3.37-.42c0,.56,0,1.13,0,1.68-.06,11.78-.04,23.58,0,35.36.03,8.69-.27,17.3,0,26.1.03.84-.03,1.69,0,2.53.5,13.27-1.98,24.69,14.1,29.46,46.45-1.49,93.33,1.82,139.74.42,25.33-.76,24.56-9.07,25.04-31.15.01-.56-.01-1.13,0-1.68.16-8.54-.05-17.13,0-25.68,0-.56,0-1.13,0-1.68.08-14.02.06-28.07,0-42.09,1.76,0,2.25.47,2.95-1.26.1,25.52,3.11,65.18,0,89.02-.95,7.3-6.72,13.4-13.26,16.21-52.17,2.38-105.53,1.55-157.84.42-4.36-2.09-8.67-4.73-11.15-9.05-5.2-9.05-2.89-54.24-2.95-67.56Z"/>
    <path class="st26" d="M-709.26-295.96v74.71h-3.79l-.84-45.67c-.08-16.35,1.59-37.33,0-53.04l.84,23.78,3.79.21Z"/>
    <path class="st12" d="M-724.42-336.37c6.09,3.37,9.84,9.64,10.52,16.42,1.59,15.71-.08,36.69,0,53.04,0,1.96,0,3.93,0,5.89-.69,1.73-1.18,1.26-2.95,1.26-.05-12.52,2.02-58.85-2.1-67.14-1.13-2.27-4.09-5.21-6.31-6.52.04-1.72-2.47-2.34.84-2.95Z"/>
    <path class="st12" d="M-724.42-336.37c-3.31.6-.81,1.22-.84,2.95-7.46-4.42-37.9-2.45-48.41-2.53-16.7-.12-33.41-.07-50.09,0-16.47.07-41.67-2.09-57.03,0-1.49.2-5.65,1.74-6.95,2.53-.79-5.34-5.04,2.93-7.58,3.37,3.38-4.99,9.16-8.1,14.94-9.26h147.74c3.05.62,5.48,1.44,8.21,2.95Z"/>
    <path class="st12" d="M-887.73-333.42c-3.31,2-7.43,8.18-8,12-2.61,17.61.1,49.17,0,68.4l-3.37.42c.07-19.05-2.64-52.16.42-69.45.46-2.61,1.88-5.8,3.37-8,2.54-.44,6.79-8.7,7.58-3.37Z"/>
    <path class="st15" d="M-873-226.09c0,1.31.2,9.81-.21,10.1h-22.52c-.04-11.78-.06-23.58,0-35.36l22.31.21c-.42,8.34.38,16.74.42,25.04Z"/>
    <path class="st41" d="M-718.1-249.66c1.07,6.12-.79,14.81,0,21.26l1.26,10.73c0,.56,0,1.13,0,1.68l-24.41-.21c-.04-11.15.05-22.32,0-33.46h23.15Z"/>
    <path class="st10" d="M-773.66-335.94c4.82,1.59,13.02-.69,17.47.42.4.1.03,1.26.42,1.26s.02-1.16.42-1.26c.64-.16,5.79-.07,6.1.21.99.88.14,23.36.42,26.52,3.23,2.21,5.07,5.43,6.31,9.05l-1.68.42c-2.91-5.45-6.37-9.09-12.21-11.36-.05-.02.16-.72-.21-.84-.94-.32-1.68.51-2.1.42-14.52-3.04-48.59-1.14-64.61-1.26.64-.65.76-1.48.84-2.32.4-4.19.35-14.73,0-18.94-.04-.52-.65-1.93-1.26-2.32,16.68-.07,33.39-.12,50.09,0Z"/>
    <path class="st31" d="M-718.1-249.66h-23.15c0-.56,0-1.13,0-1.68l22.94-.42c1.38.83.19,2,.21,2.1Z"/>
    <g>
      <path class="st31" d="M-823.33-312.37c16.02.12,50.09-1.77,64.61,1.26.43.09,1.17-.74,2.1-.42.37.13.16.82.21.84h-101.02l-1.26-.84c7.92-2.29,26-.91,35.36-.84Z"/>
      <g>
        <path class="st7" d="M-745.04-248.81c0,1.82.01,3.65,0,5.47,0,.14,0,.28,0,.42-.09,10.06,1.52,45.09-2.95,51.77-1.95,2.92-6.04,4.28-8.42,6.73-1.04.36-4.79,1.16-5.89,1.26-29.4,2.86-63.36-2.14-93.23,0-4.86-.93-10.55-4.07-12.84-8.63-4.35-8.65-1.86-55.33-1.68-67.98,1.93-1.39,1.1,2.51,1.68,3.58,1.17,2.15,3.78,1.52,5.68,2.32h116.17c.93.62-1.06,5.45,1.47,5.05Z"/>
        <g>
          <path class="st3" d="M-753.46-248.39c.25,2.89-.23,6.01-3.79,5.47l-7.16-.84c.2.2,4.82-.15,5.68,0,1.27-6.26-1.02-4.46-5.68-4.63-31.01-1.1-62.22,1.18-93.23-.42l-1.05,5.89c-3.66-2.19-3.27-5.07-.63-8,34.72.55,69.84-1.11,104.39.84.55.54,1.08,1,1.47,1.68Z"/>
          <path class="st17" d="M-757.25-193.67c-30.38,3.59-67.81-2.69-98.91,0-2.2.22-2.15.07-3.37-1.26h104.18c3.02-3.01,2.54-7.47-1.89-8.42,6.36-.56,7.35,8.81,0,9.68Z"/>
          <path class="st17" d="M-859.53-211.35l103.76.42c2.66-1.36,2.43-3.7,2.32-6.31.03.03.26-1.01.84-.21,1.53,2.09.36,5.96-1.89,7.37h-104.39c-1.81-.8-.57-1.18-.63-1.26Z"/>
          <path class="st17" d="M-859.95-227.35l104.6.42c2.17-1.55,2.04-2.94,1.89-5.47,1.83,2.95,1.96,3.54-1.05,6.31h-104.81c-.71-.11-.52-1.06-.63-1.26Z"/>
          <path class="st17" d="M-858.69-242.92h101.44c3.56.54,4.04-2.58,3.79-5.47,1.38,2.42,1.49,4.37-1.05,6.31h-104.39c-.52-.14.42-.71.21-.84Z"/>
          <path class="st30" d="M-757.25-193.67h-98.91c31.11-2.69,68.53,3.59,98.91,0Z"/>
          <g>
            <path class="st3" d="M-753.46-217.25c.11,2.62.35,4.95-2.32,6.31l-103.76-.42c-1.89-2.57-2.14-5.63.63-8h102.7c.94.62,1.92,1.34,2.74,2.1Z"/>
            <path class="st3" d="M-858.06-216.4h92.6l.21,4-91.97.21c-1.62-.62-1.13-2.62-.84-4.21Z"/>
          </g>
          <g>
            <path class="st3" d="M-753.46-232.4c.15,2.53.27,3.93-1.89,5.47l-104.6-.42c-1.37-2.49-1.57-5.79,1.05-7.58h103.12c1.54.61,1.61,1.39,2.32,2.53Z"/>
            <polygon class="st3" points="-858.06 -232.4 -765.04 -232.4 -764.4 -228.4 -857.64 -227.35 -858.06 -232.4"/>
          </g>
          <g>
            <path class="st3" d="M-757.25-203.36c4.43.95,4.91,5.41,1.89,8.42h-104.18c-1.9-2.08-1.85-6.66.63-8.42h101.65Z"/>
            <path class="st3" d="M-856.8-202.09l92.39.63c-1.81.4-.2,5.08-1.05,5.68h-92.6l-.63-5.68,1.89-.63Z"/>
          </g>
          <path class="st26" d="M-764.4-248.39c.13.75-.17,4.46,0,4.63l7.16.84h-101.44l1.05-5.89c31.02,1.6,62.22-.68,93.23.42Z"/>
          <path class="st3" d="M-764.4-243.76c-.17-.17.13-3.88,0-4.63,4.67.17,6.96-1.63,5.68,4.63-.87-.15-5.48.2-5.68,0Z"/>
        </g>
      </g>
      <g>
        <path class="st1" d="M-756.41-310.69c5.84,2.27,9.3,5.92,12.21,11.36l.42,102.49c-2.08,8.42-9.82,14.44-18.52,13.68,1.1-.11,4.86-.9,5.89-1.26,3.72-1.31,6.19-3.58,8.42-6.73,1.73-2.45,2.92-3.66,3.37-6.95,1.8-13.19-1.01-31.19-.42-44.83,0-.14,0-.28,0-.42v-5.47c-2.53.39-.55-4.43-1.47-5.05h-116.17c-1.9-.79-4.52-.17-5.68-2.32-.58-1.07.25-4.97-1.68-3.58.19-14.02-5.68-48.1,12.63-50.93h101.02Z"/>
        <g>
          <path class="st31" d="M-747.99-191.15c4.46-6.69,2.85-41.71,2.95-51.77-.59,13.63,2.22,31.64.42,44.83-.45,3.28-1.64,4.5-3.37,6.95Z"/>
          <path class="st31" d="M-756.41-184.41c2.38-2.45,6.47-3.81,8.42-6.73-2.23,3.15-4.7,5.43-8.42,6.73Z"/>
          <path class="st29" d="M-745.04-243.34c.01-1.82,0-3.65,0-5.47v5.47Z"/>
          <polygon class="st26" points="-758.93 -290.06 -859.11 -290.49 -859.32 -296.8 -759.14 -296.8 -758.93 -290.06"/>
          <path class="st26" d="M-860.79-280.8l101.65.84c.29,8.92,8.41,4.09,4-1.68,3.71,1.35,2.11,6.65-.63,7.16l-103.97-.42c-1.38-.1-1.36-5.02-1.05-5.89Z"/>
          <path class="st3" d="M-755.14-281.65c4.42,5.77-3.71,10.61-4,1.68l-101.65-.84c.32-.9.94-.7,1.47-1.26,32.47,1.91,67.64-2.37,99.76-.42,1,.06,3.44.49,4.42.84Z"/>
          <path class="st3" d="M-758.93-290.06l-.21-6.73h-100.18l.21,6.31c-2.4-.66-1.71-7.28,1.05-8l101.44-.42c5.49,1.82,4,10.36-2.32,8.84Z"/>
          <g>
            <path class="st3" d="M-858.9-267.34c.15,0,.69.84.84.84,34.08-.4,68.19.3,102.28,0,3.44,1.22,3.28,7.12-.42,8h-101.44c-4.74.46-3.56-8.71-1.26-8.84Z"/>
            <path class="st26" d="M-859.74-264.39h100.6l.63,4.84-100.39.21c-1.47-.57-1.19-3.65-.84-5.05Z"/>
          </g>
        </g>
      </g>
    </g>
    <g>
      <path class="st3" d="M-858.69-311.53l1.26.84c-18.3,2.83-12.43,36.91-12.63,50.93-.18,12.65-2.67,59.33,1.68,67.98,2.29,4.56,7.98,7.7,12.84,8.63,29.87-2.14,63.84,2.86,93.23,0,8.7.76,16.44-5.26,18.52-13.68l-.42-102.49,1.68-.42c3.24,9.4,1.21,36.85,1.26,48.41,0,.56,0,1.13,0,1.68.05,11.15-.04,22.31,0,33.46l24.41.21c-.05,8.55.16,17.13,0,25.68-1.82-.56-4.62-.75-6.52-.84-2.67-.13-18.88-.47-20.2,0-.14.05-1.22,2.1-1.89,2.32l28.62.21c-.48,22.08.29,30.38-25.04,31.15-46.42,1.4-93.29-1.91-139.74-.42-16.08-4.77-13.6-16.2-14.1-29.46l26.52-1.47-1.89-3.16-24.62,2.1c-.27-8.79.03-17.41,0-26.1h22.52c.41-.29.22-8.79.21-10.1v-69.24c1.62-7.91,6.43-13.93,14.31-16.21Z"/>
      <path class="st26" d="M-716.84-190.31c-.01.56.01,1.13,0,1.68l-28.62-.21c.67-.22,1.75-2.27,1.89-2.32,1.32-.47,17.53-.13,20.2,0,1.9.09,4.7.29,6.52.84Z"/>
      <path class="st26" d="M-895.73-187.36c-.03-.84.03-1.69,0-2.53l24.62-2.1,1.89,3.16-26.52,1.47Z"/>
      <g>
        <path class="st12" d="M-884.58-177.26c10.09-2.4,12.83,11.64,4.63,13.89-10.33,2.83-11.9-12.16-4.63-13.89Z"/>
        <path class="st30" d="M-882.89-176.84c2.98-1.48,1.06,1.3,1.05,1.47-.31,4.94.55,4.88,5.05,5.05-7.91-1.21-2.26,6.57-7.79,6.1l2.32-1.05-.42-4.63-4.63-.42c6.73,1.34,3.95-6.29,4.42-6.52Z"/>
        <path class="st45" d="M-888.36-170.52l2.1,5.05c-1.36-1.31-2.45-3.08-2.1-5.05Z"/>
        <path class="st45" d="M-876.58-169.68c1.31-.05.41,2.23,0,2.1-.54-.68.2-1.32,0-2.1Z"/>
        <path class="st45" d="M-887.94-172.63c.3.02.54,1.93-.42,1.68-.21-.02.3-1.43.42-1.68Z"/>
      </g>
      <g>
        <path class="st12" d="M-730.94-177.68c8.74-.41,9.91,12.9,2.53,14.31-11.78,2.25-11.48-13.89-2.53-14.31Z"/>
        <polygon class="st45" points="-730.52 -175.15 -730.31 -174.52 -730.94 -174.31 -731.15 -174.52 -730.52 -175.15"/>
        <g>
          <path class="st30" d="M-730.94-173.89c.96,3.01,2.12,3.46,5.26,3.58-4.3-.05-5.01,2.16-4.42,6.1l-1.05-.21c1.53-5.06-.15-5.5-4.63-5.89l4.84-.63v-2.95Z"/>
          <polygon class="st12" points="-729.68 -170.52 -729.47 -169.89 -730.1 -169.68 -730.31 -169.89 -729.68 -170.52"/>
        </g>
      </g>
    </g>
    <g>
      <path class="st8" d="M-823.75-335.94c.61.39,1.22,1.8,1.26,2.32.35,4.21.4,14.75,0,18.94-.08.83-.2,1.66-.84,2.32-9.35-.07-27.44-1.45-35.36.84s-12.69,8.29-14.31,16.21v69.24c-.04-8.3-.84-16.71-.42-25.04l-22.31-.21c0-.56,0-1.13,0-1.68.1-19.23-2.61-50.79,0-68.4.57-3.82,4.69-10,8-12,1.3-.78,5.46-2.32,6.95-2.53,15.36-2.09,40.56.07,57.03,0Z"/>
      <g>
        <path class="st3" d="M-884.58-333c16.13-2.75,15.9,22.06,0,19.36-9.61-1.63-9.73-17.7,0-19.36Z"/>
        <g>
          <path class="st29" d="M-883.73-330.47c11.54-1.91,11.37,16.48-.42,14.31-6.71-1.23-6.66-13.14.42-14.31Z"/>
          <path class="st31" d="M-884.58-323.74c.15-.1.93-.07,1.05.21.32.7-2.4.71-1.05-.21Z"/>
          <path class="st3" d="M-882.89-323.74c.64-.23.93.62.42.84-.62.27-.93-.66-.42-.84Z"/>
        </g>
      </g>
    </g>
    <g>
      <path class="st10" d="M-725.26-333.42c2.23,1.32,5.18,4.25,6.31,6.52,4.12,8.29,2.05,54.62,2.1,67.14.06,14.02.08,28.07,0,42.09l-1.26-10.73c-.79-6.45,1.07-15.13,0-21.26-.02-.1,1.17-1.28-.21-2.1l-22.94.42c-.05-11.56,1.98-39-1.26-48.41-1.25-3.62-3.08-6.84-6.31-9.05-.28-3.16.57-25.63-.42-26.52-.31-.28-5.47-.37-6.1-.21-.4.1-.03,1.26-.42,1.26s-.02-1.16-.42-1.26c-4.44-1.11-12.65,1.17-17.47-.42,10.5.08,40.94-1.89,48.41,2.53Z"/>
      <g>
        <path class="st3" d="M-733.05-333c16.74-3.14,15.87,21.88.42,19.36-10.14-1.65-10-17.56-.42-19.36Z"/>
        <g>
          <path class="st12" d="M-732.2-330.47c10.39-1.77,11.32,12.86,3.37,14.31-10.35,1.89-11.65-12.9-3.37-14.31Z"/>
          <path class="st45" d="M-730.52-327.95c.07,3.47.9,3.69,4,4.84-6.41-.09-1.53,6.12-5.68,6.1,4.12-3.17-1.45-5.7-1.47-6.1-.02-.32,3.58-1.59,3.16-4.84Z"/>
        </g>
      </g>
    </g>
  </g>
  <g id="Generative_Object3" data-name="Generative_Object">
    <g>
      <path class="st33" d="M-370.03-111.16c.59-2.27,3.27-3.76,4.47-5.87,7.41-13.03,3.34-60.91,3.36-78.57.02-25.05,1.1-50.14.56-75.22-.83-2.15-3.49-1.5-5.59-1.12,0,32.34,0,64.69,0,97.03,0,14.2.52,28.6,0,42.78-.04,1.02.5,2.51-1.12,1.4v-218.39c-2.05-8.43-7.47-14.32-15.94-16.5h-220.9c-7.51,2.18-12.85,6.81-15.38,14.26l-.56,222.02c2.35,7.92,7.64,14.08,15.94,15.94h220.9c6.49-1.5,11.05-5.47,14.26-11.19-2.21,6.52-7.38,9.92-13.7,12.3-73.84.86-147.63.96-221.46,0-23.63-6.16-16.87-37.26-17.06-56.48-.32-32.42.47-64.89-.28-97.31l-5.31.28c.68,32.33.52,64.68.56,97.03.02,16.62-5.19,46.54,8.39,58.16-5.83-3.4-8.23-9.82-10.07-15.94v-227.06c2.63-10.14,10.18-17.84,20.41-20.41h227.62c11.56,3.04,19.77,12.39,20.97,24.33l-.56,223.7c-1.77,6.25-4.36,10.81-9.51,14.82Z"/>
      <path class="st40" d="M-370.03-111.16c-3.61,2.82-6.58,4.16-10.91,5.59h-227.62c-3.72-1.21-7.31-2.43-10.35-5.03-13.57-11.63-8.37-41.55-8.39-58.16h5.03c.19,19.22-6.57,50.32,17.06,56.48,73.83.96,147.63.86,221.46,0,6.33-2.38,11.49-5.78,13.7-12.3.68-2,1.54-4,1.68-6.15,1.61,1.11,1.08-.37,1.12-1.4.52-14.18,0-28.59,0-42.78l4.47.28.56-20.97c-.02,17.67,4.06,65.54-3.36,78.57-1.2,2.11-3.89,3.6-4.47,5.87Z"/>
      <path class="st14" d="M-362.2-195.61l-.56,20.97-4.47-.28c0-32.34,0-64.69,0-97.03,2.11-.38,4.77-1.03,5.59,1.12.54,25.08-.54,50.17-.56,75.22Z"/>
      <path class="st14" d="M-622.25-168.76h-5.03c-.04-32.35.12-64.71-.56-97.03l5.31-.28c.75,32.42-.04,64.89.28,97.31Z"/>
      <g>
        <path class="st14" d="M-372.83-163.73c-1.68.24-1.09-1.5-1.12-2.52-.28-9.75,0-19.6,0-29.36,0-12.29.08-24.62,0-36.91-.04-5.77.26-11.58-.28-17.34-1.12,2.77-6.87,8.63-7.55,10.91-1.56,5.26-1.02,17.21-2.24,23.77-.27,1.43-3.58,14.65-3.91,15.38-2.32,4.98-11.17,4.75-12.3.56-.12-.46-.26-5.98,1.68-4.75-.55,8.01,7,7.55,8.95,4.19.68-1.17,3.56-16.56,3.91-19.01,1.74-11.95,1.97-26.04.56-38.03-.29-2.48-3.84-21.4-4.47-22.37-.97-1.49-5.46-1.86-6.99-1.4-5.23,1.58,1.5,16,.84,20.13-.01-.07-1-.35-1.12-.84-.89-3.82-1.18-8.4-2.24-12.3l-1.4-.84-5.59,2.24c1.88,5.91,3.34,11.71,4.19,17.9,1.45,10.51,1.89,21.35,0,31.88-2-2.98-.05-6.67,0-10.07.16-10.58-.76-20.15-2.24-29.92-3.83-15.83-14.45-34.88-26.28-46.14,7.94.24-2.75-9.91-5.59-12.02l14.82-12.58c.46,2.02-.84,2.91-.84,5.59.01,5.25.25,7.97,3.36,12.3,6.51,9.09,22.67,3.12,24.05-6.99,1.38-10.08-6.1-16.72-15.66-17.34,3.39-1.87,11.15-3.88,14.82-3.08.55.12,0,1.51.56,1.68.07.02.43-.77,1.12-.56,1.07.33,9.67,3.54,10.07,3.91,1.91,1.81.07,8.23.84,9.79.25.51,3.11.74,3.64,3.08,2.11-3.04-2.68-16.2-2.52-17.06.53-2.7,11.56-3.79,6.15-11.46,1.23,2.06,2.29,3.22,2.8,5.87-.62,61.22.83,122.51,0,183.71Z"/>
        <path class="st18" d="M-604.92-202.88l.56,38.31,10.63,10.91c.07,6.09,3.29,8.64,7.27,12.3,16.79,15.46,26.9,6.66,44.46,9.51.9.15,5.54.91,4.19,2.52-1.68,2-46.15-.95-52.29.28-5.52-6.01-10.76-12.67-16.78-17.9-3.47,7.58,7.55,19.17,14.54,20.69,5.18,1.13,65.8,1.65,69.91.56,3.81-1.01,2.13-2.54,5.31-2.8.39-.03,6.84.93,7.83,1.12l.28,7.83-85.29,1.68c-5.68-.3-9.82.64-14.54-3.36-.58-.49-3.17-3.58-3.36-4.19l.56-81.65c7.52-1.74.44,3.75,6.71,4.19Z"/>
        <path class="st18" d="M-373.95-195.61c0,9.76-.28,19.61,0,29.36.03,1.02-.56,2.76,1.12,2.52-.18,13.21,4.62,41.38-12.3,45.3l-94.79-1.12-.28-7.83c.53-.09,1.15.09,1.68,0,3.32-.55,5.55-.85,8.95-1.12-.68,2.44,1.65,2.57,3.08,2.8,7.79,1.22,66.7.59,72.14-1.68.42-.18,2.38-1.76,3.08-2.24,5.37-3.68,11.16-13.57,12.3-19.85,1.36-7.43-.6-43.16.56-45.3.26-.47,3.67-1.03,4.47-.84Z"/>
        <path class="st40" d="M-604.92-215.74c1.15,5.3,1.76,10.88,2.8,16.22-1.2-1.72-.94-3.91-1.12-4.19-.41-.64-1.58.85-1.68.84-6.28-.44.8-5.93-6.71-4.19l-.56,81.65c.18.61,2.78,3.71,3.36,4.19-2.49-.78-4.68-3.89-5.59-6.15.91-.98-.79-3.45-1.12-4.47-2.76-26.05-.16-63.38,0-90.6,4.77-.05,4.66,8.82,10.63,6.71Z"/>
        <path class="st13" d="M-480.2-127.38l.28,7.83,94.79,1.12c-68.75-1.7-140.74,4.19-209.16.56l85.29-1.68-.28-7.83c3.91.75,6.87,2.87,9.79,3.36,8.79,1.46,12.4-2.24,19.29-3.36Z"/>
        <path class="st14" d="M-614.43-127.38c-.76-1.89-.9-2.42-1.12-4.47.33,1.03,2.03,3.5,1.12,4.47Z"/>
        <path class="st13" d="M-430.43-308.58c11.83,11.26,22.46,30.31,26.28,46.14,1.48,9.77,2.4,19.34,2.24,29.92-.76-1.97-6.47-.91-6.71-1.4s.75-8.51.56-10.63c-1.33-15.15-6.7-33.29-16.22-45.3-.71-.9-1.3-2.3-2.8-1.96-37.33-48.83-115.05-42.28-143.17,12.3-20.11,31.38-11.5,74.91,13.42,100.94,5.63,5.88,13.5,5.91,6.71,14.82-2.34-1.71-4.5-3.08-6.71-5.03-1.78-5.01-7.91-8.42-11.19-12.58-15.42-19.64-19.28-39.69-19.57-64.03-.01-.91.1-1.9,0-2.8.8-18.95,8.83-37.42,20.69-52.01,33.42-41.1,98.1-44.89,136.46-8.39Z"/>
        <path class="st37" d="M-401.91-232.52c-.05,3.4-2,7.09,0,10.07-8.71,48.62-53.58,81.05-102.34,76.62-18.01-1.64-31.52-7.42-45.86-17.9,6.79-8.91-1.08-8.94-6.71-14.82-24.92-26.04-33.53-69.56-13.42-100.94-35.64,69.19,30.75,145.79,104.3,120.24,54.12-18.8,73.6-87.11,38.87-132.54,1.5-.34,2.08,1.06,2.8,1.96,9.52,12.01,14.88,30.15,16.22,45.3.19,2.11-.79,10.15-.56,10.63s5.95-.57,6.71,1.4Z"/>
        <path class="st35" d="M-398.55-204c.52-7.6,3.49-15.12,3.91-23.49,1.26-10.94,1.08-22.13-1.12-33,.66-4.13-6.07-18.55-.84-20.13,1.53-.46,6.02-.09,6.99,1.4.63.97,4.18,19.89,4.47,22.37,1.41,11.99,1.18,26.08-.56,38.03-.36,2.46-3.23,17.84-3.91,19.01-1.95,3.35-9.5,3.81-8.95-4.19Z"/>
        <path class="st39" d="M-373.95-232.52l-5.59,13.14-4.47,4.19c1.22-6.56.68-18.5,2.24-23.77.68-2.28,6.43-8.13,7.55-10.91.54,5.76.24,11.57.28,17.34Z"/>
        <path class="st40" d="M-395.76-260.48c2.19,10.86,2.38,22.05,1.12,33,.13-2.5-.19-23.62-.56-24.89-.98-3.36-3.69-1.55-6.71-1.96-.85-6.18-2.31-11.99-4.19-17.9l5.59-2.24,1.4.84c1.06,3.9,1.34,8.49,2.24,12.3.12.49,1.1.77,1.12.84Z"/>
        <path class="st6" d="M-587.58-248.18c.1.89-.01,1.89,0,2.8l-2.8,1.4c-.13,1.58,1.51-.4,1.68.56.85,4.93-.24,12.26.56,17.9,3.02,21.38,15.29,42.62,31.32,56.76,2.21,1.95,4.37,3.32,6.71,5.03,14.34,10.48,27.85,16.26,45.86,17.9-.7,1.25-4.81.72-5.87.56-13.68-2.03-27.98-8.08-39.15-16.22l-18.73,12.3c6.99-21.03-25.97-25.47-25.73-4.47l-10.63-10.91-.56-38.31c.09,0,1.27-1.48,1.68-.84.18.28-.08,2.48,1.12,4.19,3.57,5.12,12.61,4.87,13.42-.28.33-2.09-5.07-20.56-5.59-25.17-.36-3.2-.85-22.58.28-24.33l1.4-.28,3.08,3.08,1.12-5.59c0,1.19.74,3.09.84,3.91Z"/>
        <g>
          <path class="st14" d="M-566.89-300.19c-11.86,14.59-19.9,33.06-20.69,52.01-.1-.83-.84-2.72-.84-3.91l-1.12,5.59-3.08-3.08-1.4.28c-1.13,1.74-.64,21.13-.28,24.33.52,4.6,5.92,23.07,5.59,25.17-.81,5.15-9.85,5.4-13.42.28-1.03-5.34-1.65-10.91-2.8-16.22-.32-1.5-1.86-10.5-2.24-10.91-1.07-1.15-6.16,1.23-7.83,0l-.28-9.23c-.53,4.45-.25,8.96-.28,13.42-.16,27.22-2.76,64.55,0,90.6-.03-.09-.93-.98-1.12-1.4.77-63.08-1.02-126.25,0-189.31,8.65,1.68,5.35-6.09,7.27-12.02.56-1.75,2.08-1.31,2.24-1.68.66-1.56,2.11-9.92,5.87-9.23,6.82,1.25-5.24,12.47-3.08,18.18l8.67-1.96c-.83,6.92,2.96,15.58,10.07,17.9,1.9.62,6.96.36,7.27.56.62.39.06,1.76.28,1.96,3.43,3.14,7.03,6.43,11.19,8.67Z"/>
          <path class="st35" d="M-597.37-280.61c1.82-.47,5.75-.2,6.43,1.96.78,2.48-4.84,28.45-5.03,34.67-.45,14.76,3.83,25.16,5.03,38.03.49,5.2-1.19,11.03-7.55,7.55-2.59-1.42-6.16-25.73-6.43-29.92-.68-10.31-.21-21.64,1.12-31.88.5-3.81,2.95-19.51,6.43-20.41Z"/>
          <path class="st14" d="M-610.79-296.83c.17-.13,1.83.66,1.96.84,1.5,2.04,1.58,27.98.28,28.8-.25.16-2.26.08-2.52-.28-.85-1.2.45-25.74.28-29.36Z"/>
        </g>
        <path class="st14" d="M-604.92-215.74c-5.96,2.11-5.86-6.76-10.63-6.71.03-4.46-.25-8.98.28-13.42l.28,9.23c1.67,1.23,6.76-1.15,7.83,0,.38.41,1.91,9.41,2.24,10.91Z"/>
        <path class="st14" d="M-477.97-130.18l-.56,2.8c-.53.09-1.14-.09-1.68,0-6.9,1.11-10.5,4.81-19.29,3.36-2.92-.48-5.88-2.61-9.79-3.36-.99-.19-7.44-1.15-7.83-1.12,2.4-1.85-.59-.12-.56-2.24,13.34,1.89,26.31,1.89,39.71.56Z"/>
        <path class="st13" d="M-391.28-129.62c-.7.48-2.65,2.06-3.08,2.24-5.44,2.26-64.35,2.9-72.14,1.68-1.43-.22-3.75-.36-3.08-2.8,25.15-2.01,51.05,1.77,75.78-2.24,1.04-.17,2.17-.12,2.52,1.12Z"/>
        <path class="st37" d="M-587.58-245.38c.29,24.34,4.15,44.4,19.57,64.03,3.27,4.17,9.41,7.57,11.19,12.58-16.03-14.15-28.29-35.38-31.32-56.76-.8-5.63.29-12.96-.56-17.9-.17-.96-1.8,1.02-1.68-.56l2.8-1.4Z"/>
        <path class="st35" d="M-477.97-130.18c-13.4,1.33-26.37,1.34-39.71-.56-2.9-.41-14.81-2.06-16.5-3.36-2.56-1.97-2.57-8.49.56-9.51,1.9-.62,19.38,4.04,23.49,4.47,7.54.79,17.63,1.07,25.17.56,4.92-.33,27.21-5.68,29.08-5.03,1.66.57,2.75,4.15,2.52,5.87-.83,6.02-19.35,7.03-24.61,7.55Z"/>
        <g>
          <path class="st35" d="M-418.69-315.29c-3.11-4.34-3.34-7.05-3.36-12.3,5.06-17.28,30.88-10.98,25.17,7.55-2.61,8.46-15.65,10.8-21.81,4.75Z"/>
          <path class="st38" d="M-397.99-325.35c-1.36.43-1.04-1.09-1.4-1.12s-.78,1.08-.84,1.12c-4.05,2.54-6.57,5.76-11.74,7.27-7.21,2.1-4.58-2.86-5.59-6.71l5.59-6.99c-2.95.12-5.39,3.9-6.15,6.43-1.81,2.27-.38.02-1.68-1.12,1.47-13,21.58-11.85,21.81,1.12Z"/>
          <path class="st38" d="M-418.13-325.35c-.1.65.55.52.56.56,1.02,3.85-1.62,8.81,5.59,6.71,4.17.13,10.2-3.47,11.74-7.27.06-.04.49-1.14.84-1.12s.04,1.55,1.4,1.12c.27,15.43-23.68,15.37-21.81-1.12,1.3,1.14-.13,3.38,1.68,1.12Z"/>
          <path class="st0" d="M-411.98-318.08c5.17-1.51,7.69-4.73,11.74-7.27-1.55,3.8-7.57,7.4-11.74,7.27Z"/>
          <path class="st47" d="M-417.57-324.79s-.66.09-.56-.56c.76-2.53,3.2-6.31,6.15-6.43l-5.59,6.99Z"/>
        </g>
        <g>
          <path class="st33" d="M-375.62-353.32c5.41,7.68-5.62,8.77-6.15,11.46-.17.86,4.63,14.01,2.52,17.06-.53-2.34-3.38-2.57-3.64-3.08-.77-1.55,1.07-7.97-.84-9.79-.39-.37-9-3.58-10.07-3.91-.69-.21-1.04.58-1.12.56-.56-.16,0-1.56-.56-1.68-3.67-.8-11.43,1.2-14.82,3.08,9.56.62,17.04,7.25,15.66,17.34-1.38,10.11-17.53,16.08-24.05,6.99,6.16,6.04,19.2,3.71,21.81-4.75,5.72-18.53-20.11-24.83-25.17-7.55,0-2.68,1.3-3.58.84-5.59l-14.82,12.58c2.84,2.12,13.53,12.26,5.59,12.02-38.36-36.5-103.04-32.71-136.46,8.39-4.15-2.24-7.76-5.53-11.19-8.67-.22-.2.34-1.56-.28-1.96-.31-.19-5.37.06-7.27-.56-7.11-2.32-10.9-10.97-10.07-17.9l-8.67,1.96c-2.16-5.71,9.9-16.92,3.08-18.18-3.76-.69-5.21,7.66-5.87,9.23-.16.36-1.67-.07-2.24,1.68-1.92,5.94,1.38,13.7-7.27,12.02.23-14.08-4.11-32.99,12.58-38.59h218.67c4.4,1.51,7.39,3.81,9.79,7.83Z"/>
          <path class="st35" d="M-503.97-349.96c6.81-.37,46.76,1.4,49.49,6.43,7.51,13.82-18.57,4.22-23.21,3.64-9.89-1.24-24.22-1.22-34.11,0-3.85.48-19.79,5.14-21.81,4.47-2.86-.94-3.03-8.17,1.12-10.07,3.87-1.77,23.54-4.2,28.52-4.47Z"/>
          <path class="st14" d="M-447.21-351.64c-2.9.08-7.9-.42-10.07,0l1.4-2.8c12.55,3,49.6-3.81,59.28,1.12,1.02.52.89,1.08,0,1.68-16.8-.48-33.81-.47-50.61,0Z"/>
          <path class="st14" d="M-588.98-354.44c15.79-2.24,36.78,1.68,53.13,0,0,.7.87,1.86.84,1.96-.95,2.76-51.96-.6-58.44.28-.05-1.16,3.85-2.15,4.47-2.24Z"/>
          <path class="st33" d="M-457.28-351.64c2.17-.42,7.17.08,10.07,0-.74,4.11,1.98,2.56,4.75,2.8.57.28-.45,1.1-.56,1.12-.8.13-15.51-.17-16.22-.56-.21-.12-.36-2.91,1.96-3.36Z"/>
          <g>
            <path class="st35" d="M-582.83-337.66c20.63-2.59,20.02,29.43-1.12,25.73-12.65-2.21-12.7-23.99,1.12-25.73Z"/>
            <g>
              <path class="st38" d="M-583.95-335.42c18.49-3.82,18.41,23.73,1.68,21.81-11.68-1.34-12.09-19.66-1.68-21.81Z"/>
              <path class="st0" d="M-588.98-324.24l10.91,6.43c-.38,1.09-11.4-3.71-10.91-6.43Z"/>
              <path class="st47" d="M-577.24-332.07c2.29,1.42,6.06,3.95,5.59,7.27l-5.59-7.27Z"/>
            </g>
          </g>
        </g>
        <g>
          <path class="st35" d="M-568.01-149.19c-2.1,6.32-12.53,9.78-18.46,7.83-3.98-3.66-7.2-6.22-7.27-12.3-.24-21,32.71-16.56,25.73,4.47Z"/>
          <g>
            <path class="st38" d="M-582.83-165.41c4.62-.7,12.05,2.65,13.14,7.55,2.16,9.66-8.36,16.11-16.5,12.02-8.79-4.41-5.33-18.27,3.36-19.57Z"/>
            <path class="st0" d="M-590.1-155.34l11.46.84c0,.6-11.59.93-11.46-.84Z"/>
            <path class="st47" d="M-582.83-164.29c2.25-.28,5.62-.03,7.55,1.4l-10.91.28c-.03-.8,2.98-1.63,3.36-1.68Z"/>
          </g>
        </g>
        <g>
          <path class="st13" d="M-394.64-227.49c-.42,8.37-3.39,15.89-3.91,23.49-1.94-1.23-1.8,4.3-1.68,4.75,1.13,4.19,9.99,4.42,12.3-.56.34-.73,3.65-13.95,3.91-15.38l4.47-4.19,5.59-13.14c.08,12.29,0,24.62,0,36.91-.81-.19-4.22.37-4.47.84-1.16,2.14.8,37.87-.56,45.3-1.15,6.28-6.93,16.18-12.3,19.85-.34-1.24-1.48-1.29-2.52-1.12-24.73,4-50.63.23-75.78,2.24-3.4.27-5.63.57-8.95,1.12l.56-2.8c5.26-.52,23.78-1.53,24.61-7.55.24-1.72-.86-5.3-2.52-5.87-1.87-.65-24.16,4.7-29.08,5.03-7.54.51-17.63.23-25.17-.56-4.1-.43-21.59-5.09-23.49-4.47-3.13,1.02-3.12,7.54-.56,9.51,1.69,1.3,13.6,2.94,16.5,3.36-.03,2.12,2.96.38.56,2.24-3.19.25-1.51,1.79-5.31,2.8-4.11,1.09-64.73.57-69.91-.56-6.99-1.52-18.01-13.12-14.54-20.69,6.02,5.23,11.26,11.88,16.78,17.9,6.14-1.23,50.61,1.72,52.29-.28,1.35-1.6-3.3-2.37-4.19-2.52-17.56-2.85-27.67,5.95-44.46-9.51,5.93,1.95,16.36-1.51,18.46-7.83l18.73-12.3c11.17,8.14,25.46,14.18,39.15,16.22,1.06.16,5.18.7,5.87-.56,48.77,4.43,93.63-28,102.34-76.62,1.89-10.52,1.45-21.37,0-31.88,3.02.41,5.73-1.4,6.71,1.96.37,1.26.68,22.39.56,24.89Z"/>
          <g>
            <path class="st35" d="M-411.14-167.65c19.29-2.25,20.44,27.43,1.68,26.84-15.94-.5-16.56-25.11-1.68-26.84Z"/>
            <g>
              <path class="st38" d="M-411.14-165.41c5.15-.77,11.14,2.22,12.58,7.55,2.5,9.23-7.86,16.38-15.94,12.02-.87-.47-5.25-6.54-5.31-6.99-.75-5.23,3.25-11.77,8.67-12.58Z"/>
              <path class="st0" d="M-405.54-155.34c1.84-.15,4.06-.12,5.87.28l-10.35,1.4c-.93-1.23,4.19-1.65,4.47-1.68Z"/>
              <path class="st47" d="M-411.14-164.29c2.22-.36,4.89,0,6.99.84l-9.79.84c-.51-.92,2.46-1.62,2.8-1.68Z"/>
              <path class="st0" d="M-407.22-148.07c.85,0,2.57-.37,1.68,1.12l-6.99-.28c1.37.09,4.41-.84,5.31-.84Z"/>
              <path class="st11" d="M-402.19-149.75l.84.28c-.78.81-1.58,2.02-2.8,1.12l1.96-1.4Z"/>
            </g>
          </g>
        </g>
        <g>
          <path class="st36" d="M-427.08-291.8c34.73,45.43,15.25,113.74-38.87,132.54-73.55,25.55-139.94-51.05-104.3-120.24,28.12-54.58,105.83-61.14,143.17-12.3Z"/>
          <g>
            <path class="st43" d="M-433.79-198.96c.12-2.03-.09-4.12,0-6.15,9-13.04,12.1-30.54,10.07-46.14-.55-4.2-7.01-22.31-6.71-23.49.73-2.88,5.6-1.29,7.27,1.12,5.02,7.24,7.75,30.26,7.27,39.15-.53,9.86-5.06,35.7-17.9,35.51Z"/>
            <path class="st43" d="M-533.61-176.59c2.51-1.01,15.21,5.13,19.01,6.15,17.06,4.58,29.33,3.1,45.86-2.24,4.29-1.39,6.81-5.07,11.74-3.91,3.62,1.15-1.75,6.72-3.36,7.83-15.11,10.45-51.14,9.59-67.11,1.12-3.46-1.84-7.52-4.11-6.15-8.95Z"/>
            <path class="st43" d="M-556.26-202.32c.03.74-.03,1.5,0,2.24-7.74-.35-9.77-4.6-12.3-10.91-6.02-14.93-6.4-34.89-2.24-50.33.72-2.65,6.7-19.81,11.19-16.22,1.23.98-5.6,20.65-6.15,24.05-3.07,18.92,1.71,34.23,9.51,51.17Z"/>
            <path class="st43" d="M-503.41-318.08c8.86-.79,21.03.01,29.64,2.24,6.77,1.75,17.57,5.65,19.29,13.14-.89,1.16-23.83-7.98-27.68-8.67-10.54-1.88-21.6-1.2-31.88,1.68-7.67,2.15-13.58,7.77-21.25,7.27,1.77-10.23,22.91-14.86,31.88-15.66Z"/>
            <g>
              <path class="st37" d="M-433.79-287.33c2.69,23.55,1.11,58.03,0,82.21-.09,2.03.12,4.12,0,6.15-.54,8.92-.79,19.32-12.58,21.25-19,3.12-61.11.7-81.93,0-1.88-1.52-7.84.2-7.27-2.8,6.97.48,14.72-.11,21.81,0,1.11.02,2.24-.01,3.36,0,14.55.18,51.66,2.38,63.75-.56,4.11-1,10.39-6.89,10.07-11.19l.56-86.12c.07-2.79,0-5.65-.56-8.39l1.96,8.95.84-9.51Z"/>
              <path class="st39" d="M-553.47-255.45c-.08,5.58,0,11.2,0,16.78,0,4.84-.06,9.7,0,14.54.07,5.39-.15,10.83,0,16.22l-2.8,1.68c-.42-16.32-.19-32.88,0-49.21l.84,2.8c.69-1.62-.55-3.22,1.96-2.8Z"/>
              <path class="st13" d="M-535.57-180.51c-.57,3,5.39,1.28,7.27,2.8-20.65-.7-26.9,1.04-27.96-22.37-.03-.74.03-1.5,0-2.24-.05-1.3.03-2.62,0-3.91l2.8-1.68c.47,16.68-2.4,26,17.9,27.4Z"/>
              <path class="st2" d="M-433.79-287.33l-.84,9.51-1.96-8.95c-.88-4.25-3.55-8.89-7.83-10.63l.56-2.8c6.59,2.06,9.34,6.53,10.07,12.86Z"/>
              <path class="st18" d="M-533.89-298.51c1.01,4.1-3.41,2.52-5.87,3.91s-10.32,8.57-10.91,10.91c-.95,3.81.5,11.96,5.87,10.91.64-.13,5.2-4.41,5.31-4.75,1.76-5.46-3.38-6.85,7.83-6.99.24.95,1.46,0,.56,2.24-1.13.05-6.31-.29-6.71.28v27.12l-1.12-.28-.28-19.85-.84,20.97c.6,1.35,6.93.87,8.39.84,3.05,9.75-11.25,6.92-6.15,17.06,3.62,7.21,12.73,3.15,15.38-3.08.66,4.88,1.72,8.29,4.19,12.3,3.88,6.28,10.06,11.23,17.34,12.86,2.2,4.78-1.34,8.65-.56,12.86.56,3,3.3,4.89,6.15,5.03l3.36,14.26-18.46,1.4c-1.11-.01-2.24.02-3.36,0,.05-2.19-2.87-.5-3.91-1.4-.52-.45-1.18-9.92-1.12-11.46,2.26-.08,9.77.72,10.63-1.4,2.04-13.79-2.13-14.88-12.3-21.53-1.41-1.28-2.61-3.7-3.91-4.47-.07-.99-.61-1.99-1.12-2.8-2.37-3.72-4.7.03-8.11-.56-2.77-.48-11.83-17.1-19.85-14.54,0-5.58-.08-11.2,0-16.78.29-21.31-7.11-41.41,19.57-43.06Z"/>
              <path class="st14" d="M-458.95-297.95c-.08.51.14,1.3,0,1.68-1.77,4.8-1.12,7.11,1.96,11.19-1.26,2.62-17.12.06-20.13,1.12-.57.2-.13,1.52-.28,1.68-.07.07-1.42-.07-1.68.84-.18.63-.19,10.66,0,11.19.42,1.14,2.15.76,2.24.84,2.82,2.66,8.61,8.72,11.19,10.63,1.38,6.3,9.17,3.49,13.98,3.64-.37-7.31.5-14.8,0-22.09.54.06,1.16-.1,1.68,0l.56,23.21c-.6,1.34-12.68.92-14.82.84-.78-.03-3.92-3.69-6.43,2.24-.83-1.76-7.08-9.7-9.51-8.95-.34-.26-5.29-3.23-5.59-3.36.85.03,4.39.89,4.75.56,3.73-3.39.99-5.84.84-7.55-.61-6.71-3.85-15.54,6.15-14.54-6.58.23-2.9-3.74-3.36-5.59-.26-1.07-4.73-6.81-3.91-7.83,7.47-.92,14.93.02,22.37.28Z"/>
              <path class="st14" d="M-510.96-282.29c-4.16-.75-15.39-.21-20.13,0,.9-2.24-.32-1.29-.56-2.24-.8-3.21,2.74-5.81,2.24-8.67-.26-1.48-4.93-2.6-2.24-4.75,6.61-.3,13.2-.93,19.85-.56l.84,16.22Z"/>
              <path class="st39" d="M-531.66-297.95c-2.69,2.16,1.98,3.27,2.24,4.75.5,2.86-3.04,5.46-2.24,8.67-11.21.14-6.07,1.53-7.83,6.99-.11.34-4.67,4.63-5.31,4.75-5.37,1.05-6.82-7.1-5.87-10.91.58-2.34,8.55-9.57,10.91-10.91s6.88.19,5.87-3.91c1.51-.09,2.12.56,2.24.56Z"/>
              <path class="st14" d="M-485.8-263.28c-14.48-.45-31.16.96-33.56,19.57l-1.68,1.68c.16-2.52.78-5.79,1.68-8.11,2.24-5.76,9.43-8,3.36-13.42l-.84-.84c-2.52.92-7.32,10.83-8.39,11.19-.96.32-4.95-.03-6.43,0s-7.79.51-8.39-.84l.84-20.97.28,19.85,1.12.28c8.61.12,12.68,1.78,16.22-7.27,1.28-1.31,2.62-2.59,3.91-3.91.94-.79,7.1-3.81,7.27-4.19.76-1.76-.56-9.52,0-12.02,2.49.81,1.16,6.05,1.68,7.55.47,1.35,11.83,7.83,2.52,11.46,7.56-1.36,12.9-3.04,20.41,0Z"/>
              <path class="st35" d="M-531.1-282.29c4.74-.21,15.98-.75,20.13,0,.19.03.4-.05.56,0-.56,2.51.76,10.27,0,12.02-.17.39-6.33,3.4-7.27,4.19,4.97-5.08,8.48-5.99,5.31-14.54h-23.49l-.28,23.21c3.04-.47,6.15-.27,9.23-.28.41,0,.16,1.16.56,1.12.36-.04,3.41-4.22,4.75-5.59-3.53,9.05-7.61,7.4-16.22,7.27v-27.12c.4-.57,5.58-.23,6.71-.28Z"/>
              <path class="st23" d="M-444.41-297.39c4.28,1.74,6.95,6.37,7.83,10.63.57,2.74.63,5.6.56,8.39h-3.36c.65-11.1-9.59-17.37-19.57-17.9.14-.38-.08-1.16,0-1.68,5.15.18,9.28-1.58,14.54.56Z"/>
              <g>
                <path class="st33" d="M-443.85-300.19l-.56,2.8c-5.26-2.14-9.39-.38-14.54-.56-7.44-.26-14.9-1.2-22.37-.28-.82,1.02,3.65,6.76,3.91,7.83.46,1.85-3.23,5.82,3.36,5.59-10-1-6.76,7.83-6.15,14.54.15,1.71,2.89,4.16-.84,7.55-.36.33-3.9-.53-4.75-.56-7.51-3.04-12.85-1.36-20.41,0,9.31-3.64-2.05-10.11-2.52-11.46-.51-1.5.81-6.74-1.68-7.55-.16-.05-.37.03-.56,0l-.84-16.22c-6.65-.37-13.25.25-19.85.56-.12,0-.72-.65-2.24-.56-26.68,1.65-19.28,21.75-19.57,43.06-2.51-.43-1.27,1.18-1.96,2.8l-.84-2.8c.14-11.98-4.08-39.61,9.23-44.74,9.08-3.5,58.56-2.58,71.02-2.24,8.2.23,25.34.1,32.16,2.24Z"/>
                <path class="st35" d="M-496.7-280.61c7.51-1.76,9.39,8.65,3.91,10.07-8.57,2.22-8.8-8.92-3.91-10.07Z"/>
              </g>
              <path class="st46" d="M-535.57-193.37c4.31.57,12.18.17,16.78,0-.06,1.55.6,11.02,1.12,11.46,1.05.9,3.97-.79,3.91,1.4-7.09-.11-14.84.48-21.81,0-20.3-1.41-17.42-10.73-17.9-27.4-.15-5.39.07-10.83,0-16.22,1.66.1,12.55,3.59,12.86,4.19.95,1.85-.31,21.38.56,25.17.49,1.18,3.37,1.25,4.47,1.4Z"/>
              <path class="st5" d="M-436.58-192.25c.32,4.29-5.96,10.19-10.07,11.19l-15.66-.84c-.93-5.72.92-7.3,3.91-11.46,2.24-.21,7.6-.31,8.39-2.52.29-.81-.16-3.04,0-4.19,3.5-1.76,3.72-6.32,8.67-3.91,4.2,2.04,1.21,6.4,1.96,8.11.5,1.15,2.54.28,2.8,3.64Z"/>
              <path class="st18" d="M-525.5-223.57c-1.76.26-11.78-.46-12.3.28-.79,1.12.6,23.96,0,27.4l13.42.28c-2.93.13-6.3.29-9.23.56-1.53.14-2.21-.54-1.96,1.68-1.1-.15-3.98-.22-4.47-1.4-.87-3.79.39-23.31-.56-25.17-.31-.6-11.2-4.1-12.86-4.19-.06-4.84,0-9.7,0-14.54,8.03-2.56,17.09,14.06,19.85,14.54,3.41.59,5.74-3.16,8.11.56Z"/>
              <path class="st36" d="M-524.39-220.77c1.3.78,2.5,3.19,3.91,4.47,2.28,2.06,5.91,5.17,7.83,7.27,2.15,1.81.3,10.22-.28,10.63-1.18.84-20.07-.83-23.21.28v-23.49c3.93-.25,8.44-1.13,11.74.84Z"/>
              <path class="st35" d="M-525.5-223.57c.51.8,1.04,1.81,1.12,2.8-3.31-1.97-7.82-1.09-11.74-.84v23.49c3.14-1.11,22.02.56,23.21-.28.58-.41,2.43-8.82.28-10.63.09.1,1.91.28,2.24,1.4.73,2.47-.54,8.28,0,11.19-.66,1.48-11.77.74-13.98.84l-13.42-.28c.6-3.44-.79-26.29,0-27.4.52-.74,10.54-.02,12.3-.28Z"/>
              <path class="st37" d="M-518.79-193.37c-4.6.17-12.47.57-16.78,0-.26-2.22.43-1.54,1.96-1.68,2.93-.27,6.3-.43,9.23-.56,2.21-.1,13.32.64,13.98-.84-.54-2.91.73-8.71,0-11.19-.33-1.12-2.15-1.3-2.24-1.4-1.92-2.1-5.55-5.21-7.83-7.27,10.17,6.65,14.35,7.74,12.3,21.53-.85,2.12-8.36,1.31-10.63,1.4Z"/>
              <path class="st33" d="M-495.3-196.17c-2.85-.15-5.59-2.03-6.15-5.03.71,1.22,1.62,1.24,2.8,1.68,4.46,1.67,9.2,1.19,8.95-4.47,3.57-1.66,2.09,3.26,1.12,4.75-1.27,1.97-4.42,3.19-6.71,3.08Z"/>
              <path class="st36" d="M-465.66-258.8c-2.57-1.91-8.37-7.96-11.19-10.63l-.28-11.19h22.93c.95.67.95,22.26.28,23.21-1.56,2.2-9.48.28-11.74-1.4Z"/>
              <path class="st39" d="M-439.38-278.38c-.11,1.81-.73,3.47-.56,5.31-4.62,3.47-7.82-3.74-10.07-4.19-.52-.1-1.14.06-1.68,0-.07-.97.29-4.63-.28-5.03h-25.45c.15-.15-.29-1.48.28-1.68,3.01-1.06,18.87,1.5,20.13-1.12-3.08-4.07-3.73-6.39-1.96-11.19,9.98.52,20.22,6.8,19.57,17.9Z"/>
              <path class="st35" d="M-477.41-282.29h25.45c.57.41.21,4.06.28,5.03.5,7.29-.37,14.78,0,22.09-4.81-.15-12.6,2.66-13.98-3.64,2.27,1.68,10.19,3.6,11.74,1.4.67-.95.67-22.54-.28-23.21h-22.93l.28,11.19c-.09-.08-1.82.3-2.24-.84-.19-.52-.18-10.55,0-11.19.26-.91,1.61-.77,1.68-.84Z"/>
              <path class="st36" d="M-517.67-266.07c-1.29,1.32-2.63,2.61-3.91,3.91s-4.39,5.55-4.75,5.59c-.4.04-.15-1.12-.56-1.12-3.07,0-6.19-.19-9.23.28l.28-23.21h23.49c3.16,8.55-.34,9.46-5.31,14.54Z"/>
              <path class="st36" d="M-477.41-209.03c3.05-3.49,10.36-6.41,11.74-12.3.6-.33,1.05-.96,1.68-1.12,1.52,1.44,9.35-.17,10.07.84.66.94-.23,19.89.56,22.93l-24.33.28.28-10.63Z"/>
              <path class="st33" d="M-450.01-200.08c-.16,1.16.29,3.38,0,4.19-.79,2.2-6.15,2.31-8.39,2.52-2.6.24-22.39.38-22.93-.84.59-3.68-1.04-11.44.56-14.54.78-1.52,6.56-3.89,8.11-5.31,2.39-2.19,3.96-5.58,6.99-7.27-1.39,5.9-8.69,8.82-11.74,12.3-2.64,3.02-2.2,9.23-.84,13.42h25.73c1.87-.83.29-21.21.84-24.61.03-.19.66-3.62,1.68-2.52-.65,7.52,1.05,15.18,0,22.65Z"/>
              <path class="st35" d="M-451.68-220.21c-.55,3.39,1.03,23.78-.84,24.61h-25.73c-1.36-4.2-1.8-10.4.84-13.42l-.28,10.63,24.33-.28c-.79-3.04.1-21.99-.56-22.93-.72-1.01-8.55.6-10.07-.84,2.63-.65,13.61-2.25,12.3,2.24Z"/>
              <path class="st35" d="M-489.71-204c.25,5.66-4.49,6.15-8.95,4.47-5.9-8.94,8.59-12.68,8.95-4.47Z"/>
              <g>
                <path class="st40" d="M-436.02-278.38l-.56,86.12c-.25-3.36-2.29-2.49-2.8-3.64-.74-1.71,2.25-6.07-1.96-8.11-4.95-2.4-5.17,2.15-8.67,3.91,1.05-7.47-.65-15.13,0-22.65-1.02-1.1-1.65,2.33-1.68,2.52,1.31-4.49-9.67-2.88-12.3-2.24-.63.15-1.08.79-1.68,1.12-3.03,1.69-4.6,5.08-6.99,7.27-1.55,1.42-7.32,3.79-8.11,5.31-1.59,3.1.03,10.86-.56,14.54.54,1.22,20.33,1.08,22.93.84-3,4.16-4.84,5.75-3.91,11.46l15.66.84c-12.09,2.94-49.2.74-63.75.56l18.46-1.4-3.36-14.26c2.29.12,5.44-1.11,6.71-3.08.97-1.5,2.45-6.42-1.12-4.75-.36-8.2-14.85-4.47-8.95,4.47-1.18-.44-2.09-.45-2.8-1.68-.78-4.21,2.76-8.08.56-12.86,21.22,4.75,39.73-16.8,30.2-36.91,2.51-5.92,5.65-2.27,6.43-2.24,2.14.08,14.22.5,14.82-.84l-.56-23.21c2.24.45,5.45,7.67,10.07,4.19-.17-1.84.45-3.5.56-5.31h3.36Z"/>
                <path class="st35" d="M-453.36-241.47c2,7.99-9.79,9.96-10.07,2.24s6.08-5.72,10.07-2.24Z"/>
                <path class="st33" d="M-463.43-239.23c.28,7.73,12.07,5.76,10.07-2.24.14.12,1.58-2.03,2.24,1.4,1.5,7.8-12.05,12-13.98,2.24-.02-.11.66-3.84,1.68-1.4Z"/>
              </g>
              <g>
                <path class="st40" d="M-521.03-242.03c-.36,5.78.69,9.81,2.8,15.1-2.48-4.01-3.53-7.42-4.19-12.3-2.65,6.23-11.75,10.28-15.38,3.08-5.1-10.14,9.2-7.31,6.15-17.06,1.48-.03,5.47.32,6.43,0,1.07-.36,5.87-10.26,8.39-11.19l.84.84c6.08,5.42-1.12,7.66-3.36,13.42-.9,2.32-1.52,5.59-1.68,8.11Z"/>
                <path class="st35" d="M-533.05-244.26c7.69-1.99,9.1,7.54,4.47,9.51-7.36,3.13-10.4-7.97-4.47-9.51Z"/>
              </g>
              <g>
                <path class="st35" d="M-485.8-263.28c.3.12,5.25,3.1,5.59,3.36,20.86,15.73,6.99,47.94-18.73,44.74-13.38-1.66-22.06-15.73-20.41-28.52,2.39-18.61,19.08-20.02,33.56-19.57Z"/>
                <g>
                  <path class="st33" d="M-470.7-250.97c9.53,20.11-8.97,41.66-30.2,36.91-7.28-1.63-13.46-6.58-17.34-12.86-2.1-5.29-3.15-9.32-2.8-15.1l1.68-1.68c-1.64,12.79,7.03,26.86,20.41,28.52,25.72,3.2,39.6-29.02,18.73-44.74,2.43-.75,8.67,7.19,9.51,8.95Z"/>
                  <path class="st28" d="M-512.08-251.53c-4.02,5.5-3.78,11.73-2.8,18.18l2.24-4.75c.44,8.12,5.71,14.13,13.42,15.66,3.53,4.13,15.33,1.91,17.34-3.36.71.5,2.12.55,2.24.84-7.58,7.24-16.93,8.12-26.01,3.08-.84-.46-6.35-4.84-6.43-5.31-.17-1.02,2.16-1.69.56-3.91-1.4-1.95-3.34.67-4.47-1.68-.36-.75-.7-9.57-.56-10.63,2.67-19.68,32.73-26.26,40.55-6.99l-2.8-3.91c-12.8-7.76-16.11-6.5-27.96,0-1.48.81-1.45-2.49-5.31,2.8Z"/>
                  <path class="st38" d="M-503.13-228.04c-4.43-3.04-6.47-6.92-6.15-12.3l13.42,1.4c-2.85,3.35-2.54,11.69-7.27,10.91Z"/>
                  <path class="st42" d="M-478.81-252.65c3.14.26,7.8,24.64-2.24,23.49,3.49-5.55,5.47-8.41,3.64-15.38-.22-.83-5.5-8.44-1.4-8.11Z"/>
                  <path class="st9" d="M-512.64-238.11l-2.24,4.75c-.98-6.45-1.23-12.67,2.8-18.18,4.97,1.87-.89,7.32-.56,13.42Z"/>
                  <path class="st25" d="M-481.88-225.81c-2,5.26-13.81,7.48-17.34,3.36,5.15,1.02,8.21.77,13.14-1.68.72-.36,3.01-3.36,3.36-3.36.22,0,.56,1.48.84,1.68Z"/>
                  <path class="st42" d="M-479.93-229.16c2.76-.23.38,3.77-1.12,2.8-1.03-.66.65-2.76,1.12-2.8Z"/>
                  <g>
                    <path class="st34" d="M-503.13-228.04c4.73.79,4.42-7.55,7.27-10.91l-13.42-1.4c.66-11,14.04-18.06,23.21-11.74,11.86,8.17.2,35.87-17.06,24.05Z"/>
                    <path class="st47" d="M-486.08-245.94c-.32,6.36-4.11,13.23-8.39,17.9l8.39-17.9Z"/>
                  </g>
                </g>
              </g>
            </g>
          </g>
        </g>
      </g>
    </g>
  </g>
</svg>